<svg xmlns="http://www.w3.org/2000/svg" width="744" height="760">
 <!-- Created with Image Occlusion Enhanced -->
 <g>
  <title>Labels</title>
 </g>
 <g>
  <title>Masks</title>
  <rect id="02edf5a6cafe4b95a0b242a51990d791-ao-1" height="21.15385" width="79.80769" y="74.61535" x="512.92306" stroke="#2D2D2D" fill="#FFEBA2"/>
  
  <rect id="02edf5a6cafe4b95a0b242a51990d791-ao-3" height="21.15385" width="96.15384" y="175.57689" x="511.96152" stroke="#2D2D2D" fill="#FFEBA2"/>
  <rect id="02edf5a6cafe4b95a0b242a51990d791-ao-4" height="20.19231" width="59.61538" y="143.84612" x="159.07691" stroke="#2D2D2D" fill="#FFEBA2"/>
  <rect id="02edf5a6cafe4b95a0b242a51990d791-ao-5" height="20.19231" width="115.38461" y="71.73074" x="127.34614" stroke="#2D2D2D" fill="#FFEBA2"/>
  <rect id="02edf5a6cafe4b95a0b242a51990d791-ao-6" height="18.26923" width="49.03846" y="174.61535" x="114.84614" stroke="#2D2D2D" fill="#FFEBA2"/>
  <rect id="02edf5a6cafe4b95a0b242a51990d791-ao-7" height="22.11538" width="65.38461" y="210.19227" x="50.42307" stroke="#2D2D2D" fill="#FFEBA2"/>
  <rect id="02edf5a6cafe4b95a0b242a51990d791-ao-8" height="22.11538" width="65.38461" y="306.34612" x="23.49999" stroke="#2D2D2D" fill="#FFEBA2"/>
  <rect id="02edf5a6cafe4b95a0b242a51990d791-ao-9" height="17.30769" width="64.42308" y="359.23073" x="24.46153" stroke="#2D2D2D" fill="#FFEBA2"/>
  <rect id="02edf5a6cafe4b95a0b242a51990d791-ao-10" height="22.11538" width="79.80769" y="406.34612" x="9.07691" stroke="#2D2D2D" fill="#FFEBA2"/>
  <rect id="02edf5a6cafe4b95a0b242a51990d791-ao-11" height="23.07692" width="75.96154" y="209.23074" x="637.92306" stroke="#2D2D2D" fill="#FFEBA2"/>
  <rect id="02edf5a6cafe4b95a0b242a51990d791-ao-12" height="31.73077" width="49.03846" y="262.11535" x="640.80767" stroke="#2D2D2D" fill="#FFEBA2"/>
  <rect id="02edf5a6cafe4b95a0b242a51990d791-ao-13" height="27.88462" width="75" y="323.65381" x="638.8846" stroke="#2D2D2D" fill="#FFEBA2"/>
  <rect id="02edf5a6cafe4b95a0b242a51990d791-ao-14" height="19.23077" width="104.80769" y="527.49996" x="561.96152" stroke="#2D2D2D" fill="#FFEBA2"/>
  <rect id="02edf5a6cafe4b95a0b242a51990d791-ao-15" height="19.23077" width="83.65385" y="559.23073" x="562.92306" stroke="#2D2D2D" fill="#FFEBA2"/>
  <rect id="02edf5a6cafe4b95a0b242a51990d791-ao-16" height="22.11538" width="99.03846" y="589.99996" x="561.96152" stroke="#2D2D2D" fill="#FFEBA2"/>
  <rect id="02edf5a6cafe4b95a0b242a51990d791-ao-17" height="17.30769" width="114.42308" y="622.69227" x="562.92306" stroke="#2D2D2D" fill="#FFEBA2"/>
  <rect id="02edf5a6cafe4b95a0b242a51990d791-ao-18" height="16.34615" width="71.15385" y="656.34612" x="564.84614" stroke="#2D2D2D" fill="#FFEBA2"/>
  <rect id="02edf5a6cafe4b95a0b242a51990d791-ao-19" height="16.34615" width="122.11538" y="688.07688" x="561.96152" stroke="#2D2D2D" fill="#FFEBA2"/>
  <rect id="02edf5a6cafe4b95a0b242a51990d791-ao-20" height="20.19231" width="118.26923" y="719.80765" x="561.96152" stroke="#2D2D2D" fill="#FFEBA2"/>
  <rect id="02edf5a6cafe4b95a0b242a51990d791-ao-21" height="17.30769" width="90.38461" y="500.57689" x="90.80768" stroke="#2D2D2D" fill="#FFEBA2"/>
  <rect id="02edf5a6cafe4b95a0b242a51990d791-ao-22" height="19.23077" width="100" y="541.92304" x="81.1923" stroke="#2D2D2D" fill="#FFEBA2"/>
  <rect id="02edf5a6cafe4b95a0b242a51990d791-ao-23" height="18.26923" width="119.23077" y="583.26919" x="64.84614" stroke="#2D2D2D" fill="#FFEBA2"/>
  <rect id="02edf5a6cafe4b95a0b242a51990d791-ao-24" height="18.26923" width="69.23077" y="681.34611" x="116.76922" stroke="#2D2D2D" fill="#FFEBA2"/>
 </g>
</svg>