<svg xmlns="http://www.w3.org/2000/svg" width="586" height="690">
 <!-- Created with Image Occlusion Enhanced -->
 <g>
  <title>Labels</title>
 </g>
 <g>
  <title>Masks</title>
  <rect id="0b500a555bec4c4693f631f606302a5e-ao-1" height="13.95349" width="56.68605" y="9.06975" x="337.37211" stroke="#2D2D2D" fill="#FFEBA2"/>
  <rect id="0b500a555bec4c4693f631f606302a5e-ao-2" height="20.05814" width="56.68605" y="29.99998" x="319.93025" stroke="#2D2D2D" fill="#FFEBA2"/>
  <rect id="0b500a555bec4c4693f631f606302a5e-ao-3" height="18.31395" width="58.43023" y="60.52324" x="300.7442" stroke="#2D2D2D" fill="#FFEBA2"/>
  <rect id="0b500a555bec4c4693f631f606302a5e-ao-4" height="43.60465" width="54.06977" y="87.55812" x="289.40699" stroke="#2D2D2D" fill="#FFEBA2"/>
  <rect id="0b500a555bec4c4693f631f606302a5e-ao-5" height="34.88372" width="54.94186" y="60.52324" x="492.60467" stroke="#2D2D2D" fill="#FFEBA2"/>
  <rect id="0b500a555bec4c4693f631f606302a5e-ao-6" height="13.95349" width="72.38372" y="17.79068" x="438.5349" stroke="#2D2D2D" fill="#FFEBA2"/>
  <rect id="0b500a555bec4c4693f631f606302a5e-ao-7" height="13.95349" width="102.90698" y="2.093" x="415.86048" stroke="#2D2D2D" fill="#FFEBA2"/>
  <rect id="0b500a555bec4c4693f631f606302a5e-ao-8" height="19.18605" width="70.63954" y="256.74417" x="495.22095" stroke="#2D2D2D" fill="#FFEBA2"/>
  
  <rect id="0b500a555bec4c4693f631f606302a5e-ao-10" height="11.33721" width="87.2093" y="368.37208" x="495.22095" stroke="#2D2D2D" fill="#FFEBA2"/>
  <rect id="0b500a555bec4c4693f631f606302a5e-ao-11" height="9.59302" width="51.45349" y="388.43022" x="494.34886" stroke="#2D2D2D" fill="#FFEBA2"/>
  <rect id="0b500a555bec4c4693f631f606302a5e-ao-12" height="10.46512" width="90.69768" y="407.61626" x="493.47676" stroke="#2D2D2D" fill="#FFEBA2"/>
  <rect id="0b500a555bec4c4693f631f606302a5e-ao-13" height="15.69767" width="65.40698" y="479.99999" x="477.77909" stroke="#2D2D2D" fill="#FFEBA2"/>
  <rect id="0b500a555bec4c4693f631f606302a5e-ao-14" height="13.95349" width="66.27907" y="456.45347" x="483.88374" stroke="#2D2D2D" fill="#FFEBA2"/>
  <rect id="0b500a555bec4c4693f631f606302a5e-ao-15" height="13.0814" width="73.25582" y="628.2558" x="370.51164" stroke="#2D2D2D" fill="#FFEBA2"/>
  <rect id="0b500a555bec4c4693f631f606302a5e-ao-16" height="11.33721" width="111.62791" y="552.38371" x="440.27909" stroke="#2D2D2D" fill="#FFEBA2"/>
  <rect id="0b500a555bec4c4693f631f606302a5e-ao-17" height="17.44186" width="99.41861" y="574.18603" x="420.22095" stroke="#2D2D2D" fill="#FFEBA2"/>
  <rect id="0b500a555bec4c4693f631f606302a5e-ao-18" height="20.05814" width="156.97675" y="601.22092" x="395.80234" stroke="#2D2D2D" fill="#FFEBA2"/>
  <rect id="0b500a555bec4c4693f631f606302a5e-ao-19" height="14.82558" width="56.68605" y="664.88371" x="319.93025" stroke="#2D2D2D" fill="#FFEBA2"/>
  <rect id="0b500a555bec4c4693f631f606302a5e-ao-20" height="12.2093" width="68.02326" y="647.44185" x="350.4535" stroke="#2D2D2D" fill="#FFEBA2"/>
  <rect id="0b500a555bec4c4693f631f606302a5e-ao-21" height="11.33721" width="48.83721" y="643.08138" x="216.15118" stroke="#2D2D2D" fill="#FFEBA2"/>
  <rect id="0b500a555bec4c4693f631f606302a5e-ao-22" height="13.95349" width="42.73256" y="664.88371" x="250.1628" stroke="#2D2D2D" fill="#FFEBA2"/>
  <rect id="0b500a555bec4c4693f631f606302a5e-ao-23" height="11.33721" width="45.34884" y="619.53487" x="189.98839" stroke="#2D2D2D" fill="#FFEBA2"/>
  <rect id="0b500a555bec4c4693f631f606302a5e-ao-24" height="12.2093" width="45.34884" y="592.49999" x="159.46513" stroke="#2D2D2D" fill="#FFEBA2"/>
  <rect id="0b500a555bec4c4693f631f606302a5e-ao-25" height="22.67442" width="106.39535" y="563.72092" x="67.02327" stroke="#2D2D2D" fill="#FFEBA2"/>
  <rect id="0b500a555bec4c4693f631f606302a5e-ao-26" height="22.67442" width="79.36047" y="514.88371" x="52.19769" stroke="#2D2D2D" fill="#FFEBA2"/>
  <rect id="0b500a555bec4c4693f631f606302a5e-ao-27" height="14.82558" width="73.25582" y="492.20929" x="41.73257" stroke="#2D2D2D" fill="#FFEBA2"/>
  <rect id="0b500a555bec4c4693f631f606302a5e-ao-28" height="40.98837" width="74.12791" y="369.24417" x="20.80234" stroke="#2D2D2D" fill="#FFEBA2"/>
  <rect id="0b500a555bec4c4693f631f606302a5e-ao-29" height="26.16279" width="44.47674" y="197.44184" x="20.80234" stroke="#2D2D2D" fill="#FFEBA2"/>
  <rect id="0b500a555bec4c4693f631f606302a5e-ao-30" height="20.93023" width="67.15116" y="92.79068" x="205.68606" stroke="#2D2D2D" fill="#FFEBA2"/>
 </g>
</svg>