<svg xmlns="http://www.w3.org/2000/svg" width="661" height="568">
 <!-- Created with Image Occlusion Enhanced -->
 <g>
  <title>Labels</title>
 </g>
 <g>
  <title>Masks</title>
  <rect id="10246ee47b9449538cd6fd8a195106dc-ao-1" height="20.19231" width="129.8077" y="124.30773" x="49.57691" stroke="#2D2D2D" fill="#FFEBA2"/>
  <rect id="10246ee47b9449538cd6fd8a195106dc-ao-2" height="31.73077" width="172.11539" y="165.65388" x="13.99998" stroke="#2D2D2D" fill="#FFEBA2"/>
  <rect id="10246ee47b9449538cd6fd8a195106dc-ao-3" height="19.23077" width="134.61539" y="211.80773" x="47.65383" stroke="#2D2D2D" fill="#FFEBA2"/>
  <rect id="10246ee47b9449538cd6fd8a195106dc-ao-4" height="21.15385" width="84.61539" y="249.30773" x="95.73075" stroke="#2D2D2D" fill="#FFEBA2"/>
  <rect id="10246ee47b9449538cd6fd8a195106dc-ao-5" height="18.26923" width="92.3077" y="282.00004" x="89.96152" stroke="#2D2D2D" fill="#FFEBA2"/>
  <rect id="10246ee47b9449538cd6fd8a195106dc-ao-6" height="16.34615" width="140.38462" y="319.50004" x="80.34614" stroke="#2D2D2D" fill="#FFEBA2"/>
  <rect id="10246ee47b9449538cd6fd8a195106dc-ao-7" height="15.38462" width="70.19231" y="355.07697" x="131.30768" stroke="#2D2D2D" fill="#FFEBA2"/>
  <rect id="10246ee47b9449538cd6fd8a195106dc-ao-8" height="17.30769" width="46.15385" y="401.23082" x="130.34614" stroke="#2D2D2D" fill="#FFEBA2"/>
  <rect id="10246ee47b9449538cd6fd8a195106dc-ao-9" height="23.07692" width="58.65385" y="432.00005" x="127.46152" stroke="#2D2D2D" fill="#FFEBA2"/>
  <rect id="10246ee47b9449538cd6fd8a195106dc-ao-10" height="14.42308" width="56.73077" y="470.46159" x="154.3846" stroke="#2D2D2D" fill="#FFEBA2"/>
  <rect id="10246ee47b9449538cd6fd8a195106dc-ao-11" height="23.07692" width="136.53847" y="507.00005" x="111.11537" stroke="#2D2D2D" fill="#FFEBA2"/>
  
  <rect id="10246ee47b9449538cd6fd8a195106dc-ao-13" height="19.23077" width="47.11539" y="477.19236" x="491.88462" stroke="#2D2D2D" fill="#FFEBA2"/>
  <rect id="10246ee47b9449538cd6fd8a195106dc-ao-14" height="17.30769" width="122.11539" y="509.88467" x="490.92308" stroke="#2D2D2D" fill="#FFEBA2"/>
  <rect id="10246ee47b9449538cd6fd8a195106dc-ao-15" height="15.38462" width="102.88462" y="449.30774" x="495.73077" stroke="#2D2D2D" fill="#FFEBA2"/>
  <rect id="10246ee47b9449538cd6fd8a195106dc-ao-16" height="17.30769" width="94.23077" y="419.50005" x="497.65385" stroke="#2D2D2D" fill="#FFEBA2"/>
  <rect id="10246ee47b9449538cd6fd8a195106dc-ao-17" height="14.42308" width="106.73077" y="390.65389" x="495.73077" stroke="#2D2D2D" fill="#FFEBA2"/>
  <rect id="10246ee47b9449538cd6fd8a195106dc-ao-18" height="18.26923" width="60.57693" y="358.92312" x="494.76924" stroke="#2D2D2D" fill="#FFEBA2"/>
  <rect id="10246ee47b9449538cd6fd8a195106dc-ao-19" height="18.26923" width="102.88462" y="332.00004" x="495.73077" stroke="#2D2D2D" fill="#FFEBA2"/>
  <rect id="10246ee47b9449538cd6fd8a195106dc-ao-20" height="31.73077" width="67.3077" y="269.50004" x="555.34616" stroke="#2D2D2D" fill="#FFEBA2"/>
  <rect id="10246ee47b9449538cd6fd8a195106dc-ao-21" height="41.34616" width="72.11539" y="201.23081" x="556.3077" stroke="#2D2D2D" fill="#FFEBA2"/>
  <rect id="10246ee47b9449538cd6fd8a195106dc-ao-22" height="32.69231" width="65.38462" y="138.7308" x="561.11539" stroke="#2D2D2D" fill="#FFEBA2"/>
  <rect id="10246ee47b9449538cd6fd8a195106dc-ao-23" height="22.11539" width="82.69231" y="60.84619" x="530.34616" stroke="#2D2D2D" fill="#FFEBA2"/>
  <rect id="10246ee47b9449538cd6fd8a195106dc-ao-24" height="39.42308" width="154.8077" y="3.15387" x="465.92308" stroke="#2D2D2D" fill="#FFEBA2"/>
 </g>
</svg>