<svg xmlns="http://www.w3.org/2000/svg" width="848" height="813">
 <!-- Created with Image Occlusion Enhanced -->
 <g>
  <title>Labels</title>
 </g>
 <g>
  <title>Masks</title>
  <rect id="13e1530db14943588aa38334f3e79033-ao-1" height="35.61644" width="79.45206" y="210.56166" x="52.54798" stroke="#2D2D2D" fill="#FFEBA2"/>
  <rect id="13e1530db14943588aa38334f3e79033-ao-2" height="21.91781" width="26.0274" y="161.24659" x="107.3425" stroke="#2D2D2D" fill="#FFEBA2"/>
  <rect id="13e1530db14943588aa38334f3e79033-ao-3" height="20.54795" width="49.31507" y="111.93152" x="86.79455" stroke="#2D2D2D" fill="#FFEBA2"/>
  <rect id="13e1530db14943588aa38334f3e79033-ao-4" height="30.13699" width="93.15069" y="125.63015" x="342.95895" stroke="#2D2D2D" fill="#FFEBA2"/>
  <rect id="13e1530db14943588aa38334f3e79033-ao-5" height="17.80822" width="138.35617" y="173.57535" x="323.78086" stroke="#2D2D2D" fill="#FF7E7E" class="qshape"/>
  <rect id="13e1530db14943588aa38334f3e79033-ao-6" height="21.91781" width="73.97261" y="331.10961" x="321.04114" stroke="#2D2D2D" fill="#FFEBA2"/>
  <rect id="13e1530db14943588aa38334f3e79033-ao-7" height="21.91781" width="58.90411" y="391.38358" x="323.78086" stroke="#2D2D2D" fill="#FFEBA2"/>
  <rect id="13e1530db14943588aa38334f3e79033-ao-8" height="17.80822" width="75.34247" y="342.06851" x="59.39729" stroke="#2D2D2D" fill="#FFEBA2"/>
  <rect id="13e1530db14943588aa38334f3e79033-ao-9" height="19.17808" width="65.75343" y="422.89043" x="68.98633" stroke="#2D2D2D" fill="#FFEBA2"/>
  <rect id="13e1530db14943588aa38334f3e79033-ao-10" height="23.28767" width="87.67124" y="474.94523" x="52.54798" stroke="#2D2D2D" fill="#FFEBA2"/>
  <rect id="13e1530db14943588aa38334f3e79033-ao-11" height="41.09589" width="58.90411" y="498.2329" x="315.56169" stroke="#2D2D2D" fill="#FFEBA2"/>
  <rect id="13e1530db14943588aa38334f3e79033-ao-12" height="27.39726" width="101.36987" y="543.43838" x="37.47948" stroke="#2D2D2D" fill="#FFEBA2"/>
  <rect id="13e1530db14943588aa38334f3e79033-ao-13" height="35.61644" width="83.56165" y="768.09592" x="40.21921" stroke="#2D2D2D" fill="#FFEBA2"/>
  <rect id="13e1530db14943588aa38334f3e79033-ao-14" height="20.54795" width="90.41096" y="31.1096" x="392.27402" stroke="#2D2D2D" fill="#FFEBA2"/>
  <rect id="13e1530db14943588aa38334f3e79033-ao-15" height="23.28767" width="121.91781" y="59.87672" x="379.94525" stroke="#2D2D2D" fill="#FFEBA2"/>
  <rect id="13e1530db14943588aa38334f3e79033-ao-16" height="16.43836" width="57.53425" y="95.49316" x="400.49319" stroke="#2D2D2D" fill="#FFEBA2"/>
  <rect id="13e1530db14943588aa38334f3e79033-ao-17" height="35.61644" width="71.23288" y="199.60275" x="655.28772" stroke="#2D2D2D" fill="#FFEBA2"/>
  <rect id="13e1530db14943588aa38334f3e79033-ao-18" height="26.0274" width="73.97261" y="337.95892" x="653.91786" stroke="#2D2D2D" fill="#FFEBA2"/>
  <rect id="13e1530db14943588aa38334f3e79033-ao-19" height="21.91781" width="50.68493" y="380.42468" x="653.91786" stroke="#2D2D2D" fill="#FFEBA2"/>
  <rect id="13e1530db14943588aa38334f3e79033-ao-20" height="21.91781" width="67.12329" y="424.26029" x="652.548" stroke="#2D2D2D" fill="#FFEBA2"/>
  <rect id="13e1530db14943588aa38334f3e79033-ao-21" height="24.65754" width="105.47946" y="717.41099" x="359.3973" stroke="#2D2D2D" fill="#FFEBA2"/>
  <rect id="13e1530db14943588aa38334f3e79033-ao-22" height="49.31507" width="115.0685" y="621.52058" x="699.12334" stroke="#2D2D2D" fill="#FFEBA2"/>
  <rect id="13e1530db14943588aa38334f3e79033-ao-23" height="61.64384" width="115.0685" y="695.49318" x="697.75348" stroke="#2D2D2D" fill="#FFEBA2"/>
  <rect id="13e1530db14943588aa38334f3e79033-ao-24" height="36.9863" width="120.54795" y="605.08222" x="392.27402" stroke="#2D2D2D" fill="#FFEBA2"/>
  <rect id="13e1530db14943588aa38334f3e79033-ao-25" height="50.68493" width="126.0274" y="657.13702" x="390.90415" stroke="#2D2D2D" fill="#FFEBA2"/>
 </g>
</svg>