<svg xmlns="http://www.w3.org/2000/svg" width="871" height="477">
 <!-- Created with Image Occlusion Enhanced -->
 <g>
  <title>Labels</title>
 </g>
 <g>
  <title>Masks</title>
  <rect id="17837c1cbe1940d6990c09cb1a78cb0a-ao-1" height="18.54839" width="70.96774" y="15.90324" x="319.8064" stroke="#2D2D2D" fill="#FFEBA2"/>
  <rect id="17837c1cbe1940d6990c09cb1a78cb0a-ao-2" height="13.70968" width="162.90323" y="3.00002" x="505.29028" stroke="#2D2D2D" fill="#FFEBA2"/>
  <rect id="17837c1cbe1940d6990c09cb1a78cb0a-ao-3" height="13.70968" width="129.03226" y="23.16131" x="578.67738" stroke="#2D2D2D" fill="#FFEBA2"/>
  <rect id="17837c1cbe1940d6990c09cb1a78cb0a-ao-4" height="10.48387" width="135.48388" y="43.3226" x="606.90318" stroke="#2D2D2D" fill="#FFEBA2"/>
  <rect id="17837c1cbe1940d6990c09cb1a78cb0a-ao-5" height="16.12903" width="105.64516" y="117.51615" x="754.48383" stroke="#2D2D2D" fill="#FFEBA2"/>
  <rect id="17837c1cbe1940d6990c09cb1a78cb0a-ao-6" height="27.41936" width="88.70968" y="141.7097" x="749.64512" stroke="#2D2D2D" fill="#FFEBA2"/>
  <rect id="17837c1cbe1940d6990c09cb1a78cb0a-ao-7" height="38.70968" width="111.29033" y="181.22583" x="752.06448" stroke="#2D2D2D" fill="#FFEBA2"/>
  <rect id="17837c1cbe1940d6990c09cb1a78cb0a-ao-8" height="24.19355" width="101.61291" y="231.22583" x="749.64512" stroke="#2D2D2D" fill="#FFEBA2"/>
  <rect id="17837c1cbe1940d6990c09cb1a78cb0a-ao-9" height="14.51613" width="121.7742" y="261.06454" x="735.93545" stroke="#2D2D2D" fill="#FFEBA2"/>
  
  <rect id="17837c1cbe1940d6990c09cb1a78cb0a-ao-11" height="17.74194" width="88.70968" y="411.871" x="124.6451" stroke="#2D2D2D" fill="#FFEBA2"/>
  <rect id="17837c1cbe1940d6990c09cb1a78cb0a-ao-12" height="18.54839" width="111.29033" y="280.41938" x="9.32252" stroke="#2D2D2D" fill="#FFEBA2"/>
  <rect id="17837c1cbe1940d6990c09cb1a78cb0a-ao-13" height="43.54839" width="93.54839" y="226.38712" x="28.67736" stroke="#2D2D2D" fill="#FFEBA2"/>
  <rect id="17837c1cbe1940d6990c09cb1a78cb0a-ao-14" height="26.6129" width="100.80645" y="188.48389" x="17.38704" stroke="#2D2D2D" fill="#FFEBA2"/>
  <rect id="17837c1cbe1940d6990c09cb1a78cb0a-ao-15" height="25" width="105.64516" y="51.38711" x="142.38704" stroke="#2D2D2D" fill="#FFEBA2"/>
  <rect id="17837c1cbe1940d6990c09cb1a78cb0a-ao-16" height="19.35484" width="55.64516" y="37.67744" x="282.70963" stroke="#2D2D2D" fill="#FFEBA2"/>
 </g>
</svg>