<svg xmlns="http://www.w3.org/2000/svg" width="653" height="347">
 <!-- Created with Image Occlusion Enhanced -->
 <g>
  <title>Labels</title>
 </g>
 <g>
  <title>Masks</title>
  <rect id="221173e4f4ae4db2bb857cb877dc035c-ao-1" height="19.41177" width="21.76471" y="129.82351" x="62.64707" stroke="#2D2D2D" fill="#FFEBA2"/>
  <rect id="221173e4f4ae4db2bb857cb877dc035c-ao-2" height="22.35294" width="21.17647" y="56.88233" x="123.82355" stroke="#2D2D2D" fill="#FFEBA2"/>
  <rect id="221173e4f4ae4db2bb857cb877dc035c-ao-3" height="20" width="26.47059" y="55.11762" x="220.88237" stroke="#2D2D2D" fill="#FFEBA2"/>
  <rect id="221173e4f4ae4db2bb857cb877dc035c-ao-4" height="22.35294" width="22.35294" y="113.94115" x="289.11767" stroke="#2D2D2D" fill="#FFEBA2"/>
  <rect id="221173e4f4ae4db2bb857cb877dc035c-ao-5" height="22.35294" width="21.17647" y="177.47057" x="302.05884" stroke="#2D2D2D" fill="#FFEBA2"/>
  <rect id="221173e4f4ae4db2bb857cb877dc035c-ao-6" height="20.58824" width="21.17647" y="132.17645" x="247.9412" stroke="#2D2D2D" fill="#FFEBA2"/>
  <rect id="221173e4f4ae4db2bb857cb877dc035c-ao-7" height="20" width="18.82353" y="100.41174" x="208.52943" stroke="#2D2D2D" fill="#FFEBA2"/>
  <rect id="221173e4f4ae4db2bb857cb877dc035c-ao-8" height="22.35294" width="23.52941" y="109.23527" x="133.23531" stroke="#2D2D2D" fill="#FFEBA2"/>
  <rect id="221173e4f4ae4db2bb857cb877dc035c-ao-9" height="22.35294" width="21.76471" y="153.94115" x="128.52943" stroke="#2D2D2D" fill="#FFEBA2"/>
  <rect id="221173e4f4ae4db2bb857cb877dc035c-ao-10" height="22.35294" width="18.82353" y="168.0588" x="192.05884" stroke="#2D2D2D" fill="#FFEBA2"/>
  <rect id="221173e4f4ae4db2bb857cb877dc035c-ao-11" height="22.94118" width="22.35294" y="173.35292" x="232.05884" stroke="#2D2D2D" fill="#FFEBA2"/>
  <rect id="221173e4f4ae4db2bb857cb877dc035c-ao-12" height="21.17647" width="20.58824" y="237.47057" x="187.35296" stroke="#2D2D2D" fill="#FFEBA2"/>
  <rect id="221173e4f4ae4db2bb857cb877dc035c-ao-13" height="25.88235" width="22.35294" y="98.64704" x="483.82355" stroke="#2D2D2D" fill="#FFEBA2"/>
  <rect id="221173e4f4ae4db2bb857cb877dc035c-ao-14" height="26.47059" width="18.23529" y="156.2941" x="487.35297" stroke="#2D2D2D" fill="#FFEBA2"/>
  <rect id="221173e4f4ae4db2bb857cb877dc035c-ao-15" height="22.35294" width="21.17647" y="236.2941" x="483.82355" stroke="#2D2D2D" fill="#FFEBA2"/>
  <rect id="221173e4f4ae4db2bb857cb877dc035c-ao-16" height="17.64706" width="20.58824" y="269.23527" x="447.35297" stroke="#2D2D2D" fill="#FFEBA2"/>
  <rect id="221173e4f4ae4db2bb857cb877dc035c-ao-17" height="20.58824" width="24.70588" y="268.64704" x="497.9412" stroke="#2D2D2D" fill="#FFEBA2"/>
  <rect id="221173e4f4ae4db2bb857cb877dc035c-ao-18" height="23.52941" width="19.41177" y="228.0588" x="436.17649" stroke="#2D2D2D" fill="#FFEBA2"/>
  <rect id="221173e4f4ae4db2bb857cb877dc035c-ao-19" height="17.64706" width="20.58824" y="229.82351" x="512.05885" stroke="#2D2D2D" fill="#FFEBA2"/>
  <rect id="221173e4f4ae4db2bb857cb877dc035c-ao-20" height="17.64706" width="21.17647" y="159.23527" x="427.35296" stroke="#2D2D2D" fill="#FFEBA2"/>
  <rect id="221173e4f4ae4db2bb857cb877dc035c-ao-21" height="19.41177" width="20.58824" y="157.47057" x="519.11767" stroke="#2D2D2D" fill="#FFEBA2"/>
  <rect id="221173e4f4ae4db2bb857cb877dc035c-ao-22" height="20.58824" width="15.29412" y="157.47057" x="396.76473" stroke="#2D2D2D" fill="#FFEBA2"/>
  <rect id="221173e4f4ae4db2bb857cb877dc035c-ao-23" height="21.17647" width="18.82353" y="158.0588" x="556.1765" stroke="#2D2D2D" fill="#FFEBA2"/>
  <rect id="221173e4f4ae4db2bb857cb877dc035c-ao-24" height="20.58824" width="21.17647" y="223.94116" x="401.47061" stroke="#2D2D2D" fill="#FFEBA2"/>
  <rect id="221173e4f4ae4db2bb857cb877dc035c-ao-25" height="22.94118" width="22.94118" y="222.76469" x="547.35297" stroke="#2D2D2D" fill="#FFEBA2"/>
  <rect id="221173e4f4ae4db2bb857cb877dc035c-ao-26" height="21.76471" width="18.82353" y="107.47057" x="436.17649" stroke="#2D2D2D" fill="#FFEBA2"/>
  <rect id="221173e4f4ae4db2bb857cb877dc035c-ao-27" height="25.88235" width="20.58824" y="105.70586" x="517.9412" stroke="#2D2D2D" fill="#FFEBA2"/>
  <rect id="221173e4f4ae4db2bb857cb877dc035c-ao-28" height="25.29412" width="15.29412" y="110.99998" x="548.52944" stroke="#2D2D2D" fill="#FFEBA2"/>
  <rect id="221173e4f4ae4db2bb857cb877dc035c-ao-29" height="23.52941" width="18.82353" y="109.82351" x="403.82355" stroke="#2D2D2D" fill="#FF7E7E" class="qshape"/>
 </g>
</svg>