<svg xmlns="http://www.w3.org/2000/svg" width="767" height="845">
 <!-- Created with Image Occlusion Enhanced -->
 <g>
  <title>Labels</title>
 </g>
 <g>
  <title>Masks</title>
  <rect id="24d8566b90aa47a191a5edcdbec5a4f1-ao-1" height="19.28572" width="100.71429" y="16.85709" x="602.07148" stroke="#2D2D2D" fill="#FFEBA2"/>
  <rect id="24d8566b90aa47a191a5edcdbec5a4f1-ao-2" height="20.35714" width="83.57143" y="50.07138" x="557.07148" stroke="#2D2D2D" fill="#FFEBA2"/>
  <rect id="24d8566b90aa47a191a5edcdbec5a4f1-ao-3" height="19.28572" width="162.85715" y="78.99995" x="407.07148" stroke="#2D2D2D" fill="#FFEBA2"/>
  <rect id="24d8566b90aa47a191a5edcdbec5a4f1-ao-4" height="19.28572" width="82.5" y="108.99995" x="428.50005" stroke="#2D2D2D" fill="#FFEBA2"/>
  <rect id="24d8566b90aa47a191a5edcdbec5a4f1-ao-5" height="18.21429" width="101.78572" y="145.42853" x="63.14289" stroke="#2D2D2D" fill="#FFEBA2"/>
  <rect id="24d8566b90aa47a191a5edcdbec5a4f1-ao-6" height="19.28572" width="93.21429" y="197.92853" x="73.85718" stroke="#2D2D2D" fill="#FFEBA2"/>
  <rect id="24d8566b90aa47a191a5edcdbec5a4f1-ao-7" height="19.28572" width="101.78572" y="248.28567" x="59.9286" stroke="#2D2D2D" fill="#FFEBA2"/>
  <rect id="24d8566b90aa47a191a5edcdbec5a4f1-ao-8" height="26.78572" width="121.07143" y="298.64282" x="46.00003" stroke="#2D2D2D" fill="#FFEBA2"/>
  <rect id="24d8566b90aa47a191a5edcdbec5a4f1-ao-9" height="19.28572" width="117.85715" y="355.42854" x="51.35718" stroke="#2D2D2D" fill="#FFEBA2"/>
  <rect id="24d8566b90aa47a191a5edcdbec5a4f1-ao-10" height="19.28572" width="98.57143" y="406.85711" x="65.28575" stroke="#2D2D2D" fill="#FFEBA2"/>
  
  <rect id="24d8566b90aa47a191a5edcdbec5a4f1-ao-12" height="22.5" width="140.35715" y="562.21426" x="21.35717" stroke="#2D2D2D" fill="#FFEBA2"/>
  <rect id="24d8566b90aa47a191a5edcdbec5a4f1-ao-13" height="21.42857" width="101.78572" y="678.99998" x="388.85719" stroke="#2D2D2D" fill="#FFEBA2"/>
  <rect id="24d8566b90aa47a191a5edcdbec5a4f1-ao-14" height="19.28572" width="85.71429" y="717.57141" x="441.35719" stroke="#2D2D2D" fill="#FFEBA2"/>
  <rect id="24d8566b90aa47a191a5edcdbec5a4f1-ao-15" height="18.21429" width="82.5" y="750.78569" x="501.35719" stroke="#2D2D2D" fill="#FFEBA2"/>
  <rect id="24d8566b90aa47a191a5edcdbec5a4f1-ao-16" height="21.42857" width="98.57143" y="786.14284" x="554.92862" stroke="#2D2D2D" fill="#FFEBA2"/>
  <rect id="24d8566b90aa47a191a5edcdbec5a4f1-ao-17" height="21.42857" width="125.35715" y="821.49998" x="578.50005" stroke="#2D2D2D" fill="#FFEBA2"/>
 </g>
</svg>