<svg xmlns="http://www.w3.org/2000/svg" width="763" height="838">
 <!-- Created with Image Occlusion Enhanced -->
 <g>
  <title>Labels</title>
 </g>
 <g>
  <title>Masks</title>
  <rect id="3398d95c562e48aa87e7023f5d54aca8-ao-1" height="17.14286" width="55.71428" y="377.42853" x="325.99996" stroke="#2D2D2D" fill="#FFEBA2"/>
  <rect id="3398d95c562e48aa87e7023f5d54aca8-ao-2" height="18.21429" width="50.35714" y="423.49995" x="328.14281" stroke="#2D2D2D" fill="#FFEBA2"/>
  <rect id="3398d95c562e48aa87e7023f5d54aca8-ao-3" height="18.21429" width="159.64285" y="479.21424" x="277.78567" stroke="#2D2D2D" fill="#FFEBA2"/>
  <rect id="3398d95c562e48aa87e7023f5d54aca8-ao-4" height="26.78571" width="122.14285" y="516.71424" x="292.78567" stroke="#2D2D2D" fill="#FFEBA2"/>
  <rect id="3398d95c562e48aa87e7023f5d54aca8-ao-5" height="18.21429" width="67.5" y="711.71423" x="323.8571" stroke="#2D2D2D" fill="#FFEBA2"/>
  <rect id="3398d95c562e48aa87e7023f5d54aca8-ao-6" height="27.85714" width="88.92857" y="743.85709" x="310.99996" stroke="#2D2D2D" fill="#FFEBA2"/>
  <rect id="3398d95c562e48aa87e7023f5d54aca8-ao-7" height="17.14286" width="114.64285" y="782.42851" x="298.14281" stroke="#2D2D2D" fill="#FFEBA2"/>
  <rect id="3398d95c562e48aa87e7023f5d54aca8-ao-8" height="20.35714" width="110.35714" y="277.99996" x="271.3571" stroke="#2D2D2D" fill="#FFEBA2"/>
  <rect id="3398d95c562e48aa87e7023f5d54aca8-ao-9" height="21.42857" width="100.71428" y="247.99996" x="280.99996" stroke="#2D2D2D" fill="#FF7E7E" class="qshape"/>
  <rect id="3398d95c562e48aa87e7023f5d54aca8-ao-10" height="32.14286" width="97.5" y="220.14282" x="619.57137" stroke="#2D2D2D" fill="#FFEBA2"/>
  <rect id="3398d95c562e48aa87e7023f5d54aca8-ao-11" height="32.14286" width="127.5" y="284.42853" x="614.21423" stroke="#2D2D2D" fill="#FFEBA2"/>
  <rect id="3398d95c562e48aa87e7023f5d54aca8-ao-12" height="28.92857" width="136.07142" y="349.78567" x="595.99995" stroke="#2D2D2D" fill="#FFEBA2"/>
  <rect id="3398d95c562e48aa87e7023f5d54aca8-ao-13" height="20.35714" width="86.78571" y="98.21425" x="627.07137" stroke="#2D2D2D" fill="#FFEBA2"/>
  <rect id="3398d95c562e48aa87e7023f5d54aca8-ao-14" height="27.85714" width="131.78571" y="134.64282" x="625.99995" stroke="#2D2D2D" fill="#FFEBA2"/>
  <rect id="3398d95c562e48aa87e7023f5d54aca8-ao-15" height="32.14286" width="52.5" y="62.85711" x="321.71424" stroke="#2D2D2D" fill="#FFEBA2"/>
  <rect id="3398d95c562e48aa87e7023f5d54aca8-ao-16" height="26.78571" width="61.07143" y="124.99996" x="44.21425" stroke="#2D2D2D" fill="#FFEBA2"/>
  <rect id="3398d95c562e48aa87e7023f5d54aca8-ao-17" height="38.57143" width="55.71428" y="289.99996" x="48.49997" stroke="#2D2D2D" fill="#FFEBA2"/>
  <rect id="3398d95c562e48aa87e7023f5d54aca8-ao-18" height="45" width="56.78571" y="553.14281" x="47.42854" stroke="#2D2D2D" fill="#FFEBA2"/>
 </g>
</svg>