<svg xmlns="http://www.w3.org/2000/svg" width="672" height="773">
 <!-- Created with Image Occlusion Enhanced -->
 <g>
  <title>Labels</title>
 </g>
 <g>
  <title>Masks</title>
  <rect id="33cc32c74b764ebabf5c264fba04976e-ao-1" height="26.22951" width="100" y="683.39345" x="146.36062" stroke="#2D2D2D" fill="#FFEBA2"/>
  <rect id="33cc32c74b764ebabf5c264fba04976e-ao-2" height="24.59016" width="116.39344" y="670.27869" x="459.47538" stroke="#2D2D2D" fill="#FFEBA2"/>
  <rect id="33cc32c74b764ebabf5c264fba04976e-ao-3" height="16.39344" width="81.96721" y="642.40984" x="523.4098" stroke="#2D2D2D" fill="#FFEBA2"/>
  <rect id="33cc32c74b764ebabf5c264fba04976e-ao-4" height="21.31148" width="157.37705" y="722.73771" x="110.29505" stroke="#2D2D2D" fill="#FFEBA2"/>
  <rect id="33cc32c74b764ebabf5c264fba04976e-ao-5" height="16.39344" width="49.18033" y="612.90164" x="213.57374" stroke="#2D2D2D" fill="#FFEBA2"/>
  <rect id="33cc32c74b764ebabf5c264fba04976e-ao-6" height="19.67213" width="109.83607" y="571.91804" x="80.78685" stroke="#2D2D2D" fill="#FFEBA2"/>
  <rect id="33cc32c74b764ebabf5c264fba04976e-ao-7" height="18.03279" width="52.45902" y="535.85246" x="82.4262" stroke="#2D2D2D" fill="#FFEBA2"/>
  <rect id="33cc32c74b764ebabf5c264fba04976e-ao-8" height="29.5082" width="37.70492" y="437.49181" x="23.4098" stroke="#2D2D2D" fill="#FFEBA2"/>
  <rect id="33cc32c74b764ebabf5c264fba04976e-ao-9" height="14.7541" width="59.01639" y="321.09836" x="216.85243" stroke="#2D2D2D" fill="#FFEBA2"/>
  <rect id="33cc32c74b764ebabf5c264fba04976e-ao-10" height="18.03279" width="78.68852" y="373.55738" x="256.19669" stroke="#2D2D2D" fill="#FFEBA2"/>
  <rect id="33cc32c74b764ebabf5c264fba04976e-ao-11" height="26.22951" width="62.29508" y="340.77049" x="20.13111" stroke="#2D2D2D" fill="#FFEBA2"/>
  <rect id="33cc32c74b764ebabf5c264fba04976e-ao-12" height="54.09836" width="55.73771" y="278.47541" x="20.13111" stroke="#2D2D2D" fill="#FFEBA2"/>
  <rect id="33cc32c74b764ebabf5c264fba04976e-ao-13" height="16.39344" width="52.45902" y="216.18033" x="20.13111" stroke="#2D2D2D" fill="#FFEBA2"/>
  <rect id="33cc32c74b764ebabf5c264fba04976e-ao-14" height="36.06557" width="63.93443" y="168.63935" x="21.77046" stroke="#2D2D2D" fill="#FFEBA2"/>
  <rect id="33cc32c74b764ebabf5c264fba04976e-ao-15" height="32.78689" width="85.2459" y="27.65574" x="59.47538" stroke="#2D2D2D" fill="#FF7E7E" class="qshape"/>
  <rect id="33cc32c74b764ebabf5c264fba04976e-ao-16" height="14.7541" width="116.39344" y="32.57377" x="297.18029" stroke="#2D2D2D" fill="#FFEBA2"/>
  <rect id="33cc32c74b764ebabf5c264fba04976e-ao-17" height="13.11475" width="90.16393" y="55.52459" x="315.21308" stroke="#2D2D2D" fill="#FFEBA2"/>
  <rect id="33cc32c74b764ebabf5c264fba04976e-ao-18" height="11.47541" width="81.96721" y="81.7541" x="320.13111" stroke="#2D2D2D" fill="#FFEBA2"/>
  <rect id="33cc32c74b764ebabf5c264fba04976e-ao-19" height="39.34426" width="50.81967" y="40.77049" x="610.29505" stroke="#2D2D2D" fill="#FFEBA2"/>
  <rect id="33cc32c74b764ebabf5c264fba04976e-ao-20" height="24.59016" width="63.93443" y="281.7541" x="603.73767" stroke="#2D2D2D" fill="#FFEBA2"/>
  <rect id="33cc32c74b764ebabf5c264fba04976e-ao-21" height="16.39344" width="60.65574" y="340.77049" x="420.13111" stroke="#2D2D2D" fill="#FFEBA2"/>
  <rect id="33cc32c74b764ebabf5c264fba04976e-ao-22" height="14.7541" width="60.65574" y="388.31148" x="600.45898" stroke="#2D2D2D" fill="#FFEBA2"/>
  <rect id="33cc32c74b764ebabf5c264fba04976e-ao-23" height="45.90164" width="55.73771" y="335.85246" x="593.90161" stroke="#2D2D2D" fill="#FFEBA2"/>
  <rect id="33cc32c74b764ebabf5c264fba04976e-ao-24" height="55.73771" width="137.70492" y="385.03279" x="346.36062" stroke="#2D2D2D" fill="#FFEBA2"/>
 </g>
</svg>