<svg xmlns="http://www.w3.org/2000/svg" width="676" height="837">
 <!-- Created with Image Occlusion Enhanced -->
 <g>
  <title>Labels</title>
 </g>
 <g>
  <title>Masks</title>
  <rect id="3fa92d5a47634c85840d849b87f5b3e2-ao-1" height="15.84507" width="142.60564" y="13.72185" x="391.79931" stroke="#2D2D2D" fill="#FFEBA2"/>
  <rect id="3fa92d5a47634c85840d849b87f5b3e2-ao-2" height="21.39085" width="167.95775" y="98.49298" x="442.50354" stroke="#2D2D2D" fill="#FFEBA2"/>
  <rect id="3fa92d5a47634c85840d849b87f5b3e2-ao-3" height="17.42958" width="124.38381" y="149.1972" x="483.70072" stroke="#2D2D2D" fill="#FFEBA2"/>
  <rect id="3fa92d5a47634c85840d849b87f5b3e2-ao-4" height="17.42958" width="48.32747" y="190.39439" x="481.32396" stroke="#2D2D2D" fill="#FFEBA2"/>
  <rect id="3fa92d5a47634c85840d849b87f5b3e2-ao-5" height="15.05282" width="93.48592" y="237.9296" x="483.70072" stroke="#2D2D2D" fill="#FFEBA2"/>
  <rect id="3fa92d5a47634c85840d849b87f5b3e2-ao-6" height="17.42958" width="71.30282" y="279.12678" x="486.07749" stroke="#2D2D2D" fill="#FFEBA2"/>
  <rect id="3fa92d5a47634c85840d849b87f5b3e2-ao-7" height="15.05282" width="114.08451" y="45.41199" x="49.54579" stroke="#2D2D2D" fill="#FFEBA2"/>
  <rect id="3fa92d5a47634c85840d849b87f5b3e2-ao-8" height="18.22183" width="108.53873" y="80.27114" x="51.92255" stroke="#2D2D2D" fill="#FFEBA2"/>
  <rect id="3fa92d5a47634c85840d849b87f5b3e2-ao-9" height="19.80634" width="163.99648" y="152.36622" x="-0.36619" stroke="#2D2D2D" fill="#FFEBA2"/>
  <rect id="3fa92d5a47634c85840d849b87f5b3e2-ao-10" height="26.93662" width="93.48592" y="225.25354" x="67.76762" stroke="#2D2D2D" fill="#FFEBA2"/>
  <rect id="3fa92d5a47634c85840d849b87f5b3e2-ao-11" height="25.35211" width="95.07042" y="271.20425" x="67.76762" stroke="#2D2D2D" fill="#FFEBA2"/>
  <rect id="3fa92d5a47634c85840d849b87f5b3e2-ao-12" height="15.05282" width="78.4331" y="318.73946" x="83.61269" stroke="#2D2D2D" fill="#FFEBA2"/>
  <rect id="3fa92d5a47634c85840d849b87f5b3e2-ao-13" height="26.93662" width="88.7324" y="357.08453" x="71.72889" stroke="#2D2D2D" fill="#FFEBA2"/>
  <rect id="3fa92d5a47634c85840d849b87f5b3e2-ao-14" height="18.22183" width="77.64085" y="323.01763" x="486.07749" stroke="#2D2D2D" fill="#FFEBA2"/>
  <rect id="3fa92d5a47634c85840d849b87f5b3e2-ao-15" height="30.89789" width="121.21479" y="365.79932" x="476.57044" stroke="#2D2D2D" fill="#FFEBA2"/>
  <rect id="3fa92d5a47634c85840d849b87f5b3e2-ao-16" height="26.93662" width="132.30634" y="424.42608" x="486.07749" stroke="#2D2D2D" fill="#FFEBA2"/>
  <rect id="3fa92d5a47634c85840d849b87f5b3e2-ao-17" height="30.10563" width="164.78874" y="413.17608" x="17.85565" stroke="#2D2D2D" fill="#FFEBA2"/>
  <rect id="3fa92d5a47634c85840d849b87f5b3e2-ao-18" height="22.1831" width="93.48592" y="551.82045" x="459.93312" stroke="#2D2D2D" fill="#FFEBA2"/>
  <rect id="3fa92d5a47634c85840d849b87f5b3e2-ao-19" height="15.05282" width="119.63028" y="598.56341" x="456.7641" stroke="#2D2D2D" fill="#FFEBA2"/>
  <rect id="3fa92d5a47634c85840d849b87f5b3e2-ao-20" height="21.39085" width="123.59155" y="461.18664" x="62.22184" stroke="#2D2D2D" fill="#FFEBA2"/>
  
  <rect id="3fa92d5a47634c85840d849b87f5b3e2-ao-22" height="28.52113" width="127.55282" y="568.14087" x="52.7148" stroke="#2D2D2D" fill="#FFEBA2"/>
  <rect id="3fa92d5a47634c85840d849b87f5b3e2-ao-23" height="16.63732" width="109.33099" y="687.77115" x="99.45776" stroke="#2D2D2D" fill="#FFEBA2"/>
  <rect id="3fa92d5a47634c85840d849b87f5b3e2-ao-24" height="34.85916" width="70.51056" y="729.76059" x="588.27819" stroke="#2D2D2D" fill="#FFEBA2"/>
  <rect id="3fa92d5a47634c85840d849b87f5b3e2-ao-25" height="19.01408" width="124.38381" y="755.11271" x="95.49649" stroke="#2D2D2D" fill="#FFEBA2"/>
  <rect id="3fa92d5a47634c85840d849b87f5b3e2-ao-26" height="19.01408" width="71.30282" y="789.97186" x="143.82396" stroke="#2D2D2D" fill="#FFEBA2"/>
  <rect id="3fa92d5a47634c85840d849b87f5b3e2-ao-27" height="19.01408" width="102.99296" y="721.0458" x="111.34156" stroke="#2D2D2D" fill="#FFEBA2"/>
 </g>
</svg>