<svg xmlns="http://www.w3.org/2000/svg" width="921" height="678">
 <!-- Created with Image Occlusion Enhanced -->
 <g>
  <title>Labels</title>
 </g>
 <g>
  <title>Masks</title>
  <rect id="41fd242c27024e8695d04db6531bd20c-ao-1" height="14.22414" width="56.89655" y="7.99136" x="450.85347" stroke="#2D2D2D" fill="#FFEBA2"/>
  <rect id="41fd242c27024e8695d04db6531bd20c-ao-2" height="13.57759" width="163.57759" y="7.34481" x="528.43968" stroke="#2D2D2D" fill="#FFEBA2"/>
  <rect id="41fd242c27024e8695d04db6531bd20c-ao-3" height="15.51724" width="102.80173" y="7.34481" x="284.04312" stroke="#2D2D2D" fill="#FFEBA2"/>
  <rect id="41fd242c27024e8695d04db6531bd20c-ao-4" height="14.87069" width="208.83621" y="30.62067" x="108.18105" stroke="#2D2D2D" fill="#FFEBA2"/>
  <rect id="41fd242c27024e8695d04db6531bd20c-ao-5" height="18.10345" width="176.50862" y="58.4224" x="70.0345" stroke="#2D2D2D" fill="#FFEBA2"/>
  <rect id="41fd242c27024e8695d04db6531bd20c-ao-6" height="14.87069" width="180.38793" y="92.04309" x="40.93967" stroke="#2D2D2D" fill="#FFEBA2"/>
  <rect id="41fd242c27024e8695d04db6531bd20c-ao-7" height="16.81035" width="98.92242" y="126.95688" x="94.60346" stroke="#2D2D2D" fill="#FFEBA2"/>
  <rect id="41fd242c27024e8695d04db6531bd20c-ao-8" height="16.81035" width="98.27586" y="156.69826" x="70.0345" stroke="#2D2D2D" fill="#FFEBA2"/>
  <rect id="41fd242c27024e8695d04db6531bd20c-ao-9" height="13.57759" width="128.01724" y="187.73274" x="22.83622" stroke="#2D2D2D" fill="#FFEBA2"/>
  <rect id="41fd242c27024e8695d04db6531bd20c-ao-10" height="18.10345" width="104.74138" y="291.82757" x="799.34485" stroke="#2D2D2D" fill="#FFEBA2"/>
  <rect id="41fd242c27024e8695d04db6531bd20c-ao-11" height="16.16379" width="110.56035" y="388.16378" x="794.81899" stroke="#2D2D2D" fill="#FF7E7E" class="qshape"/>
  <rect id="41fd242c27024e8695d04db6531bd20c-ao-12" height="12.93103" width="67.24138" y="511.65516" x="715.93968" stroke="#2D2D2D" fill="#FFEBA2"/>
  <rect id="41fd242c27024e8695d04db6531bd20c-ao-13" height="19.39655" width="121.55173" y="547.86206" x="123.69829" stroke="#2D2D2D" fill="#FFEBA2"/>
  <rect id="41fd242c27024e8695d04db6531bd20c-ao-14" height="16.81035" width="92.4569" y="491.61206" x="82.31898" stroke="#2D2D2D" fill="#FFEBA2"/>
  <rect id="41fd242c27024e8695d04db6531bd20c-ao-15" height="18.75" width="82.11207" y="561.43964" x="631.2414" stroke="#2D2D2D" fill="#FFEBA2"/>
 </g>
</svg>