<svg xmlns="http://www.w3.org/2000/svg" width="660" height="823.9999999999999">
 <!-- Created with Image Occlusion Enhanced -->
 <g>
  <title>Labels</title>
 </g>
 <g>
  <title>Masks</title>
  <rect id="46bbdeeb3ce94b1cab117857db001297-ao-1" height="14.84375" width="66.40625" y="47.56252" x="462.18752" stroke="#2D2D2D" fill="#FFEBA2"/>
  <rect id="46bbdeeb3ce94b1cab117857db001297-ao-2" height="19.53125" width="183.59376" y="57.71877" x="43.43751" stroke="#2D2D2D" fill="#FFEBA2"/>
  <rect id="46bbdeeb3ce94b1cab117857db001297-ao-3" height="15.625" width="65.625" y="117.87503" x="466.09377" stroke="#2D2D2D" fill="#FFEBA2"/>
  <rect id="46bbdeeb3ce94b1cab117857db001297-ao-4" height="15.625" width="96.875" y="161.62503" x="103.59376" stroke="#2D2D2D" fill="#FFEBA2"/>
  <rect id="46bbdeeb3ce94b1cab117857db001297-ao-5" height="27.34375" width="194.53126" y="110.06253" x="32.50001" stroke="#2D2D2D" fill="#FFEBA2"/>
  <rect id="46bbdeeb3ce94b1cab117857db001297-ao-6" height="16.40625" width="113.28125" y="215.53128" x="67.65626" stroke="#2D2D2D" fill="#FFEBA2"/>
  <rect id="46bbdeeb3ce94b1cab117857db001297-ao-7" height="14.0625" width="68.75" y="258.50003" x="112.96876" stroke="#2D2D2D" fill="#FFEBA2"/>
  <rect id="46bbdeeb3ce94b1cab117857db001297-ao-8" height="28.90625" width="139.0625" y="285.84378" x="45.00001" stroke="#2D2D2D" fill="#FFEBA2"/>
  <rect id="46bbdeeb3ce94b1cab117857db001297-ao-9" height="16.40625" width="117.96875" y="349.12503" x="64.53126" stroke="#2D2D2D" fill="#FFEBA2"/>
  <rect id="46bbdeeb3ce94b1cab117857db001297-ao-10" height="17.1875" width="118.75" y="235.84378" x="446.56252" stroke="#2D2D2D" fill="#FFEBA2"/>
  <rect id="46bbdeeb3ce94b1cab117857db001297-ao-11" height="26.5625" width="84.375" y="293.65628" x="459.84377" stroke="#2D2D2D" fill="#FFEBA2"/>
  <rect id="46bbdeeb3ce94b1cab117857db001297-ao-12" height="25" width="78.90625" y="349.12503" x="459.06252" stroke="#2D2D2D" fill="#FFEBA2"/>
  <rect id="46bbdeeb3ce94b1cab117857db001297-ao-13" height="27.34375" width="77.34375" y="399.90628" x="460.62502" stroke="#2D2D2D" fill="#FFEBA2"/>
  <rect id="46bbdeeb3ce94b1cab117857db001297-ao-14" height="28.125" width="103.125" y="467.87504" x="448.12502" stroke="#2D2D2D" fill="#FFEBA2"/>
  <rect id="46bbdeeb3ce94b1cab117857db001297-ao-15" height="14.0625" width="128.125" y="585.84379" x="400.46877" stroke="#2D2D2D" fill="#FFEBA2"/>
  
  <rect id="46bbdeeb3ce94b1cab117857db001297-ao-17" height="21.09375" width="75.78125" y="640.53129" x="111.40626" stroke="#2D2D2D" fill="#FFEBA2"/>
  <rect id="46bbdeeb3ce94b1cab117857db001297-ao-18" height="13.28125" width="131.25" y="642.09379" x="379.37502" stroke="#2D2D2D" fill="#FFEBA2"/>
 </g>
</svg>