<svg xmlns="http://www.w3.org/2000/svg" width="812" height="872.9999999999999">
 <!-- Created with Image Occlusion Enhanced -->
 <g>
  <title>Labels</title>
 </g>
 <g>
  <title>Masks</title>
  <rect id="48f5038a5b774bdba15260a482381375-ao-1" height="14.0625" width="73.62132" y="27.00001" x="477.28306" stroke="#2D2D2D" fill="#FFEBA2"/>
  <rect id="48f5038a5b774bdba15260a482381375-ao-2" height="14.0625" width="51.28677" y="6.31987" x="402.83453" stroke="#2D2D2D" fill="#FFEBA2"/>
  <rect id="48f5038a5b774bdba15260a482381375-ao-3" height="14.88971" width="57.90441" y="68.36031" x="525.26101" stroke="#2D2D2D" fill="#FFEBA2"/>
  <rect id="48f5038a5b774bdba15260a482381375-ao-4" height="15.71691" width="100.91912" y="123.7831" x="531.87865" stroke="#2D2D2D" fill="#FFEBA2"/>
  <rect id="48f5038a5b774bdba15260a482381375-ao-5" height="14.0625" width="138.97059" y="150.25369" x="535.18748" stroke="#2D2D2D" fill="#FFEBA2"/>
  <rect id="48f5038a5b774bdba15260a482381375-ao-6" height="16.54412" width="78.58456" y="180.0331" x="533.53307" stroke="#2D2D2D" fill="#FFEBA2"/>
  <rect id="48f5038a5b774bdba15260a482381375-ao-7" height="14.88971" width="57.07721" y="222.2206" x="534.36027" stroke="#2D2D2D" fill="#FFEBA2"/>
  <rect id="48f5038a5b774bdba15260a482381375-ao-8" height="17.37132" width="91.81985" y="271.02575" x="517.81615" stroke="#2D2D2D" fill="#FFEBA2"/>
  <rect id="48f5038a5b774bdba15260a482381375-ao-9" height="13.23529" width="53.76838" y="331.41178" x="422.68748" stroke="#2D2D2D" fill="#FFEBA2"/>
  <rect id="48f5038a5b774bdba15260a482381375-ao-10" height="14.88971" width="140.625" y="301.63237" x="45.48159" stroke="#2D2D2D" fill="#FFEBA2"/>
  <rect id="48f5038a5b774bdba15260a482381375-ao-11" height="13.23529" width="52.94118" y="275.16178" x="108.34924" stroke="#2D2D2D" fill="#FFEBA2"/>
  <rect id="48f5038a5b774bdba15260a482381375-ao-12" height="28.95221" width="105.05515" y="234.62869" x="38.03673" stroke="#2D2D2D" fill="#FFEBA2"/>
  <rect id="48f5038a5b774bdba15260a482381375-ao-13" height="16.54412" width="73.62132" y="137.0184" x="66.98894" stroke="#2D2D2D" fill="#FFEBA2"/>
  <rect id="48f5038a5b774bdba15260a482381375-ao-14" height="14.88971" width="67.00368" y="113.02943" x="81.05144" stroke="#2D2D2D" fill="#FFEBA2"/>
  <rect id="48f5038a5b774bdba15260a482381375-ao-15" height="28.125" width="153.8603" y="78.28678" x="21.49262" stroke="#2D2D2D" fill="#FFEBA2"/>
  <rect id="48f5038a5b774bdba15260a482381375-ao-16" height="16.54412" width="101.74632" y="58.43384" x="101.73159" stroke="#2D2D2D" fill="#FFEBA2"/>
  <rect id="48f5038a5b774bdba15260a482381375-ao-17" height="13.23529" width="71.96691" y="3.83825" x="248.97424" stroke="#2D2D2D" fill="#FFEBA2"/>
  <rect id="48f5038a5b774bdba15260a482381375-ao-18" height="16.54412" width="119.11765" y="21.20957" x="177.83453" stroke="#2D2D2D" fill="#FFEBA2"/>
  <rect id="48f5038a5b774bdba15260a482381375-ao-19" height="14.88971" width="84.375" y="386.83458" x="395.38968" stroke="#2D2D2D" fill="#FFEBA2"/>
  <rect id="48f5038a5b774bdba15260a482381375-ao-20" height="14.0625" width="142.27941" y="408.34193" x="444.19483" stroke="#2D2D2D" fill="#FFEBA2"/>
  <rect id="48f5038a5b774bdba15260a482381375-ao-21" height="16.54412" width="115.80883" y="451.35664" x="512.02571" stroke="#2D2D2D" fill="#FFEBA2"/>
  <rect id="48f5038a5b774bdba15260a482381375-ao-22" height="14.0625" width="97.6103" y="497.68017" x="531.87865" stroke="#2D2D2D" fill="#FFEBA2"/>
  <rect id="48f5038a5b774bdba15260a482381375-ao-23" height="13.23529" width="65.34927" y="532.42281" x="528.56983" stroke="#2D2D2D" fill="#FFEBA2"/>
  <rect id="48f5038a5b774bdba15260a482381375-ao-24" height="23.16177" width="103.40074" y="550.62134" x="530.22424" stroke="#2D2D2D" fill="#FFEBA2"/>
  <rect id="48f5038a5b774bdba15260a482381375-ao-25" height="26.47059" width="80.23897" y="582.88237" x="528.56983" stroke="#2D2D2D" fill="#FFEBA2"/>
  <rect id="48f5038a5b774bdba15260a482381375-ao-26" height="15.71691" width="106.70956" y="646.57723" x="500.44483" stroke="#2D2D2D" fill="#FFEBA2"/>
  <rect id="48f5038a5b774bdba15260a482381375-ao-27" height="14.0625" width="117.46324" y="678.83826" x="469.01101" stroke="#2D2D2D" fill="#FFEBA2"/>
  <rect id="48f5038a5b774bdba15260a482381375-ao-28" height="15.71691" width="113.32721" y="716.06252" x="368.91909" stroke="#2D2D2D" fill="#FFEBA2"/>
  <rect id="48f5038a5b774bdba15260a482381375-ao-29" height="15.71691" width="102.57353" y="695.38237" x="134.81982" stroke="#2D2D2D" fill="#FFEBA2"/>
  <rect id="48f5038a5b774bdba15260a482381375-ao-30" height="12.40809" width="118.29044" y="672.22061" x="72.77938" stroke="#2D2D2D" fill="#FFEBA2"/>
  <rect id="48f5038a5b774bdba15260a482381375-ao-31" height="20.68015" width="78.58456" y="615.97061" x="81.87865" stroke="#2D2D2D" fill="#FFEBA2"/>
  <rect id="48f5038a5b774bdba15260a482381375-ao-32" height="26.47059" width="76.10294" y="572.9559" x="71.95218" stroke="#2D2D2D" fill="#FFEBA2"/>
  <rect id="48f5038a5b774bdba15260a482381375-ao-33" height="28.95221" width="76.93015" y="540.69487" x="71.12497" stroke="#2D2D2D" fill="#FFEBA2"/>
  <rect id="48f5038a5b774bdba15260a482381375-ao-34" height="18.19853" width="80.23897" y="472.03678" x="89.3235" stroke="#2D2D2D" fill="#FFEBA2"/>
  <rect id="48f5038a5b774bdba15260a482381375-ao-35" height="14.0625" width="66.17647" y="497.68017" x="91.80512" stroke="#2D2D2D" fill="#FF7E7E" class="qshape"/>
  <rect id="48f5038a5b774bdba15260a482381375-ao-36" height="16.54412" width="97.6103" y="408.34193" x="136.47424" stroke="#2D2D2D" fill="#FFEBA2"/>
  <rect id="48f5038a5b774bdba15260a482381375-ao-37" height="13.23529" width="69.4853" y="386.00737" x="224.15806" stroke="#2D2D2D" fill="#FFEBA2"/>
 </g>
</svg>