<svg xmlns="http://www.w3.org/2000/svg" width="675.9999999999999" height="790">
 <!-- Created with Image Occlusion Enhanced -->
 <g>
  <title>Labels</title>
 </g>
 <g>
  <title>Masks</title>
  <rect id="4aad56a1a9944bedbb4e179b59a19eb6-ao-1" height="13.5" width="69.1875" y="74.89999" x="171.79996" stroke="#2D2D2D" fill="#FFEBA2"/>
  <rect id="4aad56a1a9944bedbb4e179b59a19eb6-ao-2" height="15.1875" width="71.4375" y="111.46249" x="122.86246" stroke="#2D2D2D" fill="#FFEBA2"/>
  <rect id="4aad56a1a9944bedbb4e179b59a19eb6-ao-3" height="24.75" width="102.9375" y="146.89999" x="45.23746" stroke="#2D2D2D" fill="#FFEBA2"/>
  <rect id="4aad56a1a9944bedbb4e179b59a19eb6-ao-4" height="38.8125" width="102.375" y="191.33749" x="10.92496" stroke="#2D2D2D" fill="#FFEBA2"/>
  <rect id="4aad56a1a9944bedbb4e179b59a19eb6-ao-5" height="38.8125" width="84.9375" y="236.89999" x="27.79996" stroke="#2D2D2D" fill="#FFEBA2"/>
  <rect id="4aad56a1a9944bedbb4e179b59a19eb6-ao-6" height="29.8125" width="102.375" y="290.89999" x="11.48746" stroke="#2D2D2D" fill="#FFEBA2"/>
  <rect id="4aad56a1a9944bedbb4e179b59a19eb6-ao-7" height="29.25" width="101.8125" y="331.39999" x="10.92496" stroke="#2D2D2D" fill="#FFEBA2"/>
  <rect id="4aad56a1a9944bedbb4e179b59a19eb6-ao-8" height="39.375" width="100.6875" y="425.89999" x="18.79996" stroke="#2D2D2D" fill="#FFEBA2"/>
  <rect id="4aad56a1a9944bedbb4e179b59a19eb6-ao-9" height="14.625" width="82.6875" y="487.77499" x="36.79996" stroke="#2D2D2D" fill="#FFEBA2"/>
  <rect id="4aad56a1a9944bedbb4e179b59a19eb6-ao-10" height="25.3125" width="71.4375" y="519.27499" x="46.36246" stroke="#2D2D2D" fill="#FFEBA2"/>
  <rect id="4aad56a1a9944bedbb4e179b59a19eb6-ao-11" height="20.25" width="126" y="560.89999" x="35.11246" stroke="#2D2D2D" fill="#FFEBA2"/>
  <rect id="4aad56a1a9944bedbb4e179b59a19eb6-ao-12" height="26.4375" width="141.75" y="600.83749" x="65.48746" stroke="#2D2D2D" fill="#FFEBA2"/>
  <rect id="4aad56a1a9944bedbb4e179b59a19eb6-ao-13" height="16.3125" width="98.4375" y="649.21249" x="159.98746" stroke="#2D2D2D" fill="#FFEBA2"/>
  <rect id="4aad56a1a9944bedbb4e179b59a19eb6-ao-14" height="16.875" width="164.25" y="718.39999" x="403.54995" stroke="#2D2D2D" fill="#FFEBA2"/>
  <rect id="4aad56a1a9944bedbb4e179b59a19eb6-ao-15" height="20.25" width="74.25" y="680.14999" x="443.48745" stroke="#2D2D2D" fill="#FFEBA2"/>
  <rect id="4aad56a1a9944bedbb4e179b59a19eb6-ao-16" height="30.375" width="123.75" y="641.89999" x="472.17495" stroke="#2D2D2D" fill="#FFEBA2"/>
  <rect id="4aad56a1a9944bedbb4e179b59a19eb6-ao-17" height="19.125" width="84.375" y="609.27499" x="489.61245" stroke="#2D2D2D" fill="#FFEBA2"/>
  <rect id="4aad56a1a9944bedbb4e179b59a19eb6-ao-18" height="14.625" width="95.625" y="585.64999" x="515.48745" stroke="#2D2D2D" fill="#FFEBA2"/>
  <rect id="4aad56a1a9944bedbb4e179b59a19eb6-ao-19" height="27.5625" width="72" y="542.33749" x="567.79995" stroke="#2D2D2D" fill="#FFEBA2"/>
  <rect id="4aad56a1a9944bedbb4e179b59a19eb6-ao-20" height="33.75" width="68.625" y="482.14999" x="570.04995" stroke="#2D2D2D" fill="#FFEBA2"/>
  <rect id="4aad56a1a9944bedbb4e179b59a19eb6-ao-21" height="25.875" width="99" y="415.77499" x="567.23745" stroke="#2D2D2D" fill="#FFEBA2"/>
  <rect id="4aad56a1a9944bedbb4e179b59a19eb6-ao-22" height="25.875" width="74.8125" y="362.33749" x="568.92495" stroke="#2D2D2D" fill="#FFEBA2"/>
  <rect id="4aad56a1a9944bedbb4e179b59a19eb6-ao-23" height="16.3125" width="52.875" y="331.96249" x="569.48745" stroke="#2D2D2D" fill="#FFEBA2"/>
  <rect id="4aad56a1a9944bedbb4e179b59a19eb6-ao-24" height="29.8125" width="61.875" y="294.83749" x="569.48745" stroke="#2D2D2D" fill="#FF7E7E" class="qshape"/>
  <rect id="4aad56a1a9944bedbb4e179b59a19eb6-ao-25" height="41.625" width="82.125" y="240.27499" x="567.79995" stroke="#2D2D2D" fill="#FFEBA2"/>
  <rect id="4aad56a1a9944bedbb4e179b59a19eb6-ao-26" height="30.375" width="102.375" y="199.77499" x="553.17495" stroke="#2D2D2D" fill="#FFEBA2"/>
  <rect id="4aad56a1a9944bedbb4e179b59a19eb6-ao-27" height="14.0625" width="117" y="173.33749" x="544.73745" stroke="#2D2D2D" fill="#FFEBA2"/>
  <rect id="4aad56a1a9944bedbb4e179b59a19eb6-ao-28" height="12.375" width="79.875" y="145.21249" x="526.73745" stroke="#2D2D2D" fill="#FFEBA2"/>
  <rect id="4aad56a1a9944bedbb4e179b59a19eb6-ao-29" height="29.25" width="103.5" y="99.64999" x="484.54995" stroke="#2D2D2D" fill="#FFEBA2"/>
  <rect id="4aad56a1a9944bedbb4e179b59a19eb6-ao-30" height="15.1875" width="84.375" y="76.02499" x="444.04995" stroke="#2D2D2D" fill="#FFEBA2"/>
  <rect id="4aad56a1a9944bedbb4e179b59a19eb6-ao-31" height="20.8125" width="133.3125" y="11.89999" x="347.86245" stroke="#2D2D2D" fill="#FFEBA2"/>
 </g>
</svg>