<svg xmlns="http://www.w3.org/2000/svg" width="869" height="721">
 <!-- Created with Image Occlusion Enhanced -->
 <g>
  <title>Labels</title>
 </g>
 <g>
  <title>Masks</title>
  <rect id="4e2b4879d9d64912a2214bd4b0a99930-ao-1" height="19.20732" width="106.09756" y="119.73171" x="687.52436" stroke="#2D2D2D" fill="#FFEBA2"/>
  <rect id="4e2b4879d9d64912a2214bd4b0a99930-ao-2" height="18.29268" width="82.31707" y="128.87805" x="91.1829" stroke="#2D2D2D" fill="#FFEBA2"/>
  <rect id="4e2b4879d9d64912a2214bd4b0a99930-ao-3" height="16.46341" width="78.65854" y="233.14634" x="64.65851" stroke="#2D2D2D" fill="#FFEBA2"/>
  <rect id="4e2b4879d9d64912a2214bd4b0a99930-ao-4" height="18.29268" width="114.32927" y="273.39024" x="11.60973" stroke="#2D2D2D" fill="#FFEBA2"/>
  <rect id="4e2b4879d9d64912a2214bd4b0a99930-ao-5" height="14.63415" width="107.01219" y="335.58536" x="9.78046" stroke="#2D2D2D" fill="#FFEBA2"/>
  <rect id="4e2b4879d9d64912a2214bd4b0a99930-ao-6" height="19.20732" width="108.84146" y="361.19512" x="13.43899" stroke="#2D2D2D" fill="#FFEBA2"/>
  <rect id="4e2b4879d9d64912a2214bd4b0a99930-ao-7" height="14.63415" width="111.58537" y="413.32927" x="7.95119" stroke="#2D2D2D" fill="#FFEBA2"/>
  <rect id="4e2b4879d9d64912a2214bd4b0a99930-ao-8" height="18.29268" width="118.90244" y="245.95122" x="719.53655" stroke="#2D2D2D" fill="#FFEBA2"/>
  <rect id="4e2b4879d9d64912a2214bd4b0a99930-ao-9" height="15.54878" width="106.09756" y="280.70732" x="722.28046" stroke="#2D2D2D" fill="#FFEBA2"/>
  <rect id="4e2b4879d9d64912a2214bd4b0a99930-ao-10" height="14.63415" width="121.64634" y="312.71951" x="717.70729" stroke="#2D2D2D" fill="#FFEBA2"/>
  <rect id="4e2b4879d9d64912a2214bd4b0a99930-ao-11" height="14.63415" width="108.84146" y="342.90244" x="722.28046" stroke="#2D2D2D" fill="#FFEBA2"/>
  <rect id="4e2b4879d9d64912a2214bd4b0a99930-ao-12" height="10.06098" width="87.80488" y="363.93902" x="722.28046" stroke="#2D2D2D" fill="#FFEBA2"/>
  <rect id="4e2b4879d9d64912a2214bd4b0a99930-ao-13" height="54.87805" width="128.04878" y="383.14634" x="725.02436" stroke="#2D2D2D" fill="#FFEBA2"/>
  <rect id="4e2b4879d9d64912a2214bd4b0a99930-ao-14" height="28.35366" width="97.86585" y="445.34146" x="723.19509" stroke="#2D2D2D" fill="#FFEBA2"/>
  <rect id="4e2b4879d9d64912a2214bd4b0a99930-ao-15" height="25.60976" width="96.95122" y="480.09756" x="725.93899" stroke="#2D2D2D" fill="#FF7E7E" class="qshape"/>
  <rect id="4e2b4879d9d64912a2214bd4b0a99930-ao-16" height="16.46341" width="85.06098" y="524" x="725.02436" stroke="#2D2D2D" fill="#FFEBA2"/>
  <rect id="4e2b4879d9d64912a2214bd4b0a99930-ao-17" height="21.03659" width="104.26829" y="464.54878" x="10.69509" stroke="#2D2D2D" fill="#FFEBA2"/>
  <rect id="4e2b4879d9d64912a2214bd4b0a99930-ao-18" height="19.20732" width="64.02439" y="536.80488" x="67.40241" stroke="#2D2D2D" fill="#FFEBA2"/>
  <rect id="4e2b4879d9d64912a2214bd4b0a99930-ao-19" height="19.20732" width="120.73171" y="562.41463" x="712.21948" stroke="#2D2D2D" fill="#FFEBA2"/>
 </g>
</svg>