<svg xmlns="http://www.w3.org/2000/svg" width="713" height="822">
 <!-- Created with Image Occlusion Enhanced -->
 <g>
  <title>Labels</title>
 </g>
 <g>
  <title>Masks</title>
  <rect id="5586f2343bc94a54bf3c10f70f7cf425-ao-1" height="26.04167" width="86.45834" y="612.16668" x="277.00003" stroke="#2D2D2D" fill="#FFEBA2"/>
  <rect id="5586f2343bc94a54bf3c10f70f7cf425-ao-2" height="29.16667" width="92.70834" y="674.66668" x="137.41669" stroke="#2D2D2D" fill="#FFEBA2"/>
  <rect id="5586f2343bc94a54bf3c10f70f7cf425-ao-3" height="38.54167" width="101.04167" y="620.50001" x="98.87502" stroke="#2D2D2D" fill="#FFEBA2"/>
  <rect id="5586f2343bc94a54bf3c10f70f7cf425-ao-4" height="19.79167" width="52.08333" y="570.50001" x="55.12502" stroke="#2D2D2D" fill="#FFEBA2"/>
  <rect id="5586f2343bc94a54bf3c10f70f7cf425-ao-5" height="15.625" width="57.29167" y="328.83334" x="27.00002" stroke="#2D2D2D" fill="#FFEBA2"/>
  <rect id="5586f2343bc94a54bf3c10f70f7cf425-ao-6" height="34.375" width="55.20833" y="233" x="30.12502" stroke="#2D2D2D" fill="#FFEBA2"/>
  <rect id="5586f2343bc94a54bf3c10f70f7cf425-ao-7" height="31.25" width="89.58334" y="350.70834" x="600.95837" stroke="#2D2D2D" fill="#FFEBA2"/>
  <rect id="5586f2343bc94a54bf3c10f70f7cf425-ao-8" height="26.04167" width="89.58334" y="391.33334" x="600.95837" stroke="#2D2D2D" fill="#FFEBA2"/>
  <rect id="5586f2343bc94a54bf3c10f70f7cf425-ao-9" height="37.5" width="91.66667" y="424.66667" x="604.08337" stroke="#2D2D2D" fill="#FFEBA2"/>
  <rect id="5586f2343bc94a54bf3c10f70f7cf425-ao-10" height="17.70833" width="47.91667" y="473.62501" x="605.12504" stroke="#2D2D2D" fill="#FFEBA2"/>
  <rect id="5586f2343bc94a54bf3c10f70f7cf425-ao-11" height="10.41667" width="43.75" y="501.75001" x="602.00004" stroke="#2D2D2D" fill="#FFEBA2"/>
  <rect id="5586f2343bc94a54bf3c10f70f7cf425-ao-12" height="25" width="60.41667" y="528.83334" x="650.95837" stroke="#2D2D2D" fill="#FFEBA2"/>
  <rect id="5586f2343bc94a54bf3c10f70f7cf425-ao-13" height="32.29167" width="54.16667" y="579.87501" x="646.79171" stroke="#2D2D2D" fill="#FFEBA2"/>
  <rect id="5586f2343bc94a54bf3c10f70f7cf425-ao-14" height="26.04167" width="60.41667" y="634.04168" x="631.16671" stroke="#2D2D2D" fill="#FFEBA2"/>
  <rect id="5586f2343bc94a54bf3c10f70f7cf425-ao-15" height="30.20833" width="64.58334" y="673.62502" x="638.45837" stroke="#2D2D2D" fill="#FFEBA2"/>
  <rect id="5586f2343bc94a54bf3c10f70f7cf425-ao-16" height="27.08333" width="48.95833" y="712.16668" x="656.16671" stroke="#2D2D2D" fill="#FFEBA2"/>
  <rect id="5586f2343bc94a54bf3c10f70f7cf425-ao-17" height="16.66667" width="40.625" y="762.16668" x="653.04171" stroke="#2D2D2D" fill="#FFEBA2"/>
  <rect id="5586f2343bc94a54bf3c10f70f7cf425-ao-18" height="21.875" width="97.91667" y="793.41669" x="381.1667" stroke="#2D2D2D" fill="#FFEBA2"/>
  <rect id="5586f2343bc94a54bf3c10f70f7cf425-ao-19" height="16.66667" width="145.83334" y="305.5" x="418.6667" stroke="#2D2D2D" fill="#FFEBA2"/>
  <rect id="5586f2343bc94a54bf3c10f70f7cf425-ao-20" height="17.70833" width="136.45834" y="279.45834" x="419.70837" stroke="#2D2D2D" fill="#FFEBA2"/>
  <rect id="5586f2343bc94a54bf3c10f70f7cf425-ao-21" height="17.70833" width="239.58334" y="180.5" x="419.70837" stroke="#2D2D2D" fill="#FFEBA2"/>
  <rect id="5586f2343bc94a54bf3c10f70f7cf425-ao-22" height="16.66667" width="207.29167" y="154.45833" x="418.6667" stroke="#2D2D2D" fill="#FF7E7E" class="qshape"/>
  <rect id="5586f2343bc94a54bf3c10f70f7cf425-ao-23" height="17.70833" width="178.12501" y="127.375" x="413.45837" stroke="#2D2D2D" fill="#FFEBA2"/>
  <rect id="5586f2343bc94a54bf3c10f70f7cf425-ao-24" height="16.66667" width="85.41667" y="78.41666" x="382.20836" stroke="#2D2D2D" fill="#FFEBA2"/>
  <rect id="5586f2343bc94a54bf3c10f70f7cf425-ao-25" height="19.79167" width="104.16667" y="53.41666" x="359.2917" stroke="#2D2D2D" fill="#FFEBA2"/>
  <rect id="5586f2343bc94a54bf3c10f70f7cf425-ao-26" height="17.70833" width="100" y="28.41666" x="347.83336" stroke="#2D2D2D" fill="#FFEBA2"/>
  <rect id="5586f2343bc94a54bf3c10f70f7cf425-ao-27" height="13.54167" width="103.125" y="5.5" x="323.87503" stroke="#2D2D2D" fill="#FFEBA2"/>
  <rect id="5586f2343bc94a54bf3c10f70f7cf425-ao-28" height="12.5" width="34.375" y="77.375" x="100.95836" stroke="#2D2D2D" fill="#FFEBA2"/>
  <rect id="5586f2343bc94a54bf3c10f70f7cf425-ao-29" height="18.75" width="30.20833" y="102.375" x="108.25002" stroke="#2D2D2D" fill="#FFEBA2"/>
 </g>
</svg>