<svg xmlns="http://www.w3.org/2000/svg" width="866" height="690.0000000000001">
 <!-- Created with Image Occlusion Enhanced -->
 <g>
  <title>Labels</title>
 </g>
 <g>
  <title>Masks</title>
  <rect id="55b2717f1d724f88ac020ed24d580433-ao-1" height="22.23837" width="117.07849" y="23.45929" x="595.84588" stroke="#2D2D2D" fill="#FFEBA2"/>
  <rect id="55b2717f1d724f88ac020ed24d580433-ao-2" height="14.38953" width="121.00291" y="61.39534" x="626.58716" stroke="#2D2D2D" fill="#FFEBA2"/>
  <rect id="55b2717f1d724f88ac020ed24d580433-ao-3" height="18.31395" width="132.77616" y="95.40696" x="648.82553" stroke="#2D2D2D" fill="#FFEBA2"/>
  <rect id="55b2717f1d724f88ac020ed24d580433-ao-4" height="20.27616" width="173.32849" y="231.32266" x="669.1017" stroke="#2D2D2D" fill="#FF7E7E" class="qshape"/>
  <rect id="55b2717f1d724f88ac020ed24d580433-ao-5" height="25.50872" width="166.78779" y="328.2558" x="603.69472" stroke="#2D2D2D" fill="#FFEBA2"/>
  <rect id="55b2717f1d724f88ac020ed24d580433-ao-6" height="17.00581" width="81.10465" y="365.53777" x="606.311" stroke="#2D2D2D" fill="#FFEBA2"/>
  <rect id="55b2717f1d724f88ac020ed24d580433-ao-7" height="18.96802" width="108.57558" y="400.85754" x="610.23542" stroke="#2D2D2D" fill="#FFEBA2"/>
  <rect id="55b2717f1d724f88ac020ed24d580433-ao-8" height="20.93023" width="103.99709" y="436.17731" x="635.09007" stroke="#2D2D2D" fill="#FFEBA2"/>
  <rect id="55b2717f1d724f88ac020ed24d580433-ao-9" height="18.31395" width="167.44186" y="469.53487" x="646.20926" stroke="#2D2D2D" fill="#FFEBA2"/>
  <rect id="55b2717f1d724f88ac020ed24d580433-ao-10" height="20.93023" width="172.02035" y="501.58428" x="673.68019" stroke="#2D2D2D" fill="#FFEBA2"/>
  <rect id="55b2717f1d724f88ac020ed24d580433-ao-11" height="17.00581" width="100.72674" y="535.98835" x="679.56681" stroke="#2D2D2D" fill="#FFEBA2"/>
  <rect id="55b2717f1d724f88ac020ed24d580433-ao-12" height="18.31395" width="103.99709" y="570.65405" x="676.29646" stroke="#2D2D2D" fill="#FFEBA2"/>
  <rect id="55b2717f1d724f88ac020ed24d580433-ao-13" height="17.65988" width="76.52616" y="605.97382" x="655.36623" stroke="#2D2D2D" fill="#FFEBA2"/>
  <rect id="55b2717f1d724f88ac020ed24d580433-ao-14" height="19.62209" width="197.52907" y="32.61627" x="93.52031" stroke="#2D2D2D" fill="#FFEBA2"/>
  <rect id="55b2717f1d724f88ac020ed24d580433-ao-15" height="17.65988" width="97.45639" y="113.72092" x="140.61333" stroke="#2D2D2D" fill="#FFEBA2"/>
  <rect id="55b2717f1d724f88ac020ed24d580433-ao-16" height="24.85465" width="156.97674" y="143.15406" x="66.83426" stroke="#2D2D2D" fill="#FFEBA2"/>
  <rect id="55b2717f1d724f88ac020ed24d580433-ao-17" height="17.65988" width="66.71512" y="379.27324" x="108.04066" stroke="#2D2D2D" fill="#FFEBA2"/>
  <rect id="55b2717f1d724f88ac020ed24d580433-ao-18" height="22.23837" width="69.98546" y="497.65987" x="108.69473" stroke="#2D2D2D" fill="#FFEBA2"/>
 </g>
</svg>