<svg xmlns="http://www.w3.org/2000/svg" width="907" height="646">
 <!-- Created with Image Occlusion Enhanced -->
 <g>
  <title>Labels</title>
 </g>
 <g>
  <title>Masks</title>
  <rect id="598cdda142344dfbb0448aa3bad4fd48-ao-1" height="14.83517" width="79.94506" y="95.09887" x="89.75828" stroke="#2D2D2D" fill="#FFEBA2"/>
  <rect id="598cdda142344dfbb0448aa3bad4fd48-ao-2" height="18.13187" width="83.24176" y="157.73623" x="92.23081" stroke="#2D2D2D" fill="#FFEBA2"/>
  <rect id="598cdda142344dfbb0448aa3bad4fd48-ao-3" height="16.48352" width="82.41759" y="210.48349" x="86.46158" stroke="#2D2D2D" fill="#FFEBA2"/>
  <rect id="598cdda142344dfbb0448aa3bad4fd48-ao-4" height="14.83517" width="79.94506" y="256.63733" x="93.87916" stroke="#2D2D2D" fill="#FFEBA2"/>
  <rect id="598cdda142344dfbb0448aa3bad4fd48-ao-5" height="25.54945" width="131.04396" y="288.78019" x="40.30773" stroke="#2D2D2D" fill="#FFEBA2"/>
  <rect id="598cdda142344dfbb0448aa3bad4fd48-ao-6" height="14.01099" width="98.07693" y="319.2747" x="73.27477" stroke="#2D2D2D" fill="#FFEBA2"/>
  <rect id="598cdda142344dfbb0448aa3bad4fd48-ao-7" height="15.65934" width="115.38462" y="339.05492" x="60.08795" stroke="#2D2D2D" fill="#FFEBA2"/>
  <rect id="598cdda142344dfbb0448aa3bad4fd48-ao-8" height="13.18681" width="54.39561" y="362.13184" x="116.95609" stroke="#2D2D2D" fill="#FFEBA2"/>
  <rect id="598cdda142344dfbb0448aa3bad4fd48-ao-9" height="9.89011" width="33.79121" y="381.91206" x="139.20884" stroke="#2D2D2D" fill="#FFEBA2"/>
  
  <rect id="598cdda142344dfbb0448aa3bad4fd48-ao-11" height="12.36264" width="155.76924" y="454.43954" x="16.40663" stroke="#2D2D2D" fill="#FFEBA2"/>
  <rect id="598cdda142344dfbb0448aa3bad4fd48-ao-12" height="14.01099" width="123.62638" y="473.39558" x="46.90114" stroke="#2D2D2D" fill="#FFEBA2"/>
  <rect id="598cdda142344dfbb0448aa3bad4fd48-ao-13" height="10.71429" width="33.79121" y="493.99998" x="140.03301" stroke="#2D2D2D" fill="#FFEBA2"/>
  <rect id="598cdda142344dfbb0448aa3bad4fd48-ao-14" height="13.18681" width="51.0989" y="517.07691" x="121.90114" stroke="#2D2D2D" fill="#FFEBA2"/>
  <rect id="598cdda142344dfbb0448aa3bad4fd48-ao-15" height="18.95604" width="66.75824" y="574.76922" x="102.9451" stroke="#2D2D2D" fill="#FFEBA2"/>
  <rect id="598cdda142344dfbb0448aa3bad4fd48-ao-16" height="16.48352" width="49.45055" y="563.23075" x="733.43963" stroke="#2D2D2D" fill="#FFEBA2"/>
  <rect id="598cdda142344dfbb0448aa3bad4fd48-ao-17" height="14.83517" width="133.51649" y="494.82416" x="732.61545" stroke="#2D2D2D" fill="#FFEBA2"/>
  <rect id="598cdda142344dfbb0448aa3bad4fd48-ao-18" height="15.65934" width="113.73627" y="515.42855" x="730.9671" stroke="#2D2D2D" fill="#FFEBA2"/>
  <rect id="598cdda142344dfbb0448aa3bad4fd48-ao-19" height="14.83517" width="84.06594" y="470.92306" x="734.26381" stroke="#2D2D2D" fill="#FFEBA2"/>
  <rect id="598cdda142344dfbb0448aa3bad4fd48-ao-20" height="14.01099" width="150.00001" y="451.14284" x="735.08798" stroke="#2D2D2D" fill="#FFEBA2"/>
  <rect id="598cdda142344dfbb0448aa3bad4fd48-ao-21" height="14.01099" width="112.08792" y="430.53844" x="728.49458" stroke="#2D2D2D" fill="#FFEBA2"/>
  <rect id="598cdda142344dfbb0448aa3bad4fd48-ao-22" height="27.1978" width="109.61539" y="397.57141" x="735.08798" stroke="#2D2D2D" fill="#FFEBA2"/>
  <rect id="598cdda142344dfbb0448aa3bad4fd48-ao-23" height="27.1978" width="116.2088" y="364.60437" x="735.08798" stroke="#2D2D2D" fill="#FFEBA2"/>
  <rect id="598cdda142344dfbb0448aa3bad4fd48-ao-24" height="18.13187" width="111.26374" y="339.05492" x="735.08798" stroke="#2D2D2D" fill="#FFEBA2"/>
  <rect id="598cdda142344dfbb0448aa3bad4fd48-ao-25" height="14.83517" width="119.5055" y="320.92305" x="733.43963" stroke="#2D2D2D" fill="#FFEBA2"/>
  <rect id="598cdda142344dfbb0448aa3bad4fd48-ao-26" height="17.30769" width="107.96704" y="272.29667" x="732.61545" stroke="#2D2D2D" fill="#FFEBA2"/>
  <rect id="598cdda142344dfbb0448aa3bad4fd48-ao-27" height="17.30769" width="119.5055" y="244.2747" x="735.08798" stroke="#2D2D2D" fill="#FFEBA2"/>
  <rect id="598cdda142344dfbb0448aa3bad4fd48-ao-28" height="16.48352" width="120.32968" y="202.24173" x="735.91216" stroke="#2D2D2D" fill="#FFEBA2"/>
 </g>
</svg>