<svg xmlns="http://www.w3.org/2000/svg" width="914" height="443.99999999999994">
 <!-- Created with Image Occlusion Enhanced -->
 <g>
  <title>Labels</title>
 </g>
 <g>
  <title>Masks</title>
  <rect id="5adc0fd7d8db4120b174a64789d0071a-ao-1" height="18.04511" width="51.8797" y="128.03005" x="85.69925" stroke="#2D2D2D" fill="#FFEBA2"/>
  <rect id="5adc0fd7d8db4120b174a64789d0071a-ao-2" height="19.54887" width="84.96241" y="197.95487" x="38.33083" stroke="#2D2D2D" fill="#FFEBA2"/>
  <rect id="5adc0fd7d8db4120b174a64789d0071a-ao-3" height="19.54887" width="57.14286" y="172.39096" x="92.46617" stroke="#2D2D2D" fill="#FFEBA2"/>
  <rect id="5adc0fd7d8db4120b174a64789d0071a-ao-4" height="17.29323" width="103.7594" y="227.27817" x="9.7594" stroke="#2D2D2D" fill="#FFEBA2"/>
  <rect id="5adc0fd7d8db4120b174a64789d0071a-ao-5" height="13.53383" width="55.6391" y="248.33081" x="53.36842" stroke="#2D2D2D" fill="#FFEBA2"/>
  <rect id="5adc0fd7d8db4120b174a64789d0071a-ao-6" height="12.78195" width="94.73684" y="270.8872" x="15.77444" stroke="#2D2D2D" fill="#FFEBA2"/>
  <rect id="5adc0fd7d8db4120b174a64789d0071a-ao-7" height="12.03008" width="103.7594" y="293.44359" x="8.25564" stroke="#2D2D2D" fill="#FFEBA2"/>
  <rect id="5adc0fd7d8db4120b174a64789d0071a-ao-8" height="18.79699" width="54.88722" y="347.57893" x="77.42858" stroke="#2D2D2D" fill="#FF7E7E" class="qshape"/>
  <rect id="5adc0fd7d8db4120b174a64789d0071a-ao-9" height="15.78947" width="41.35338" y="49.83456" x="100.73685" stroke="#2D2D2D" fill="#FFEBA2"/>
  <rect id="5adc0fd7d8db4120b174a64789d0071a-ao-10" height="26.31579" width="54.13534" y="369.38344" x="253.36843" stroke="#2D2D2D" fill="#FFEBA2"/>
  <rect id="5adc0fd7d8db4120b174a64789d0071a-ao-11" height="15.03759" width="57.14286" y="407.7293" x="268.40602" stroke="#2D2D2D" fill="#FFEBA2"/>
  <rect id="5adc0fd7d8db4120b174a64789d0071a-ao-12" height="18.79699" width="106.01504" y="319.75938" x="422.54136" stroke="#2D2D2D" fill="#FFEBA2"/>
  <rect id="5adc0fd7d8db4120b174a64789d0071a-ao-13" height="12.78195" width="89.47368" y="344.57141" x="448.85715" stroke="#2D2D2D" fill="#FFEBA2"/>
  <rect id="5adc0fd7d8db4120b174a64789d0071a-ao-14" height="14.28571" width="51.8797" y="348.33081" x="781.93986" stroke="#2D2D2D" fill="#FFEBA2"/>
  <rect id="5adc0fd7d8db4120b174a64789d0071a-ao-15" height="15.78947" width="59.3985" y="388.93231" x="780.4361" stroke="#2D2D2D" fill="#FFEBA2"/>
  <rect id="5adc0fd7d8db4120b174a64789d0071a-ao-16" height="15.78947" width="103.7594" y="415.99998" x="765.3985" stroke="#2D2D2D" fill="#FFEBA2"/>
  <rect id="5adc0fd7d8db4120b174a64789d0071a-ao-17" height="18.79699" width="104.51128" y="283.66915" x="799.23309" stroke="#2D2D2D" fill="#FFEBA2"/>
  <rect id="5adc0fd7d8db4120b174a64789d0071a-ao-18" height="18.04511" width="87.21805" y="254.34584" x="797.72933" stroke="#2D2D2D" fill="#FFEBA2"/>
  <rect id="5adc0fd7d8db4120b174a64789d0071a-ao-19" height="13.53383" width="110.52632" y="234.79697" x="776.6767" stroke="#2D2D2D" fill="#FFEBA2"/>
  <rect id="5adc0fd7d8db4120b174a64789d0071a-ao-20" height="10.52632" width="104.51128" y="220.51126" x="779.68422" stroke="#2D2D2D" fill="#FFEBA2"/>
  <rect id="5adc0fd7d8db4120b174a64789d0071a-ao-21" height="15.03759" width="87.96993" y="194.19547" x="775.92482" stroke="#2D2D2D" fill="#FFEBA2"/>
  <rect id="5adc0fd7d8db4120b174a64789d0071a-ao-22" height="14.28571" width="93.98496" y="134.04509" x="791.71429" stroke="#2D2D2D" fill="#FFEBA2"/>
  <rect id="5adc0fd7d8db4120b174a64789d0071a-ao-23" height="15.03759" width="106.76692" y="109.98494" x="794.72181" stroke="#2D2D2D" fill="#FFEBA2"/>
  <rect id="5adc0fd7d8db4120b174a64789d0071a-ao-24" height="15.03759" width="90.97744" y="52.0902" x="791.71429" stroke="#2D2D2D" fill="#FFEBA2"/>
 </g>
</svg>