<svg xmlns="http://www.w3.org/2000/svg" width="920" height="590">
 <!-- Created with Image Occlusion Enhanced -->
 <g>
  <title>Labels</title>
 </g>
 <g>
  <title>Masks</title>
  <rect id="5f90cae1a2cc40dd90dca0832bfd197e-ao-1" height="24" width="122" y="50.2" x="683.4" stroke="#2D2D2D" fill="#FFEBA2"/>
  <rect id="5f90cae1a2cc40dd90dca0832bfd197e-ao-2" height="21" width="167" y="10.2" x="599.4" stroke="#2D2D2D" fill="#FFEBA2"/>
  
  <rect id="5f90cae1a2cc40dd90dca0832bfd197e-ao-4" height="25" width="234" y="54.2" x="157.4" stroke="#2D2D2D" fill="#FFEBA2"/>
  <rect id="5f90cae1a2cc40dd90dca0832bfd197e-ao-5" height="36" width="202" y="95.2" x="83.4" stroke="#2D2D2D" fill="#FFEBA2"/>
  <rect id="5f90cae1a2cc40dd90dca0832bfd197e-ao-6" height="25" width="145" y="149.2" x="17.4" stroke="#2D2D2D" fill="#FFEBA2"/>
  <rect id="5f90cae1a2cc40dd90dca0832bfd197e-ao-7" height="37" width="146" y="208.2" x="15.4" stroke="#2D2D2D" fill="#FFEBA2"/>
  <rect id="5f90cae1a2cc40dd90dca0832bfd197e-ao-8" height="35" width="123" y="267.2" x="42.4" stroke="#2D2D2D" fill="#FFEBA2"/>
  <rect id="5f90cae1a2cc40dd90dca0832bfd197e-ao-9" height="29" width="176" y="437.2" x="57.4" stroke="#2D2D2D" fill="#FFEBA2"/>
  <rect id="5f90cae1a2cc40dd90dca0832bfd197e-ao-10" height="24" width="198" y="491.2" x="102.4" stroke="#2D2D2D" fill="#FFEBA2"/>
  <rect id="5f90cae1a2cc40dd90dca0832bfd197e-ao-11" height="43" width="102" y="378.2" x="61.4" stroke="#2D2D2D" fill="#FFEBA2"/>
  <rect id="5f90cae1a2cc40dd90dca0832bfd197e-ao-12" height="41" width="99" y="319.2" x="65.4" stroke="#2D2D2D" fill="#FFEBA2"/>
  <rect id="5f90cae1a2cc40dd90dca0832bfd197e-ao-13" height="19" width="204" y="531.2" x="166.4" stroke="#2D2D2D" fill="#FFEBA2"/>
  <rect id="5f90cae1a2cc40dd90dca0832bfd197e-ao-14" height="15" width="187" y="574.2" x="213.4" stroke="#2D2D2D" fill="#FFEBA2"/>
  <rect id="5f90cae1a2cc40dd90dca0832bfd197e-ao-15" height="18" width="206" y="503.2" x="667.4" stroke="#2D2D2D" fill="#FFEBA2"/>
  <rect id="5f90cae1a2cc40dd90dca0832bfd197e-ao-16" height="15" width="225" y="569.2" x="516.4" stroke="#2D2D2D" fill="#FFEBA2"/>
  <rect id="5f90cae1a2cc40dd90dca0832bfd197e-ao-17" height="19" width="192" y="469.2" x="709.4" stroke="#2D2D2D" fill="#FFEBA2"/>
  <rect id="5f90cae1a2cc40dd90dca0832bfd197e-ao-18" height="21" width="210" y="429.2" x="706.4" stroke="#2D2D2D" fill="#FFEBA2"/>
 </g>
</svg>