<svg xmlns="http://www.w3.org/2000/svg" width="685" height="776">
 <!-- Created with Image Occlusion Enhanced -->
 <g>
  <title>Labels</title>
 </g>
 <g>
  <title>Masks</title>
  <rect id="6bdd87d40ffb490ab89163c2c316f891-ao-1" height="16.77632" width="89.80263" y="196.63156" x="165.46049" stroke="#2D2D2D" fill="#FFEBA2"/>
  <rect id="6bdd87d40ffb490ab89163c2c316f891-ao-2" height="19.73684" width="75.98684" y="227.22367" x="518.74995" stroke="#2D2D2D" fill="#FFEBA2"/>
  <rect id="6bdd87d40ffb490ab89163c2c316f891-ao-3" height="17.76316" width="86.8421" y="259.78946" x="506.90785" stroke="#2D2D2D" fill="#FFEBA2"/>
  <rect id="6bdd87d40ffb490ab89163c2c316f891-ao-4" height="19.73684" width="113.48684" y="291.3684" x="512.8289" stroke="#2D2D2D" fill="#FFEBA2"/>
  <rect id="6bdd87d40ffb490ab89163c2c316f891-ao-5" height="16.77632" width="118.42105" y="325.90788" x="514.80259" stroke="#2D2D2D" fill="#FFEBA2"/>
  <rect id="6bdd87d40ffb490ab89163c2c316f891-ao-6" height="152.96052" width="161.8421" y="243.01314" x="47.03944" stroke="#2D2D2D" fill="#FFEBA2"/>
  <rect id="6bdd87d40ffb490ab89163c2c316f891-ao-7" height="14.80263" width="90.78947" y="432.48682" x="118.09207" stroke="#2D2D2D" fill="#FFEBA2"/>
  <rect id="6bdd87d40ffb490ab89163c2c316f891-ao-8" height="19.73684" width="110.52631" y="488.73682" x="96.38154" stroke="#2D2D2D" fill="#FFEBA2"/>
  <rect id="6bdd87d40ffb490ab89163c2c316f891-ao-9" height="16.77632" width="116.44737" y="543.01314" x="98.35523" stroke="#2D2D2D" fill="#FFEBA2"/>
  <rect id="6bdd87d40ffb490ab89163c2c316f891-ao-10" height="17.76316" width="138.15789" y="593.34208" x="68.74996" stroke="#2D2D2D" fill="#FFEBA2"/>
  <rect id="6bdd87d40ffb490ab89163c2c316f891-ao-11" height="15.78947" width="128.28947" y="508.47366" x="512.8289" stroke="#2D2D2D" fill="#FFEBA2"/>
  <rect id="6bdd87d40ffb490ab89163c2c316f891-ao-12" height="19.73684" width="146.05263" y="539.06577" x="518.74995" stroke="#2D2D2D" fill="#FFEBA2"/>
  <rect id="6bdd87d40ffb490ab89163c2c316f891-ao-13" height="13.81579" width="147.03947" y="445.31577" x="511.84206" stroke="#2D2D2D" fill="#FFEBA2"/>
  <rect id="6bdd87d40ffb490ab89163c2c316f891-ao-14" height="13.81579" width="93.75" y="413.73682" x="512.8289" stroke="#2D2D2D" fill="#FFEBA2"/>
  
  <rect id="6bdd87d40ffb490ab89163c2c316f891-ao-16" height="14.80263" width="60.19737" y="646.63156" x="151.6447" stroke="#2D2D2D" fill="#FFEBA2"/>
 </g>
</svg>