<svg xmlns="http://www.w3.org/2000/svg" width="828" height="524">
 <!-- Created with Image Occlusion Enhanced -->
 <g>
  <title>Labels</title>
 </g>
 <g>
  <title>Masks</title>
  <rect id="6cb80f7f044e40048d77ddfd32226d00-ao-1" height="38.93805" width="142.47788" y="56.35399" x="565.6283" stroke="#2D2D2D" fill="#FFEBA2"/>
  <rect id="6cb80f7f044e40048d77ddfd32226d00-ao-2" height="16.81416" width="73.45133" y="122.72567" x="101.91148" stroke="#2D2D2D" fill="#FFEBA2"/>
  <rect id="6cb80f7f044e40048d77ddfd32226d00-ao-3" height="14.15929" width="81.41593" y="150.1593" x="88.63715" stroke="#2D2D2D" fill="#FFEBA2"/>
  <rect id="6cb80f7f044e40048d77ddfd32226d00-ao-4" height="18.58407" width="83.18584" y="175.82301" x="85.09732" stroke="#2D2D2D" fill="#FFEBA2"/>
  <rect id="6cb80f7f044e40048d77ddfd32226d00-ao-5" height="15.04425" width="162.83186" y="201.48673" x="10.76104" stroke="#2D2D2D" fill="#FFEBA2"/>
  <rect id="6cb80f7f044e40048d77ddfd32226d00-ao-6" height="15.04425" width="104.42478" y="228.92036" x="67.39821" stroke="#2D2D2D" fill="#FFEBA2"/>
  <rect id="6cb80f7f044e40048d77ddfd32226d00-ao-7" height="47.78761" width="123.00885" y="251.92921" x="49.69909" stroke="#2D2D2D" fill="#FFEBA2"/>
  <rect id="6cb80f7f044e40048d77ddfd32226d00-ao-8" height="19.46903" width="59.29204" y="335.11505" x="145.27431" stroke="#2D2D2D" fill="#FFEBA2"/>
  <rect id="6cb80f7f044e40048d77ddfd32226d00-ao-9" height="16.81416" width="107.9646" y="101.48673" x="563.85839" stroke="#2D2D2D" fill="#FFEBA2"/>
  <rect id="6cb80f7f044e40048d77ddfd32226d00-ao-10" height="16.81416" width="135.39823" y="124.49558" x="562.97343" stroke="#2D2D2D" fill="#FFEBA2"/>
  <rect id="6cb80f7f044e40048d77ddfd32226d00-ao-11" height="16.81416" width="62.83186" y="196.177" x="615.18582" stroke="#2D2D2D" fill="#FFEBA2"/>
  <rect id="6cb80f7f044e40048d77ddfd32226d00-ao-12" height="21.23894" width="107.9646" y="222.72567" x="647.92919" stroke="#2D2D2D" fill="#FFEBA2"/>
  <rect id="6cb80f7f044e40048d77ddfd32226d00-ao-13" height="16.81416" width="84.0708" y="274.0531" x="677.13273" stroke="#2D2D2D" fill="#FFEBA2"/>
  <rect id="6cb80f7f044e40048d77ddfd32226d00-ao-14" height="20.35398" width="69.91151" y="325.38054" x="676.24777" stroke="#2D2D2D" fill="#FFEBA2"/>
  <rect id="6cb80f7f044e40048d77ddfd32226d00-ao-15" height="15.04425" width="58.40708" y="352.81417" x="676.24777" stroke="#2D2D2D" fill="#FFEBA2"/>
  <rect id="6cb80f7f044e40048d77ddfd32226d00-ao-16" height="19.46903" width="102.65487" y="377.59293" x="651.46901" stroke="#2D2D2D" fill="#FF7E7E" class="qshape"/>
  <rect id="6cb80f7f044e40048d77ddfd32226d00-ao-17" height="15.9292" width="71.68142" y="430.69027" x="591.29202" stroke="#2D2D2D" fill="#FFEBA2"/>
  <rect id="6cb80f7f044e40048d77ddfd32226d00-ao-18" height="14.15929" width="56.63717" y="457.23895" x="578.90264" stroke="#2D2D2D" fill="#FFEBA2"/>
  <rect id="6cb80f7f044e40048d77ddfd32226d00-ao-19" height="21.23894" width="144.24779" y="467.85842" x="124.03538" stroke="#2D2D2D" fill="#FFEBA2"/>
  <rect id="6cb80f7f044e40048d77ddfd32226d00-ao-20" height="16.81416" width="124.77876" y="443.96461" x="126.69024" stroke="#2D2D2D" fill="#FFEBA2"/>
  <rect id="6cb80f7f044e40048d77ddfd32226d00-ao-21" height="15.04425" width="68.14159" y="389.09735" x="162.97343" stroke="#2D2D2D" fill="#FFEBA2"/>
 </g>
</svg>