<svg xmlns="http://www.w3.org/2000/svg" width="1090" height="642">
 <!-- Created with Image Occlusion Enhanced -->
 <g>
  <title>Labels</title>
 </g>
 <g>
  <title>Masks</title>
  <rect id="756aed825cfa457892c765d0a38e77b5-ao-1" height="27.17391" width="204.34783" y="22.3478" x="748.91307" stroke="#2D2D2D" fill="#FFEBA2"/>
  <rect id="756aed825cfa457892c765d0a38e77b5-ao-2" height="25" width="50" y="48.43476" x="979.34785" stroke="#2D2D2D" fill="#FFEBA2"/>
  <rect id="756aed825cfa457892c765d0a38e77b5-ao-3" height="21.73913" width="67.39131" y="53.86954" x="795.6522" stroke="#2D2D2D" fill="#FFEBA2"/>
  <rect id="756aed825cfa457892c765d0a38e77b5-ao-4" height="17.3913" width="31.52174" y="50.60867" x="627.17393" stroke="#2D2D2D" fill="#FFEBA2"/>
  <rect id="756aed825cfa457892c765d0a38e77b5-ao-5" height="23.91304" width="61.95652" y="219.08693" x="966.30437" stroke="#2D2D2D" fill="#FFEBA2"/>
  <rect id="756aed825cfa457892c765d0a38e77b5-ao-6" height="42.3913" width="72.82609" y="284.30432" x="884.78263" stroke="#2D2D2D" fill="#FFEBA2"/>
  <rect id="756aed825cfa457892c765d0a38e77b5-ao-7" height="35.86957" width="126.08696" y="344.08693" x="877.17394" stroke="#2D2D2D" fill="#FFEBA2"/>
  <rect id="756aed825cfa457892c765d0a38e77b5-ao-8" height="23.91304" width="104.34783" y="389.73911" x="873.91307" stroke="#2D2D2D" fill="#FFEBA2"/>
  <rect id="756aed825cfa457892c765d0a38e77b5-ao-9" height="20.65217" width="239.13044" y="469.08693" x="804.34785" stroke="#2D2D2D" fill="#FFEBA2"/>
  <rect id="756aed825cfa457892c765d0a38e77b5-ao-10" height="34.78261" width="127.17391" y="491.91302" x="82.60871" stroke="#2D2D2D" fill="#FFEBA2"/>
  <rect id="756aed825cfa457892c765d0a38e77b5-ao-11" height="20.65217" width="96.73913" y="449.52172" x="105.4348" stroke="#2D2D2D" fill="#FFEBA2"/>
  <rect id="756aed825cfa457892c765d0a38e77b5-ao-12" height="63.04348" width="163.04348" y="544.08694" x="46.73914" stroke="#2D2D2D" fill="#FFEBA2"/>
  <rect id="756aed825cfa457892c765d0a38e77b5-ao-13" height="26.08696" width="134.78261" y="409.30433" x="9.78262" stroke="#2D2D2D" fill="#FFEBA2"/>
  <rect id="756aed825cfa457892c765d0a38e77b5-ao-14" height="27.17391" width="113.04348" y="367.99998" x="30.4348" stroke="#2D2D2D" fill="#FFEBA2"/>
  <rect id="756aed825cfa457892c765d0a38e77b5-ao-15" height="25" width="107.6087" y="327.78258" x="33.69567" stroke="#2D2D2D" fill="#FFEBA2"/>
  <rect id="756aed825cfa457892c765d0a38e77b5-ao-16" height="23.91304" width="150" y="57.13041" x="243.47828" stroke="#2D2D2D" fill="#FFEBA2"/>
  <rect id="756aed825cfa457892c765d0a38e77b5-ao-17" height="20.65217" width="180.43478" y="87.56519" x="345.65219" stroke="#2D2D2D" fill="#FFEBA2"/>
  
  <rect id="756aed825cfa457892c765d0a38e77b5-ao-19" height="25" width="116.30435" y="166.91302" x="432.60871" stroke="#2D2D2D" fill="#FFEBA2"/>
  <rect id="756aed825cfa457892c765d0a38e77b5-ao-20" height="42.3913" width="220.65218" y="9.30432" x="96.73914" stroke="#2D2D2D" fill="#FFEBA2"/>
 </g>
</svg>