<svg xmlns="http://www.w3.org/2000/svg" width="725" height="817.9999999999999">
 <!-- Created with Image Occlusion Enhanced -->
 <g>
  <title>Labels</title>
 </g>
 <g>
  <title>Masks</title>
  <rect id="7ec80976c0754f1294c0b7ad530a4c02-ao-1" height="11.71875" width="71.09375" y="1.06245" x="490.9375" stroke="#2D2D2D" fill="#FFEBA2"/>
  <rect id="7ec80976c0754f1294c0b7ad530a4c02-ao-2" height="16.40625" width="80.46875" y="44.0312" x="491.71875" stroke="#2D2D2D" fill="#FFEBA2"/>
  <rect id="7ec80976c0754f1294c0b7ad530a4c02-ao-3" height="17.1875" width="80.46875" y="82.31245" x="495.625" stroke="#2D2D2D" fill="#FFEBA2"/>
  <rect id="7ec80976c0754f1294c0b7ad530a4c02-ao-4" height="12.5" width="167.1875" y="124.49995" x="504.21875" stroke="#2D2D2D" fill="#FFEBA2"/>
  <rect id="7ec80976c0754f1294c0b7ad530a4c02-ao-5" height="14.0625" width="99.21875" y="54.9687" x="160.46875" stroke="#2D2D2D" fill="#FFEBA2"/>
  <rect id="7ec80976c0754f1294c0b7ad530a4c02-ao-6" height="12.5" width="124.21875" y="3.4062" x="151.875" stroke="#2D2D2D" fill="#FFEBA2"/>
  <rect id="7ec80976c0754f1294c0b7ad530a4c02-ao-7" height="14.0625" width="72.65625" y="166.68745" x="156.5625" stroke="#2D2D2D" fill="#FFEBA2"/>
  <rect id="7ec80976c0754f1294c0b7ad530a4c02-ao-8" height="26.5625" width="100" y="183.87495" x="125.3125" stroke="#2D2D2D" fill="#FFEBA2"/>
  <rect id="7ec80976c0754f1294c0b7ad530a4c02-ao-9" height="17.1875" width="118.75" y="241.68745" x="101.09375" stroke="#2D2D2D" fill="#FFEBA2"/>
  <rect id="7ec80976c0754f1294c0b7ad530a4c02-ao-10" height="28.90625" width="206.25" y="155.74995" x="512.03125" stroke="#2D2D2D" fill="#FFEBA2"/>
  <rect id="7ec80976c0754f1294c0b7ad530a4c02-ao-11" height="26.5625" width="175" y="232.31245" x="512.03125" stroke="#2D2D2D" fill="#FFEBA2"/>
  <rect id="7ec80976c0754f1294c0b7ad530a4c02-ao-12" height="14.84375" width="157.8125" y="278.4062" x="513.59375" stroke="#2D2D2D" fill="#FFEBA2"/>
  <rect id="7ec80976c0754f1294c0b7ad530a4c02-ao-13" height="26.5625" width="153.125" y="308.87495" x="510.46875" stroke="#2D2D2D" fill="#FFEBA2"/>
  <rect id="7ec80976c0754f1294c0b7ad530a4c02-ao-14" height="10.9375" width="67.1875" y="354.9687" x="510.46875" stroke="#2D2D2D" fill="#FFEBA2"/>
  <rect id="7ec80976c0754f1294c0b7ad530a4c02-ao-15" height="14.0625" width="124.21875" y="286.99995" x="96.40625" stroke="#2D2D2D" fill="#FFEBA2"/>
  <rect id="7ec80976c0754f1294c0b7ad530a4c02-ao-16" height="15.625" width="68.75" y="333.87495" x="150.3125" stroke="#2D2D2D" fill="#FFEBA2"/>
  <rect id="7ec80976c0754f1294c0b7ad530a4c02-ao-17" height="14.84375" width="123.4375" y="433.87495" x="98.75" stroke="#2D2D2D" fill="#FFEBA2"/>
  <rect id="7ec80976c0754f1294c0b7ad530a4c02-ao-18" height="18.75" width="145.3125" y="470.5937" x="71.40625" stroke="#2D2D2D" fill="#FFEBA2"/>
  <rect id="7ec80976c0754f1294c0b7ad530a4c02-ao-19" height="27.34375" width="158.59375" y="522.1562" x="83.90625" stroke="#2D2D2D" fill="#FFEBA2"/>
  <rect id="7ec80976c0754f1294c0b7ad530a4c02-ao-20" height="16.40625" width="153.125" y="580.74995" x="71.40625" stroke="#2D2D2D" fill="#FFEBA2"/>
  <rect id="7ec80976c0754f1294c0b7ad530a4c02-ao-21" height="14.84375" width="208.59375" y="421.37495" x="501.09375" stroke="#2D2D2D" fill="#FF7E7E" class="qshape"/>
  <rect id="7ec80976c0754f1294c0b7ad530a4c02-ao-22" height="22.65625" width="145.3125" y="479.9687" x="489.375" stroke="#2D2D2D" fill="#FFEBA2"/>
  <rect id="7ec80976c0754f1294c0b7ad530a4c02-ao-23" height="19.53125" width="195.3125" y="515.12495" x="479.21875" stroke="#2D2D2D" fill="#FFEBA2"/>
  <rect id="7ec80976c0754f1294c0b7ad530a4c02-ao-24" height="13.28125" width="64.0625" y="552.62495" x="465.9375" stroke="#2D2D2D" fill="#FFEBA2"/>
  <rect id="7ec80976c0754f1294c0b7ad530a4c02-ao-25" height="13.28125" width="78.125" y="616.68745" x="460.46875" stroke="#2D2D2D" fill="#FFEBA2"/>
  <rect id="7ec80976c0754f1294c0b7ad530a4c02-ao-26" height="29.6875" width="139.0625" y="771.37495" x="34.6875" stroke="#2D2D2D" fill="#FFEBA2"/>
 </g>
</svg>