<svg xmlns="http://www.w3.org/2000/svg" width="623" height="521">
 <!-- Created with Image Occlusion Enhanced -->
 <g>
  <title>Labels</title>
 </g>
 <g>
  <title>Masks</title>
  <rect id="86a72deeefe04766be0a48cc71dadd26-ao-1" height="58.40708" width="102.21239" y="47.93806" x="19.34514" stroke="#2D2D2D" fill="#FFEBA2"/>
  <rect id="86a72deeefe04766be0a48cc71dadd26-ao-2" height="53.09735" width="191.81416" y="14.0885" x="393.01771" stroke="#2D2D2D" fill="#FFEBA2"/>
  <rect id="86a72deeefe04766be0a48cc71dadd26-ao-3" height="34.51327" width="132.74336" y="81.1239" x="454.74338" stroke="#2D2D2D" fill="#FFEBA2"/>
  <rect id="86a72deeefe04766be0a48cc71dadd26-ao-4" height="15.9292" width="120.13275" y="133.55753" x="460.05311" stroke="#2D2D2D" fill="#FFEBA2"/>
  <rect id="86a72deeefe04766be0a48cc71dadd26-ao-5" height="16.59292" width="126.76991" y="169.39823" x="439.47789" stroke="#2D2D2D" fill="#FFEBA2"/>
  <rect id="86a72deeefe04766be0a48cc71dadd26-ao-6" height="30.53097" width="62.38938" y="150.15045" x="9.38939" stroke="#2D2D2D" fill="#FFEBA2"/>
  <rect id="86a72deeefe04766be0a48cc71dadd26-ao-7" height="33.18584" width="67.0354" y="224.48673" x="7.39824" stroke="#2D2D2D" fill="#FFEBA2"/>
  <rect id="86a72deeefe04766be0a48cc71dadd26-ao-8" height="17.92035" width="105.53097" y="296.83186" x="40.58408" stroke="#2D2D2D" fill="#FFEBA2"/>
  <rect id="86a72deeefe04766be0a48cc71dadd26-ao-9" height="14.60177" width="140.04425" y="325.37169" x="4.07965" stroke="#2D2D2D" fill="#FFEBA2"/>
  <rect id="86a72deeefe04766be0a48cc71dadd26-ao-10" height="15.9292" width="55.75221" y="351.25664" x="85.71682" stroke="#2D2D2D" fill="#FFEBA2"/>
  <rect id="86a72deeefe04766be0a48cc71dadd26-ao-11" height="12.61062" width="100.88496" y="376.47788" x="45.89381" stroke="#2D2D2D" fill="#FF7E7E" class="qshape"/>
  <rect id="86a72deeefe04766be0a48cc71dadd26-ao-12" height="17.92035" width="101.54867" y="400.37169" x="39.92036" stroke="#2D2D2D" fill="#FFEBA2"/>
  <rect id="86a72deeefe04766be0a48cc71dadd26-ao-13" height="21.90266" width="50.44248" y="447.49558" x="97.66373" stroke="#2D2D2D" fill="#FFEBA2"/>
  <rect id="86a72deeefe04766be0a48cc71dadd26-ao-14" height="22.56637" width="144.02655" y="494.61948" x="54.52213" stroke="#2D2D2D" fill="#FFEBA2"/>
  <rect id="86a72deeefe04766be0a48cc71dadd26-ao-15" height="16.59292" width="138.0531" y="428.2478" x="430.84957" stroke="#2D2D2D" fill="#FFEBA2"/>
  <rect id="86a72deeefe04766be0a48cc71dadd26-ao-16" height="15.26549" width="49.77876" y="399.70797" x="453.41594" stroke="#2D2D2D" fill="#FFEBA2"/>
  <rect id="86a72deeefe04766be0a48cc71dadd26-ao-17" height="18.58407" width="43.14159" y="351.92036" x="446.77878" stroke="#2D2D2D" fill="#FFEBA2"/>
  <rect id="86a72deeefe04766be0a48cc71dadd26-ao-18" height="17.92035" width="136.72567" y="315.41594" x="438.81417" stroke="#2D2D2D" fill="#FFEBA2"/>
  <rect id="86a72deeefe04766be0a48cc71dadd26-ao-19" height="12.61062" width="69.02655" y="288.20355" x="438.81417" stroke="#2D2D2D" fill="#FFEBA2"/>
  <rect id="86a72deeefe04766be0a48cc71dadd26-ao-20" height="17.25664" width="82.9646" y="254.35399" x="439.47789" stroke="#2D2D2D" fill="#FFEBA2"/>
  <rect id="86a72deeefe04766be0a48cc71dadd26-ao-21" height="12.61062" width="23.89381" y="271.61063" x="433.50444" stroke="#2D2D2D" fill="#FFEBA2"/>
  <rect id="86a72deeefe04766be0a48cc71dadd26-ao-22" height="13.93805" width="35.17699" y="237.09735" x="437.48674" stroke="#2D2D2D" fill="#FFEBA2"/>
  <rect id="86a72deeefe04766be0a48cc71dadd26-ao-23" height="15.26549" width="44.46903" y="416.30089" x="294.78762" stroke="#2D2D2D" fill="#FFEBA2"/>
 </g>
</svg>