<svg xmlns="http://www.w3.org/2000/svg" width="1166" height="599">
 <!-- Created with Image Occlusion Enhanced -->
 <g>
  <title>Labels</title>
 </g>
 <g>
  <title>Masks</title>
  <rect id="8b8c7051500840628a52235721c5c541-ao-1" height="22.22222" width="181.81819" y="11.90907" x="490.16167" stroke="#2D2D2D" fill="#FFEBA2"/>
  <rect id="8b8c7051500840628a52235721c5c541-ao-2" height="20.20202" width="55.55556" y="88.67675" x="589.15157" stroke="#2D2D2D" fill="#FFEBA2"/>
  <rect id="8b8c7051500840628a52235721c5c541-ao-3" height="22.22222" width="55.55556" y="323.02019" x="104.30307" stroke="#2D2D2D" fill="#FFEBA2"/>
  <rect id="8b8c7051500840628a52235721c5c541-ao-4" height="20.20202" width="182.82829" y="189.68685" x="15.41418" stroke="#2D2D2D" fill="#FFEBA2"/>
  <rect id="8b8c7051500840628a52235721c5c541-ao-5" height="30.30303" width="110.10101" y="247.26261" x="74.00004" stroke="#2D2D2D" fill="#FFEBA2"/>
  <rect id="8b8c7051500840628a52235721c5c541-ao-6" height="25.25253" width="128.28283" y="87.66665" x="160.86873" stroke="#2D2D2D" fill="#FFEBA2"/>
  <rect id="8b8c7051500840628a52235721c5c541-ao-7" height="23.23232" width="198.9899" y="142.2121" x="33.596" stroke="#2D2D2D" fill="#FFEBA2"/>
  <rect id="8b8c7051500840628a52235721c5c541-ao-8" height="23.23232" width="125.25253" y="18.97977" x="208.34348" stroke="#2D2D2D" fill="#FFEBA2"/>
  <rect id="8b8c7051500840628a52235721c5c541-ao-9" height="24.24242" width="196.9697" y="194.73736" x="680.06066" stroke="#2D2D2D" fill="#FFEBA2"/>
  <rect id="8b8c7051500840628a52235721c5c541-ao-10" height="21.21212" width="110.10101" y="290.69695" x="719.4546" stroke="#2D2D2D" fill="#FFEBA2"/>
  <rect id="8b8c7051500840628a52235721c5c541-ao-11" height="17.17172" width="129.29293" y="150.29291" x="656.82834" stroke="#2D2D2D" fill="#FFEBA2"/>
  <rect id="8b8c7051500840628a52235721c5c541-ao-12" height="16.16162" width="176.76768" y="336.1515" x="711.37379" stroke="#2D2D2D" fill="#FFEBA2"/>
  <rect id="8b8c7051500840628a52235721c5c541-ao-13" height="24.24242" width="170.70708" y="238.1717" x="696.22228" stroke="#2D2D2D" fill="#FFEBA2"/>
  <rect id="8b8c7051500840628a52235721c5c541-ao-14" height="28.28283" width="85.85859" y="416.95958" x="675.01016" stroke="#2D2D2D" fill="#FFEBA2"/>
  <rect id="8b8c7051500840628a52235721c5c541-ao-15" height="24.24242" width="221.21213" y="469.48484" x="625.5152" stroke="#2D2D2D" fill="#FFEBA2"/>
  <rect id="8b8c7051500840628a52235721c5c541-ao-16" height="21.21212" width="74.74748" y="512.91918" x="568.94955" stroke="#2D2D2D" fill="#FFEBA2"/>
  <rect id="8b8c7051500840628a52235721c5c541-ao-17" height="22.22222" width="96.9697" y="532.1111" x="393.19197" stroke="#2D2D2D" fill="#FFEBA2"/>
  <rect id="8b8c7051500840628a52235721c5c541-ao-18" height="21.21212" width="215.15152" y="515.94949" x="91.17175" stroke="#2D2D2D" fill="#FFEBA2"/>
  <rect id="8b8c7051500840628a52235721c5c541-ao-19" height="18.18182" width="56.56566" y="460.39393" x="165.91923" stroke="#2D2D2D" fill="#FFEBA2"/>
  
  <rect id="8b8c7051500840628a52235721c5c541-ao-21" height="20.20202" width="164.64647" y="395.74746" x="15.41418" stroke="#2D2D2D" fill="#FFEBA2"/>
 </g>
</svg>