<svg xmlns="http://www.w3.org/2000/svg" width="712" height="353">
 <!-- Created with Image Occlusion Enhanced -->
 <g>
  <title>Labels</title>
 </g>
 <g>
  <title>Masks</title>
  <rect id="907b4b29a24a4013b6604e9c0de54af8-ao-1" height="27.14571" width="114.17165" y="57.37923" x="54.94608" stroke="#2D2D2D" fill="#FFEBA2"/>
  <rect id="907b4b29a24a4013b6604e9c0de54af8-ao-2" height="21.55689" width="152.49501" y="102.08981" x="15.02592" stroke="#2D2D2D" fill="#FFEBA2"/>
  <rect id="907b4b29a24a4013b6604e9c0de54af8-ao-3" height="22.35529" width="46.30738" y="146.00199" x="122.01194" stroke="#2D2D2D" fill="#FFEBA2"/>
  <rect id="907b4b29a24a4013b6604e9c0de54af8-ao-4" height="35.92814" width="131.73652" y="185.12374" x="34.18759" stroke="#2D2D2D" fill="#FFEBA2"/>
  <rect id="907b4b29a24a4013b6604e9c0de54af8-ao-5" height="20.75848" width="110.17964" y="243.40718" x="54.94608" stroke="#2D2D2D" fill="#FFEBA2"/>
  <rect id="907b4b29a24a4013b6604e9c0de54af8-ao-6" height="16.76647" width="105.38922" y="7.07983" x="497.26144" stroke="#2D2D2D" fill="#FFEBA2"/>
  <rect id="907b4b29a24a4013b6604e9c0de54af8-ao-7" height="17.56487" width="166.86626" y="36.62075" x="498.05984" stroke="#2D2D2D" fill="#FFEBA2"/>
  <rect id="907b4b29a24a4013b6604e9c0de54af8-ao-8" height="14.37126" width="162.87425" y="67.75848" x="496.46304" stroke="#2D2D2D" fill="#FFEBA2"/>
  <rect id="907b4b29a24a4013b6604e9c0de54af8-ao-9" height="13.57285" width="114.17165" y="98.0978" x="498.85825" stroke="#2D2D2D" fill="#FFEBA2"/>
  <rect id="907b4b29a24a4013b6604e9c0de54af8-ao-10" height="15.16966" width="159.68064" y="129.23552" x="493.26942" stroke="#2D2D2D" fill="#FFEBA2"/>
  <rect id="907b4b29a24a4013b6604e9c0de54af8-ao-11" height="17.56487" width="200.3992" y="159.57484" x="496.46304" stroke="#2D2D2D" fill="#FFEBA2"/>
  <rect id="907b4b29a24a4013b6604e9c0de54af8-ao-12" height="16.76647" width="207.58483" y="189.11576" x="497.26144" stroke="#2D2D2D" fill="#FFEBA2"/>
  <rect id="907b4b29a24a4013b6604e9c0de54af8-ao-13" height="15.16966" width="165.26946" y="220.25348" x="502.05186" stroke="#2D2D2D" fill="#FFEBA2"/>
  <rect id="907b4b29a24a4013b6604e9c0de54af8-ao-14" height="16.76647" width="126.94611" y="250.5928" x="497.26144" stroke="#2D2D2D" fill="#FF7E7E" class="qshape"/>
  <rect id="907b4b29a24a4013b6604e9c0de54af8-ao-15" height="15.96806" width="75.0499" y="282.52893" x="498.05984" stroke="#2D2D2D" fill="#FFEBA2"/>
 </g>
</svg>