<svg xmlns="http://www.w3.org/2000/svg" width="654" height="768">
 <!-- Created with Image Occlusion Enhanced -->
 <g>
  <title>Labels</title>
 </g>
 <g>
  <title>Masks</title>
  <rect id="90838a4047bb4e8686cfe53efad6b058-ao-1" height="18.50649" width="73.05195" y="31.67534" x="387.62337" stroke="#2D2D2D" fill="#FFEBA2"/>
  <rect id="90838a4047bb4e8686cfe53efad6b058-ao-2" height="19.48052" width="65.25974" y="65.76625" x="443.14286" stroke="#2D2D2D" fill="#FFEBA2"/>
  
  <rect id="90838a4047bb4e8686cfe53efad6b058-ao-4" height="13.63636" width="86.68831" y="134.9221" x="508.4026" stroke="#2D2D2D" fill="#FFEBA2"/>
  <rect id="90838a4047bb4e8686cfe53efad6b058-ao-5" height="15.58442" width="84.74026" y="167.06496" x="530.8052" stroke="#2D2D2D" fill="#FFEBA2"/>
  <rect id="90838a4047bb4e8686cfe53efad6b058-ao-6" height="19.48052" width="111.03896" y="212.84418" x="541.51948" stroke="#2D2D2D" fill="#FFEBA2"/>
  <rect id="90838a4047bb4e8686cfe53efad6b058-ao-7" height="16.55844" width="56.49351" y="256.67535" x="557.1039" stroke="#2D2D2D" fill="#FFEBA2"/>
  <rect id="90838a4047bb4e8686cfe53efad6b058-ao-8" height="65.25974" width="93.5065" y="298.55847" x="552.23377" stroke="#2D2D2D" fill="#FFEBA2"/>
  <rect id="90838a4047bb4e8686cfe53efad6b058-ao-9" height="19.48052" width="75" y="462.19484" x="547.36364" stroke="#2D2D2D" fill="#FFEBA2"/>
  <rect id="90838a4047bb4e8686cfe53efad6b058-ao-10" height="15.58442" width="84.74026" y="507.00003" x="541.51948" stroke="#2D2D2D" fill="#FFEBA2"/>
  <rect id="90838a4047bb4e8686cfe53efad6b058-ao-11" height="17.53247" width="75" y="550.8312" x="540.54546" stroke="#2D2D2D" fill="#FFEBA2"/>
  <rect id="90838a4047bb4e8686cfe53efad6b058-ao-12" height="17.53247" width="107.14286" y="595.6364" x="529.83117" stroke="#2D2D2D" fill="#FFEBA2"/>
  <rect id="90838a4047bb4e8686cfe53efad6b058-ao-13" height="17.53247" width="115.90909" y="14.14288" x="187.94804" stroke="#2D2D2D" fill="#FFEBA2"/>
  <rect id="90838a4047bb4e8686cfe53efad6b058-ao-14" height="19.48052" width="113.96104" y="47.25976" x="117.81817" stroke="#2D2D2D" fill="#FFEBA2"/>
  <rect id="90838a4047bb4e8686cfe53efad6b058-ao-15" height="15.58442" width="85.71429" y="79.40262" x="113.92207" stroke="#2D2D2D" fill="#FFEBA2"/>
  <rect id="90838a4047bb4e8686cfe53efad6b058-ao-16" height="18.50649" width="112.01299" y="109.59742" x="65.22077" stroke="#2D2D2D" fill="#FFEBA2"/>
  <rect id="90838a4047bb4e8686cfe53efad6b058-ao-17" height="16.55844" width="105.19481" y="151.48054" x="52.55843" stroke="#2D2D2D" fill="#FFEBA2"/>
  <rect id="90838a4047bb4e8686cfe53efad6b058-ao-18" height="26.2987" width="133.44156" y="186.54548" x="25.2857" stroke="#2D2D2D" fill="#FFEBA2"/>
  <rect id="90838a4047bb4e8686cfe53efad6b058-ao-19" height="18.50649" width="47.72727" y="263.49353" x="89.57142" stroke="#2D2D2D" fill="#FFEBA2"/>
  <rect id="90838a4047bb4e8686cfe53efad6b058-ao-20" height="15.58442" width="108.11689" y="677.45458" x="444.11688" stroke="#2D2D2D" fill="#FFEBA2"/>
  <rect id="90838a4047bb4e8686cfe53efad6b058-ao-21" height="14.61039" width="144.15585" y="712.51952" x="373.98701" stroke="#2D2D2D" fill="#FFEBA2"/>
  <rect id="90838a4047bb4e8686cfe53efad6b058-ao-22" height="15.58442" width="90.58442" y="643.36367" x="511.32468" stroke="#2D2D2D" fill="#FFEBA2"/>
 </g>
</svg>