<svg xmlns="http://www.w3.org/2000/svg" width="679" height="838">
 <!-- Created with Image Occlusion Enhanced -->
 <g>
  <title>Labels</title>
 </g>
 <g>
  <title>Masks</title>
  <rect id="91dddf79e8bf41b4855f697673e160bc-ao-1" height="16.07143" width="71.51786" y="92.21424" x="346.51785" stroke="#2D2D2D" fill="#FFEBA2"/>
  <rect id="91dddf79e8bf41b4855f697673e160bc-ao-2" height="16.07143" width="35.35714" y="63.28567" x="397.14285" stroke="#2D2D2D" fill="#FFEBA2"/>
  <rect id="91dddf79e8bf41b4855f697673e160bc-ao-3" height="14.46429" width="86.78571" y="31.94639" x="441.33928" stroke="#2D2D2D" fill="#FFEBA2"/>
  <rect id="91dddf79e8bf41b4855f697673e160bc-ao-4" height="24.91071" width="60.26786" y="39.17853" x="605.26785" stroke="#2D2D2D" fill="#FFEBA2"/>
  <rect id="91dddf79e8bf41b4855f697673e160bc-ao-5" height="16.875" width="20.89286" y="154.08924" x="455.80356" stroke="#2D2D2D" fill="#FFEBA2"/>
  <rect id="91dddf79e8bf41b4855f697673e160bc-ao-6" height="16.07143" width="81.16071" y="175.78567" x="419.64285" stroke="#2D2D2D" fill="#FFEBA2"/>
  <rect id="91dddf79e8bf41b4855f697673e160bc-ao-7" height="12.85714" width="83.57143" y="223.99996" x="412.41071" stroke="#2D2D2D" fill="#FFEBA2"/>
  <rect id="91dddf79e8bf41b4855f697673e160bc-ao-8" height="12.85714" width="64.28571" y="249.71424" x="434.91071" stroke="#2D2D2D" fill="#FFEBA2"/>
  <rect id="91dddf79e8bf41b4855f697673e160bc-ao-9" height="14.46429" width="86.78571" y="270.6071" x="412.41071" stroke="#2D2D2D" fill="#FFEBA2"/>
  <rect id="91dddf79e8bf41b4855f697673e160bc-ao-10" height="40.98214" width="128.57143" y="310.78567" x="364.19642" stroke="#2D2D2D" fill="#FFEBA2"/>
  
  <rect id="91dddf79e8bf41b4855f697673e160bc-ao-12" height="25.71429" width="53.03571" y="77.74996" x="227.58928" stroke="#2D2D2D" fill="#FFEBA2"/>
  <rect id="91dddf79e8bf41b4855f697673e160bc-ao-13" height="25.71429" width="71.51786" y="42.39281" x="-0.625" stroke="#2D2D2D" fill="#FFEBA2"/>
  <rect id="91dddf79e8bf41b4855f697673e160bc-ao-14" height="17.67857" width="86.78571" y="192.66067" x="173.74999" stroke="#2D2D2D" fill="#FFEBA2"/>
  <rect id="91dddf79e8bf41b4855f697673e160bc-ao-15" height="15.26786" width="91.60714" y="228.82138" x="155.26785" stroke="#2D2D2D" fill="#FFEBA2"/>
  <rect id="91dddf79e8bf41b4855f697673e160bc-ao-16" height="28.92857" width="42.58929" y="394.3571" x="596.42856" stroke="#2D2D2D" fill="#FFEBA2"/>
  <rect id="91dddf79e8bf41b4855f697673e160bc-ao-17" height="27.32143" width="58.66071" y="592.03567" x="566.69642" stroke="#2D2D2D" fill="#FFEBA2"/>
  <rect id="91dddf79e8bf41b4855f697673e160bc-ao-18" height="16.875" width="74.73214" y="663.55352" x="303.92857" stroke="#2D2D2D" fill="#FFEBA2"/>
  <rect id="91dddf79e8bf41b4855f697673e160bc-ao-19" height="25.71429" width="71.51786" y="715.78567" x="301.51785" stroke="#2D2D2D" fill="#FFEBA2"/>
  <rect id="91dddf79e8bf41b4855f697673e160bc-ao-20" height="28.125" width="74.73214" y="718.99995" x="570.71428" stroke="#2D2D2D" fill="#FFEBA2"/>
  <rect id="91dddf79e8bf41b4855f697673e160bc-ao-21" height="13.66071" width="76.33929" y="781.67852" x="570.71428" stroke="#2D2D2D" fill="#FFEBA2"/>
  <rect id="91dddf79e8bf41b4855f697673e160bc-ao-22" height="12.85714" width="88.39286" y="823.46424" x="443.74999" stroke="#2D2D2D" fill="#FFEBA2"/>
  <rect id="91dddf79e8bf41b4855f697673e160bc-ao-23" height="15.26786" width="77.14286" y="804.98209" x="303.12499" stroke="#2D2D2D" fill="#FFEBA2"/>
  <rect id="91dddf79e8bf41b4855f697673e160bc-ao-24" height="16.07143" width="93.21429" y="817.83924" x="182.58928" stroke="#2D2D2D" fill="#FFEBA2"/>
  <rect id="91dddf79e8bf41b4855f697673e160bc-ao-25" height="15.26786" width="77.14286" y="816.23209" x="33.125" stroke="#2D2D2D" fill="#FFEBA2"/>
  <rect id="91dddf79e8bf41b4855f697673e160bc-ao-26" height="28.92857" width="72.32143" y="718.99995" x="33.125" stroke="#2D2D2D" fill="#FFEBA2"/>
 </g>
</svg>