<svg xmlns="http://www.w3.org/2000/svg" width="867" height="567">
 <!-- Created with Image Occlusion Enhanced -->
 <g>
  <title>Labels</title>
 </g>
 <g>
  <title>Masks</title>
  <rect id="98be16161ed44b528262cfeb57d13839-ao-1" height="24.03846" width="72.11539" y="19.73078" x="647.80771" stroke="#2D2D2D" fill="#FFEBA2"/>
  <rect id="98be16161ed44b528262cfeb57d13839-ao-2" height="20.19231" width="161.53846" y="79.34616" x="649.73078" stroke="#2D2D2D" fill="#FFEBA2"/>
  <rect id="98be16161ed44b528262cfeb57d13839-ao-3" height="15.38462" width="73.07692" y="110.11539" x="653.57694" stroke="#2D2D2D" fill="#FFEBA2"/>
  <rect id="98be16161ed44b528262cfeb57d13839-ao-4" height="17.30769" width="132.69231" y="106.26924" x="74.73078" stroke="#2D2D2D" fill="#FFEBA2"/>
  <rect id="98be16161ed44b528262cfeb57d13839-ao-5" height="19.23077" width="91.34615" y="143.76924" x="116.07693" stroke="#2D2D2D" fill="#FFEBA2"/>
  <rect id="98be16161ed44b528262cfeb57d13839-ao-6" height="19.23077" width="99.03846" y="215.88463" x="107.42308" stroke="#2D2D2D" fill="#FFEBA2"/>
  <rect id="98be16161ed44b528262cfeb57d13839-ao-7" height="19.23077" width="91.34615" y="256.26924" x="113.19231" stroke="#2D2D2D" fill="#FFEBA2"/>
  <rect id="98be16161ed44b528262cfeb57d13839-ao-8" height="18.26923" width="165.38462" y="165.88462" x="650.69232" stroke="#2D2D2D" fill="#FFEBA2"/>
  <rect id="98be16161ed44b528262cfeb57d13839-ao-9" height="16.34615" width="145.19231" y="197.61539" x="653.57694" stroke="#2D2D2D" fill="#FFEBA2"/>
  <rect id="98be16161ed44b528262cfeb57d13839-ao-10" height="18.26923" width="151.92308" y="225.50001" x="653.57694" stroke="#2D2D2D" fill="#FFEBA2"/>
  <rect id="98be16161ed44b528262cfeb57d13839-ao-11" height="15.38462" width="196.15385" y="255.3077" x="653.57694" stroke="#2D2D2D" fill="#FFEBA2"/>
  <rect id="98be16161ed44b528262cfeb57d13839-ao-12" height="31.73077" width="160.57693" y="284.15386" x="649.73078" stroke="#2D2D2D" fill="#FFEBA2"/>
  <rect id="98be16161ed44b528262cfeb57d13839-ao-13" height="16.34615" width="215.38462" y="328.38463" x="651.65386" stroke="#2D2D2D" fill="#FFEBA2"/>
  <rect id="98be16161ed44b528262cfeb57d13839-ao-14" height="30.76923" width="141.34616" y="386.07693" x="647.80771" stroke="#2D2D2D" fill="#FFEBA2"/>
  <rect id="98be16161ed44b528262cfeb57d13839-ao-15" height="17.30769" width="163.46154" y="429.34617" x="649.73078" stroke="#2D2D2D" fill="#FFEBA2"/>
  <rect id="98be16161ed44b528262cfeb57d13839-ao-16" height="19.23077" width="161.53846" y="459.15386" x="649.73078" stroke="#2D2D2D" fill="#FFEBA2"/>
  <rect id="98be16161ed44b528262cfeb57d13839-ao-17" height="20.19231" width="165.38462" y="487.03847" x="646.84617" stroke="#2D2D2D" fill="#FFEBA2"/>
  <rect id="98be16161ed44b528262cfeb57d13839-ao-18" height="22.11538" width="136.53846" y="516.84617" x="645.88463" stroke="#2D2D2D" fill="#FFEBA2"/>
  <rect id="98be16161ed44b528262cfeb57d13839-ao-19" height="18.26923" width="91.34615" y="416.84617" x="118.96155" stroke="#2D2D2D" fill="#FFEBA2"/>
  <rect id="98be16161ed44b528262cfeb57d13839-ao-20" height="16.34615" width="43.26923" y="457.23078" x="166.07693" stroke="#2D2D2D" fill="#FF7E7E" class="qshape"/>
  <rect id="98be16161ed44b528262cfeb57d13839-ao-21" height="16.34615" width="135.57692" y="385.1154" x="70.88462" stroke="#2D2D2D" fill="#FFEBA2"/>
  <rect id="98be16161ed44b528262cfeb57d13839-ao-22" height="20.19231" width="63.46154" y="338.96155" x="143.96155" stroke="#2D2D2D" fill="#FFEBA2"/>
  <rect id="98be16161ed44b528262cfeb57d13839-ao-23" height="23.07692" width="101.92308" y="529.34617" x="186.26924" stroke="#2D2D2D" fill="#FFEBA2"/>
 </g>
</svg>