<svg xmlns="http://www.w3.org/2000/svg" width="915" height="677">
 <!-- Created with Image Occlusion Enhanced -->
 <g>
  <title>Labels</title>
 </g>
 <g>
  <title>Masks</title>
  <rect id="af3ba5edb43b490fa05d17c6cc9fb74f-ao-1" height="20.68966" width="181.6092" y="34.72415" x="326.60921" stroke="#2D2D2D" fill="#FFEBA2"/>
  <rect id="af3ba5edb43b490fa05d17c6cc9fb74f-ao-2" height="19.54023" width="139.08046" y="70.35633" x="296.72416" stroke="#2D2D2D" fill="#FFEBA2"/>
  <rect id="af3ba5edb43b490fa05d17c6cc9fb74f-ao-3" height="18.3908" width="156.32184" y="99.09197" x="223.16094" stroke="#2D2D2D" fill="#FFEBA2"/>
  <rect id="af3ba5edb43b490fa05d17c6cc9fb74f-ao-4" height="20.68966" width="94.25288" y="130.12645" x="210.51726" stroke="#2D2D2D" fill="#FFEBA2"/>
  
  <rect id="af3ba5edb43b490fa05d17c6cc9fb74f-ao-6" height="21.83908" width="95.4023" y="187.59772" x="122.01151" stroke="#2D2D2D" fill="#FFEBA2"/>
  <rect id="af3ba5edb43b490fa05d17c6cc9fb74f-ao-7" height="21.83908" width="102.29885" y="217.48277" x="82.93105" stroke="#2D2D2D" fill="#FFEBA2"/>
  <rect id="af3ba5edb43b490fa05d17c6cc9fb74f-ao-8" height="22.98851" width="59.77012" y="411.73565" x="43.85059" stroke="#2D2D2D" fill="#FFEBA2"/>
  <rect id="af3ba5edb43b490fa05d17c6cc9fb74f-ao-9" height="24.13793" width="66.66667" y="520.93105" x="15.11496" stroke="#2D2D2D" fill="#FFEBA2"/>
  <rect id="af3ba5edb43b490fa05d17c6cc9fb74f-ao-10" height="18.3908" width="108.04598" y="572.65519" x="135.80461" stroke="#2D2D2D" fill="#FFEBA2"/>
  <rect id="af3ba5edb43b490fa05d17c6cc9fb74f-ao-11" height="18.3908" width="141.37931" y="574.95404" x="332.35634" stroke="#2D2D2D" fill="#FFEBA2"/>
  <rect id="af3ba5edb43b490fa05d17c6cc9fb74f-ao-12" height="17.24138" width="152.87357" y="601.39083" x="345.00002" stroke="#2D2D2D" fill="#FFEBA2"/>
  <rect id="af3ba5edb43b490fa05d17c6cc9fb74f-ao-13" height="16.09195" width="147.12644" y="627.82761" x="379.48278" stroke="#2D2D2D" fill="#FFEBA2"/>
  <rect id="af3ba5edb43b490fa05d17c6cc9fb74f-ao-14" height="22.98851" width="137.93104" y="595.6437" x="577.18393" stroke="#2D2D2D" fill="#FFEBA2"/>
  <rect id="af3ba5edb43b490fa05d17c6cc9fb74f-ao-15" height="18.3908" width="129.88506" y="540.47128" x="681.78163" stroke="#2D2D2D" fill="#FFEBA2"/>
  <rect id="af3ba5edb43b490fa05d17c6cc9fb74f-ao-16" height="26.43678" width="77.0115" y="462.31036" x="761.09198" stroke="#2D2D2D" fill="#FFEBA2"/>
  <rect id="af3ba5edb43b490fa05d17c6cc9fb74f-ao-17" height="25.28736" width="81.6092" y="378.40232" x="822.01152" stroke="#2D2D2D" fill="#FFEBA2"/>
  <rect id="af3ba5edb43b490fa05d17c6cc9fb74f-ao-18" height="21.83908" width="129.88506" y="256.56323" x="778.33336" stroke="#2D2D2D" fill="#FFEBA2"/>
  <rect id="af3ba5edb43b490fa05d17c6cc9fb74f-ao-19" height="22.98851" width="64.36782" y="218.6322" x="745.00003" stroke="#2D2D2D" fill="#FFEBA2"/>
  <rect id="af3ba5edb43b490fa05d17c6cc9fb74f-ao-20" height="27.58621" width="109.1954" y="179.55174" x="716.26439" stroke="#2D2D2D" fill="#FFEBA2"/>
  <rect id="af3ba5edb43b490fa05d17c6cc9fb74f-ao-21" height="25.28736" width="151.72414" y="78.40231" x="609.36784" stroke="#2D2D2D" fill="#FFEBA2"/>
  <rect id="af3ba5edb43b490fa05d17c6cc9fb74f-ao-22" height="25.28736" width="124.13793" y="117.48277" x="657.6437" stroke="#2D2D2D" fill="#FFEBA2"/>
  <rect id="af3ba5edb43b490fa05d17c6cc9fb74f-ao-23" height="21.83908" width="148.27586" y="46.2184" x="565.68968" stroke="#2D2D2D" fill="#FFEBA2"/>
  <rect id="af3ba5edb43b490fa05d17c6cc9fb74f-ao-24" height="20.68966" width="142.52874" y="9.43679" x="517.41382" stroke="#2D2D2D" fill="#FFEBA2"/>
 </g>
</svg>