<svg xmlns="http://www.w3.org/2000/svg" width="928" height="708">
 <!-- Created with Image Occlusion Enhanced -->
 <g>
  <title>Labels</title>
 </g>
 <g>
  <title>Masks</title>
  <rect id="b4795e7a4acd43949cf140510d9f1427-ao-1" height="20.78313" width="66.86747" y="20.67468" x="198.08431" stroke="#2D2D2D" fill="#FFEBA2"/>
  
  <rect id="b4795e7a4acd43949cf140510d9f1427-ao-3" height="46.98795" width="131.02409" y="98.02408" x="57.12045" stroke="#2D2D2D" fill="#FFEBA2"/>
  <rect id="b4795e7a4acd43949cf140510d9f1427-ao-4" height="37.95181" width="120.18072" y="236.27708" x="750.19273" stroke="#2D2D2D" fill="#FFEBA2"/>
  <rect id="b4795e7a4acd43949cf140510d9f1427-ao-5" height="36.14458" width="112.9518" y="184.77106" x="745.67465" stroke="#2D2D2D" fill="#FFEBA2"/>
  <rect id="b4795e7a4acd43949cf140510d9f1427-ao-6" height="19.87952" width="159.03614" y="109.77106" x="722.18068" stroke="#2D2D2D" fill="#FFEBA2"/>
  <rect id="b4795e7a4acd43949cf140510d9f1427-ao-7" height="21.68675" width="174.39759" y="74.5301" x="696.87947" stroke="#2D2D2D" fill="#FFEBA2"/>
  <rect id="b4795e7a4acd43949cf140510d9f1427-ao-8" height="23.49398" width="153.61445" y="145.01203" x="728.50598" stroke="#2D2D2D" fill="#FFEBA2"/>
  <rect id="b4795e7a4acd43949cf140510d9f1427-ao-9" height="22.59036" width="166.26506" y="345.61443" x="754.7108" stroke="#2D2D2D" fill="#FFEBA2"/>
  <rect id="b4795e7a4acd43949cf140510d9f1427-ao-10" height="18.9759" width="149.09638" y="440.49395" x="736.63851" stroke="#2D2D2D" fill="#FFEBA2"/>
  <rect id="b4795e7a4acd43949cf140510d9f1427-ao-11" height="17.16867" width="177.10843" y="473.92768" x="708.62646" stroke="#2D2D2D" fill="#FFEBA2"/>
  <rect id="b4795e7a4acd43949cf140510d9f1427-ao-12" height="30.72289" width="112.04819" y="510.07226" x="693.26502" stroke="#2D2D2D" fill="#FFEBA2"/>
  <rect id="b4795e7a4acd43949cf140510d9f1427-ao-13" height="24.39759" width="155.42168" y="603.14455" x="635.43369" stroke="#2D2D2D" fill="#FFEBA2"/>
  <rect id="b4795e7a4acd43949cf140510d9f1427-ao-14" height="20.78313" width="255.72289" y="632.96382" x="592.96381" stroke="#2D2D2D" fill="#FFEBA2"/>
  <rect id="b4795e7a4acd43949cf140510d9f1427-ao-15" height="20.78313" width="193.37349" y="670.91563" x="544.16864" stroke="#2D2D2D" fill="#FFEBA2"/>
  <rect id="b4795e7a4acd43949cf140510d9f1427-ao-16" height="17.16867" width="187.9518" y="683.56623" x="183.62648" stroke="#2D2D2D" fill="#FFEBA2"/>
  <rect id="b4795e7a4acd43949cf140510d9f1427-ao-17" height="20.78313" width="279.21686" y="644.71081" x="28.20479" stroke="#2D2D2D" fill="#FFEBA2"/>
  <rect id="b4795e7a4acd43949cf140510d9f1427-ao-18" height="18.07229" width="157.22891" y="613.0843" x="116.75901" stroke="#2D2D2D" fill="#FFEBA2"/>
  <rect id="b4795e7a4acd43949cf140510d9f1427-ao-19" height="24.39759" width="173.49397" y="573.32527" x="60.73491" stroke="#2D2D2D" fill="#FFEBA2"/>
  <rect id="b4795e7a4acd43949cf140510d9f1427-ao-20" height="54.21687" width="179.81927" y="502.84334" x="7.42166" stroke="#2D2D2D" fill="#FFEBA2"/>
  <rect id="b4795e7a4acd43949cf140510d9f1427-ao-21" height="51.50602" width="134.63855" y="433.26503" x="29.10841" stroke="#2D2D2D" fill="#FFEBA2"/>
  <rect id="b4795e7a4acd43949cf140510d9f1427-ao-22" height="24.39759" width="121.98795" y="377.24094" x="45.37347" stroke="#2D2D2D" fill="#FFEBA2"/>
 </g>
</svg>