<svg xmlns="http://www.w3.org/2000/svg" width="778" height="797">
 <!-- Created with Image Occlusion Enhanced -->
 <g>
  <title>Labels</title>
 </g>
 <g>
  <title>Masks</title>
  <rect id="b696165006dd46d2abaa277eef1828a2-ao-1" height="28.88514" width="126.18244" y="109.08105" x="548.13179" stroke="#2D2D2D" fill="#FFEBA2"/>
  <rect id="b696165006dd46d2abaa277eef1828a2-ao-2" height="13.68243" width="62.33108" y="87.79726" x="494.16219" stroke="#2D2D2D" fill="#FFEBA2"/>
  <rect id="b696165006dd46d2abaa277eef1828a2-ao-3" height="14.44257" width="66.89189" y="59.67226" x="456.91557" stroke="#2D2D2D" fill="#FF7E7E" class="qshape"/>
  <rect id="b696165006dd46d2abaa277eef1828a2-ao-4" height="17.48311" width="66.13176" y="30.02699" x="428.79057" stroke="#2D2D2D" fill="#FFEBA2"/>
  <rect id="b696165006dd46d2abaa277eef1828a2-ao-5" height="12.9223" width="98.05743" y="55.11145" x="256.23989" stroke="#2D2D2D" fill="#FFEBA2"/>
  <rect id="b696165006dd46d2abaa277eef1828a2-ao-6" height="35.72635" width="172.55068" y="66.51348" x="68.48651" stroke="#2D2D2D" fill="#FFEBA2"/>
  <rect id="b696165006dd46d2abaa277eef1828a2-ao-7" height="14.44257" width="170.27027" y="113.64186" x="61.64529" stroke="#2D2D2D" fill="#FFEBA2"/>
  <rect id="b696165006dd46d2abaa277eef1828a2-ao-8" height="41.80743" width="122.38176" y="145.56753" x="79.88853" stroke="#2D2D2D" fill="#FFEBA2"/>
  <rect id="b696165006dd46d2abaa277eef1828a2-ao-9" height="18.24324" width="88.17568" y="203.3378" x="95.09124" stroke="#2D2D2D" fill="#FFEBA2"/>
  <rect id="b696165006dd46d2abaa277eef1828a2-ao-10" height="16.72297" width="99.57771" y="239.82429" x="68.48651" stroke="#2D2D2D" fill="#FFEBA2"/>
  <rect id="b696165006dd46d2abaa277eef1828a2-ao-11" height="36.48649" width="121.62162" y="340.16213" x="22.8784" stroke="#2D2D2D" fill="#FFEBA2"/>
  <rect id="b696165006dd46d2abaa277eef1828a2-ao-12" height="41.0473" width="114.78041" y="277.07091" x="60.88516" stroke="#2D2D2D" fill="#FFEBA2"/>
  <rect id="b696165006dd46d2abaa277eef1828a2-ao-13" height="17.48311" width="96.53716" y="401.73308" x="25.91894" stroke="#2D2D2D" fill="#FFEBA2"/>
  <rect id="b696165006dd46d2abaa277eef1828a2-ao-14" height="16.72297" width="91.21622" y="438.9797" x="52.52367" stroke="#2D2D2D" fill="#FFEBA2"/>
  <rect id="b696165006dd46d2abaa277eef1828a2-ao-15" height="17.48311" width="81.33446" y="473.94592" x="61.64529" stroke="#2D2D2D" fill="#FFEBA2"/>
  <rect id="b696165006dd46d2abaa277eef1828a2-ao-16" height="18.24324" width="79.81419" y="507.39187" x="61.64529" stroke="#2D2D2D" fill="#FFEBA2"/>
  <rect id="b696165006dd46d2abaa277eef1828a2-ao-17" height="16.72297" width="89.69595" y="545.39862" x="54.04394" stroke="#2D2D2D" fill="#FFEBA2"/>
  <rect id="b696165006dd46d2abaa277eef1828a2-ao-18" height="15.96284" width="54.72973" y="579.60471" x="92.0507" stroke="#2D2D2D" fill="#FFEBA2"/>
  <rect id="b696165006dd46d2abaa277eef1828a2-ao-19" height="14.44257" width="91.21622" y="618.3716" x="98.89191" stroke="#2D2D2D" fill="#FFEBA2"/>
  <rect id="b696165006dd46d2abaa277eef1828a2-ao-20" height="20.52365" width="103.37838" y="650.29727" x="98.13178" stroke="#2D2D2D" fill="#FFEBA2"/>
  <rect id="b696165006dd46d2abaa277eef1828a2-ao-21" height="16.72297" width="48.64865" y="688.30403" x="158.94259" stroke="#2D2D2D" fill="#FFEBA2"/>
  <rect id="b696165006dd46d2abaa277eef1828a2-ao-22" height="16.72297" width="56.25" y="722.51011" x="163.5034" stroke="#2D2D2D" fill="#FFEBA2"/>
  <rect id="b696165006dd46d2abaa277eef1828a2-ao-23" height="15.2027" width="85.89527" y="761.27701" x="137.65881" stroke="#2D2D2D" fill="#FFEBA2"/>
 </g>
</svg>