<svg xmlns="http://www.w3.org/2000/svg" width="721" height="790">
 <!-- Created with Image Occlusion Enhanced -->
 <g>
  <title>Labels</title>
 </g>
 <g>
  <title>Masks</title>
  
  <rect id="ba73855dd9374832bcf67cbf2e63b14c-ao-2" height="22" width="99" y="76.8" x="518.2" stroke="#2D2D2D" fill="#FFEBA2"/>
  <rect id="ba73855dd9374832bcf67cbf2e63b14c-ao-3" height="28" width="72" y="285.8" x="615.2" stroke="#2D2D2D" fill="#FFEBA2"/>
  <rect id="ba73855dd9374832bcf67cbf2e63b14c-ao-4" height="15" width="78" y="347.8" x="554.2" stroke="#2D2D2D" fill="#FFEBA2"/>
  <rect id="ba73855dd9374832bcf67cbf2e63b14c-ao-5" height="15" width="100" y="378.8" x="549.2" stroke="#2D2D2D" fill="#FFEBA2"/>
  <rect id="ba73855dd9374832bcf67cbf2e63b14c-ao-6" height="26" width="82" y="410.8" x="553.2" stroke="#2D2D2D" fill="#FFEBA2"/>
  <rect id="ba73855dd9374832bcf67cbf2e63b14c-ao-7" height="20" width="82" y="450.8" x="552.2" stroke="#2D2D2D" fill="#FFEBA2"/>
  <rect id="ba73855dd9374832bcf67cbf2e63b14c-ao-8" height="21" width="79" y="515.8" x="549.2" stroke="#2D2D2D" fill="#FFEBA2"/>
  <rect id="ba73855dd9374832bcf67cbf2e63b14c-ao-9" height="17" width="69" y="106.8" x="44.2" stroke="#2D2D2D" fill="#FFEBA2"/>
  <rect id="ba73855dd9374832bcf67cbf2e63b14c-ao-10" height="14" width="69" y="140.8" x="58.2" stroke="#2D2D2D" fill="#FFEBA2"/>
  <rect id="ba73855dd9374832bcf67cbf2e63b14c-ao-11" height="17" width="92" y="174.8" x="43.2" stroke="#2D2D2D" fill="#FFEBA2"/>
  <rect id="ba73855dd9374832bcf67cbf2e63b14c-ao-12" height="12" width="128" y="210.8" x="21.2" stroke="#2D2D2D" fill="#FFEBA2"/>
  <rect id="ba73855dd9374832bcf67cbf2e63b14c-ao-13" height="18" width="119" y="346.8" x="66.2" stroke="#2D2D2D" fill="#FFEBA2"/>
  <rect id="ba73855dd9374832bcf67cbf2e63b14c-ao-14" height="17" width="76" y="380.8" x="109.2" stroke="#2D2D2D" fill="#FFEBA2"/>
  <rect id="ba73855dd9374832bcf67cbf2e63b14c-ao-15" height="50" width="155" y="409.8" x="28.2" stroke="#2D2D2D" fill="#FFEBA2"/>
  <rect id="ba73855dd9374832bcf67cbf2e63b14c-ao-16" height="19" width="110" y="474.8" x="56.2" stroke="#2D2D2D" fill="#FFEBA2"/>
  <rect id="ba73855dd9374832bcf67cbf2e63b14c-ao-17" height="16" width="59" y="504.8" x="74.2" stroke="#2D2D2D" fill="#FFEBA2"/>
  <rect id="ba73855dd9374832bcf67cbf2e63b14c-ao-18" height="15" width="152" y="724.8" x="88.2" stroke="#2D2D2D" fill="#FFEBA2"/>
  <rect id="ba73855dd9374832bcf67cbf2e63b14c-ao-19" height="12" width="83" y="774.8" x="231.2" stroke="#2D2D2D" fill="#FFEBA2"/>
  <rect id="ba73855dd9374832bcf67cbf2e63b14c-ao-20" height="43" width="196" y="722.8" x="412.2" stroke="#2D2D2D" fill="#FFEBA2"/>
 </g>
</svg>