<svg xmlns="http://www.w3.org/2000/svg" width="688" height="842">
 <!-- Created with Image Occlusion Enhanced -->
 <g>
  <title>Labels</title>
 </g>
 <g>
  <title>Masks</title>
  <rect id="be2a8a9bc7d844b498e28b67677c3768-ao-1" height="12.65625" width="39.17411" y="91.79015" x="84.15182" stroke="#2D2D2D" fill="#FFEBA2"/>
  <rect id="be2a8a9bc7d844b498e28b67677c3768-ao-2" height="13.25893" width="32.54464" y="32.72764" x="95.00004" stroke="#2D2D2D" fill="#FFEBA2"/>
  <rect id="be2a8a9bc7d844b498e28b67677c3768-ao-3" height="12.65625" width="43.39286" y="123.73211" x="91.98665" stroke="#2D2D2D" fill="#FFEBA2"/>
  <rect id="be2a8a9bc7d844b498e28b67677c3768-ao-4" height="12.05357" width="61.47322" y="143.01783" x="52.81254" stroke="#2D2D2D" fill="#FFEBA2"/>
  <rect id="be2a8a9bc7d844b498e28b67677c3768-ao-5" height="10.24554" width="78.34822" y="164.11158" x="28.70539" stroke="#2D2D2D" fill="#FFEBA2"/>
  <rect id="be2a8a9bc7d844b498e28b67677c3768-ao-6" height="10.84821" width="45.2009" y="179.17854" x="61.85272" stroke="#2D2D2D" fill="#FFEBA2"/>
  <rect id="be2a8a9bc7d844b498e28b67677c3768-ao-7" height="9.64286" width="70.5134" y="193.04015" x="34.1295" stroke="#2D2D2D" fill="#FFEBA2"/>
  <rect id="be2a8a9bc7d844b498e28b67677c3768-ao-8" height="12.05357" width="83.16965" y="210.51783" x="23.28129" stroke="#2D2D2D" fill="#FFEBA2"/>
  <rect id="be2a8a9bc7d844b498e28b67677c3768-ao-9" height="10.24554" width="61.47322" y="226.79015" x="42.567" stroke="#2D2D2D" fill="#FFEBA2"/>
  <rect id="be2a8a9bc7d844b498e28b67677c3768-ao-10" height="11.45089" width="37.36607" y="250.8973" x="82.34379" stroke="#2D2D2D" fill="#FFEBA2"/>
  <rect id="be2a8a9bc7d844b498e28b67677c3768-ao-11" height="12.05357" width="59.0625" y="271.99105" x="57.03129" stroke="#2D2D2D" fill="#FFEBA2"/>
  <rect id="be2a8a9bc7d844b498e28b67677c3768-ao-12" height="13.25893" width="81.96429" y="372.0357" x="60.64736" stroke="#2D2D2D" fill="#FFEBA2"/>
  <rect id="be2a8a9bc7d844b498e28b67677c3768-ao-13" height="21.69643" width="41.58482" y="265.96426" x="205.8929" stroke="#2D2D2D" fill="#FFEBA2"/>
  <rect id="be2a8a9bc7d844b498e28b67677c3768-ao-14" height="10.84821" width="41.58482" y="294.89284" x="219.75451" stroke="#2D2D2D" fill="#FFEBA2"/>
  <rect id="be2a8a9bc7d844b498e28b67677c3768-ao-15" height="11.45089" width="72.32143" y="310.56248" x="261.94201" stroke="#2D2D2D" fill="#FFEBA2"/>
  <rect id="be2a8a9bc7d844b498e28b67677c3768-ao-16" height="11.45089" width="69.91072" y="285.24998" x="272.79023" stroke="#2D2D2D" fill="#FFEBA2"/>
  <rect id="be2a8a9bc7d844b498e28b67677c3768-ao-17" height="12.65625" width="30.73661" y="246.67855" x="298.10273" stroke="#2D2D2D" fill="#FFEBA2"/>
  <rect id="be2a8a9bc7d844b498e28b67677c3768-ao-18" height="12.65625" width="63.88393" y="265.96426" x="281.83041" stroke="#2D2D2D" fill="#FFEBA2"/>
  <rect id="be2a8a9bc7d844b498e28b67677c3768-ao-19" height="11.45089" width="74.73215" y="589.60267" x="318.5938" stroke="#2D2D2D" fill="#FFEBA2"/>
  <rect id="be2a8a9bc7d844b498e28b67677c3768-ao-20" height="10.84821" width="59.66518" y="695.07143" x="96.2054" stroke="#2D2D2D" fill="#FFEBA2"/>
  <rect id="be2a8a9bc7d844b498e28b67677c3768-ao-21" height="12.05357" width="62.0759" y="715.5625" x="89.57593" stroke="#2D2D2D" fill="#FFEBA2"/>
  <rect id="be2a8a9bc7d844b498e28b67677c3768-ao-22" height="18.68304" width="83.77233" y="742.08036" x="69.08486" stroke="#2D2D2D" fill="#FFEBA2"/>
  <rect id="be2a8a9bc7d844b498e28b67677c3768-ao-23" height="10.24554" width="38.57143" y="717.97321" x="296.89737" stroke="#2D2D2D" fill="#FFEBA2"/>
  <rect id="be2a8a9bc7d844b498e28b67677c3768-ao-24" height="10.84821" width="36.16072" y="738.46429" x="294.48666" stroke="#2D2D2D" fill="#FFEBA2"/>
  <rect id="be2a8a9bc7d844b498e28b67677c3768-ao-25" height="13.25893" width="65.08929" y="751.72322" x="263.75005" stroke="#2D2D2D" fill="#FFEBA2"/>
  <rect id="be2a8a9bc7d844b498e28b67677c3768-ao-26" height="12.05357" width="54.84375" y="734.24554" x="345.11166" stroke="#2D2D2D" fill="#FFEBA2"/>
  <rect id="be2a8a9bc7d844b498e28b67677c3768-ao-27" height="11.45089" width="46.40625" y="719.78125" x="389.70988" stroke="#2D2D2D" fill="#FFEBA2"/>
  <rect id="be2a8a9bc7d844b498e28b67677c3768-ao-28" height="12.05357" width="81.96429" y="695.07143" x="346.31702" stroke="#2D2D2D" fill="#FFEBA2"/>
  <rect id="be2a8a9bc7d844b498e28b67677c3768-ao-29" height="20.49107" width="61.47322" y="628.1741" x="356.56255" stroke="#2D2D2D" fill="#FFEBA2"/>
  <rect id="be2a8a9bc7d844b498e28b67677c3768-ao-30" height="12.65625" width="37.96875" y="615.51785" x="557.25453" stroke="#2D2D2D" fill="#FFEBA2"/>
  <rect id="be2a8a9bc7d844b498e28b67677c3768-ao-31" height="11.45089" width="115.71429" y="634.80357" x="557.25453" stroke="#2D2D2D" fill="#FFEBA2"/>
  
  <rect id="be2a8a9bc7d844b498e28b67677c3768-ao-33" height="12.05357" width="81.96429" y="492.57142" x="557.85721" stroke="#2D2D2D" fill="#FFEBA2"/>
  <rect id="be2a8a9bc7d844b498e28b67677c3768-ao-34" height="9.64286" width="71.71875" y="473.88838" x="558.45988" stroke="#2D2D2D" fill="#FFEBA2"/>
  <rect id="be2a8a9bc7d844b498e28b67677c3768-ao-35" height="12.65625" width="65.08929" y="454.60266" x="557.25453" stroke="#2D2D2D" fill="#FFEBA2"/>
  <rect id="be2a8a9bc7d844b498e28b67677c3768-ao-36" height="13.86161" width="72.32143" y="418.44195" x="560.26792" stroke="#2D2D2D" fill="#FFEBA2"/>
  <rect id="be2a8a9bc7d844b498e28b67677c3768-ao-37" height="12.65625" width="115.11161" y="390.71873" x="559.66524" stroke="#2D2D2D" fill="#FFEBA2"/>
  <rect id="be2a8a9bc7d844b498e28b67677c3768-ao-38" height="15.06697" width="62.67857" y="347.32587" x="569.3081" stroke="#2D2D2D" fill="#FFEBA2"/>
  <rect id="be2a8a9bc7d844b498e28b67677c3768-ao-39" height="10.24554" width="69.91072" y="318.99998" x="578.95096" stroke="#2D2D2D" fill="#FFEBA2"/>
  <rect id="be2a8a9bc7d844b498e28b67677c3768-ao-40" height="10.84821" width="74.73215" y="300.31694" x="578.95096" stroke="#2D2D2D" fill="#FFEBA2"/>
  <rect id="be2a8a9bc7d844b498e28b67677c3768-ao-41" height="10.84821" width="49.41965" y="279.22319" x="589.19649" stroke="#2D2D2D" fill="#FFEBA2"/>
  <rect id="be2a8a9bc7d844b498e28b67677c3768-ao-42" height="10.84821" width="42.79018" y="251.49998" x="590.40185" stroke="#2D2D2D" fill="#FFEBA2"/>
  <rect id="be2a8a9bc7d844b498e28b67677c3768-ao-43" height="9.64286" width="77.14286" y="232.21426" x="332.45541" stroke="#2D2D2D" fill="#FFEBA2"/>
  <rect id="be2a8a9bc7d844b498e28b67677c3768-ao-44" height="8.4375" width="75.9375" y="249.08926" x="346.9197" stroke="#2D2D2D" fill="#FFEBA2"/>
  <rect id="be2a8a9bc7d844b498e28b67677c3768-ao-45" height="10.24554" width="77.74554" y="262.95087" x="372.83488" stroke="#2D2D2D" fill="#FFEBA2"/>
  <rect id="be2a8a9bc7d844b498e28b67677c3768-ao-46" height="19.88839" width="113.30358" y="279.82587" x="362.58934" stroke="#2D2D2D" fill="#FFEBA2"/>
  <rect id="be2a8a9bc7d844b498e28b67677c3768-ao-47" height="9.04018" width="84.97768" y="308.15176" x="405.37952" stroke="#2D2D2D" fill="#FFEBA2"/>
  <rect id="be2a8a9bc7d844b498e28b67677c3768-ao-48" height="13.25893" width="77.14286" y="203.88837" x="607.87953" stroke="#2D2D2D" fill="#FFEBA2"/>
  <rect id="be2a8a9bc7d844b498e28b67677c3768-ao-49" height="9.64286" width="66.29465" y="183.99997" x="601.85274" stroke="#2D2D2D" fill="#FFEBA2"/>
  <rect id="be2a8a9bc7d844b498e28b67677c3768-ao-50" height="10.24554" width="78.34822" y="169.53569" x="588.59381" stroke="#2D2D2D" fill="#FFEBA2"/>
  <rect id="be2a8a9bc7d844b498e28b67677c3768-ao-51" height="10.84821" width="78.9509" y="155.67408" x="586.1831" stroke="#2D2D2D" fill="#FFEBA2"/>
  <rect id="be2a8a9bc7d844b498e28b67677c3768-ao-52" height="10.24554" width="60.87054" y="140.00443" x="588.59381" stroke="#2D2D2D" fill="#FFEBA2"/>
  <rect id="be2a8a9bc7d844b498e28b67677c3768-ao-53" height="13.25893" width="39.77679" y="108.66515" x="598.23667" stroke="#2D2D2D" fill="#FFEBA2"/>
  <rect id="be2a8a9bc7d844b498e28b67677c3768-ao-54" height="9.64286" width="72.92411" y="94.80354" x="600.04471" stroke="#2D2D2D" fill="#FFEBA2"/>
  <rect id="be2a8a9bc7d844b498e28b67677c3768-ao-55" height="12.05357" width="64.48661" y="35.13836" x="598.83935" stroke="#2D2D2D" fill="#FFEBA2"/>
  <rect id="be2a8a9bc7d844b498e28b67677c3768-ao-56" height="7.23214" width="80.15625" y="3.19639" x="450.58041" stroke="#2D2D2D" fill="#FFEBA2"/>
 </g>
</svg>