<svg xmlns="http://www.w3.org/2000/svg" width="1153" height="613">
 <!-- Created with Image Occlusion Enhanced -->
 <g>
  <title>Labels</title>
 </g>
 <g>
  <title>Masks</title>
  <rect id="c7d731389e7d4c75971212402735577f-ao-1" height="21.875" width="165.62501" y="169.50003" x="634.29166" stroke="#2D2D2D" fill="#FFEBA2"/>
  <rect id="c7d731389e7d4c75971212402735577f-ao-2" height="22.91667" width="156.25001" y="529.9167" x="470.74999" stroke="#2D2D2D" fill="#FFEBA2"/>
  <rect id="c7d731389e7d4c75971212402735577f-ao-3" height="23.95833" width="122.91667" y="228.87503" x="674.91666" stroke="#2D2D2D" fill="#FFEBA2"/>
  <rect id="c7d731389e7d4c75971212402735577f-ao-4" height="23.95833" width="118.75" y="-0.29165" x="247.83331" stroke="#2D2D2D" fill="#FFEBA2"/>
  <rect id="c7d731389e7d4c75971212402735577f-ao-5" height="25" width="177.08334" y="261.1667" x="672.83333" stroke="#2D2D2D" fill="#FFEBA2"/>
  <rect id="c7d731389e7d4c75971212402735577f-ao-6" height="22.91667" width="160.41667" y="288.25003" x="9.29164" stroke="#2D2D2D" fill="#FFEBA2"/>
  
  <rect id="c7d731389e7d4c75971212402735577f-ao-8" height="19.79167" width="88.54167" y="402.83337" x="670.75" stroke="#2D2D2D" fill="#FFEBA2"/>
  <rect id="c7d731389e7d4c75971212402735577f-ao-9" height="27.08333" width="166.66667" y="334.08336" x="675.95833" stroke="#2D2D2D" fill="#FFEBA2"/>
  <rect id="c7d731389e7d4c75971212402735577f-ao-10" height="20.83333" width="141.66667" y="2.83335" x="424.91665" stroke="#2D2D2D" fill="#FFEBA2"/>
  <rect id="c7d731389e7d4c75971212402735577f-ao-11" height="27.08333" width="45.83333" y="90.33336" x="573.87499" stroke="#2D2D2D" fill="#FFEBA2"/>
  <rect id="c7d731389e7d4c75971212402735577f-ao-12" height="21.875" width="166.66667" y="37.20835" x="519.70832" stroke="#2D2D2D" fill="#FFEBA2"/>
  <rect id="c7d731389e7d4c75971212402735577f-ao-13" height="20.83333" width="184.37501" y="32.00002" x="106.16664" stroke="#2D2D2D" fill="#FFEBA2"/>
  <rect id="c7d731389e7d4c75971212402735577f-ao-14" height="21.875" width="191.66667" y="100.75002" x="17.62497" stroke="#2D2D2D" fill="#FFEBA2"/>
  <rect id="c7d731389e7d4c75971212402735577f-ao-15" height="23.95833" width="177.08334" y="62.20836" x="74.91664" stroke="#2D2D2D" fill="#FFEBA2"/>
  <rect id="c7d731389e7d4c75971212402735577f-ao-16" height="20.83333" width="180.20834" y="128.87502" x="13.45831" stroke="#2D2D2D" fill="#FFEBA2"/>
  <rect id="c7d731389e7d4c75971212402735577f-ao-17" height="18.75" width="126.04167" y="154.91669" x="71.79164" stroke="#2D2D2D" fill="#FFEBA2"/>
  <rect id="c7d731389e7d4c75971212402735577f-ao-18" height="23.95833" width="114.58334" y="190.33336" x="61.37498" stroke="#2D2D2D" fill="#FFEBA2"/>
  <rect id="c7d731389e7d4c75971212402735577f-ao-19" height="20.83333" width="56.25" y="240.33336" x="115.54164" stroke="#2D2D2D" fill="#FFEBA2"/>
  <rect id="c7d731389e7d4c75971212402735577f-ao-20" height="26.04167" width="118.75" y="415.33337" x="110.33331" stroke="#2D2D2D" fill="#FFEBA2"/>
  <rect id="c7d731389e7d4c75971212402735577f-ao-21" height="20.83333" width="206.25001" y="495.5417" x="57.20831" stroke="#2D2D2D" fill="#FFEBA2"/>
  <rect id="c7d731389e7d4c75971212402735577f-ao-22" height="22.91667" width="83.33334" y="532.00004" x="309.29165" stroke="#2D2D2D" fill="#FFEBA2"/>
  <rect id="c7d731389e7d4c75971212402735577f-ao-23" height="27.08333" width="127.08334" y="453.87504" x="634.29166" stroke="#2D2D2D" fill="#FFEBA2"/>
  <rect id="c7d731389e7d4c75971212402735577f-ao-24" height="20.83333" width="210.41667" y="502.83337" x="592.62499" stroke="#2D2D2D" fill="#FFEBA2"/>
 </g>
</svg>