<svg xmlns="http://www.w3.org/2000/svg" width="713" height="801">
 <!-- Created with Image Occlusion Enhanced -->
 <g>
  <title>Labels</title>
 </g>
 <g>
  <title>Masks</title>
  <rect id="c969be6f7f4c4123ac13b115f4bec574-ao-1" height="18.24324" width="50.67568" y="32.3108" x="87.87836" stroke="#2D2D2D" fill="#FFEBA2"/>
  <rect id="c969be6f7f4c4123ac13b115f4bec574-ao-2" height="20.27027" width="86.14865" y="114.4054" x="54.43241" stroke="#2D2D2D" fill="#FFEBA2"/>
  <rect id="c969be6f7f4c4123ac13b115f4bec574-ao-3" height="16.21622" width="137.83784" y="5.95945" x="545.98646" stroke="#2D2D2D" fill="#FFEBA2"/>
  <rect id="c969be6f7f4c4123ac13b115f4bec574-ao-4" height="21.28378" width="92.22973" y="40.41891" x="546.99998" stroke="#2D2D2D" fill="#FFEBA2"/>
  <rect id="c969be6f7f4c4123ac13b115f4bec574-ao-5" height="18.24324" width="91.21622" y="146.83783" x="548.01349" stroke="#2D2D2D" fill="#FFEBA2"/>
  <rect id="c969be6f7f4c4123ac13b115f4bec574-ao-6" height="17.22973" width="136.82432" y="182.3108" x="545.98646" stroke="#2D2D2D" fill="#FFEBA2"/>
  <rect id="c969be6f7f4c4123ac13b115f4bec574-ao-7" height="15.2027" width="131.75676" y="215.75675" x="545.98646" stroke="#2D2D2D" fill="#FFEBA2"/>
  <rect id="c969be6f7f4c4123ac13b115f4bec574-ao-8" height="13.17568" width="135.81081" y="251.22972" x="544.97295" stroke="#2D2D2D" fill="#FFEBA2"/>
  <rect id="c969be6f7f4c4123ac13b115f4bec574-ao-9" height="15.2027" width="98.31081" y="285.68918" x="544.97295" stroke="#2D2D2D" fill="#FFEBA2"/>
  <rect id="c969be6f7f4c4123ac13b115f4bec574-ao-10" height="29.39189" width="82.09459" y="314.06756" x="545.98646" stroke="#2D2D2D" fill="#FFEBA2"/>
  
  <rect id="c969be6f7f4c4123ac13b115f4bec574-ao-12" height="19.25676" width="78.04054" y="390.08107" x="544.97295" stroke="#2D2D2D" fill="#FFEBA2"/>
  <rect id="c969be6f7f4c4123ac13b115f4bec574-ao-13" height="18.24324" width="103.37838" y="420.48648" x="549.027" stroke="#2D2D2D" fill="#FFEBA2"/>
  <rect id="c969be6f7f4c4123ac13b115f4bec574-ao-14" height="18.24324" width="62.83784" y="457.98647" x="568.28376" stroke="#2D2D2D" fill="#FFEBA2"/>
  <rect id="c969be6f7f4c4123ac13b115f4bec574-ao-15" height="16.21622" width="67.9054" y="156.97296" x="68.6216" stroke="#2D2D2D" fill="#FFEBA2"/>
  <rect id="c969be6f7f4c4123ac13b115f4bec574-ao-16" height="16.21622" width="72.97297" y="199.54053" x="68.6216" stroke="#2D2D2D" fill="#FFEBA2"/>
  <rect id="c969be6f7f4c4123ac13b115f4bec574-ao-17" height="37.5" width="188.51351" y="722.5135" x="464.90538" stroke="#2D2D2D" fill="#FFEBA2"/>
  <rect id="c969be6f7f4c4123ac13b115f4bec574-ao-18" height="29.39189" width="90.2027" y="645.48647" x="606.79727" stroke="#2D2D2D" fill="#FFEBA2"/>
  <rect id="c969be6f7f4c4123ac13b115f4bec574-ao-19" height="16.21622" width="84.12162" y="696.16215" x="558.14863" stroke="#2D2D2D" fill="#FFEBA2"/>
  <rect id="c969be6f7f4c4123ac13b115f4bec574-ao-20" height="15.2027" width="61.82432" y="559.33783" x="645.31079" stroke="#2D2D2D" fill="#FFEBA2"/>
 </g>
</svg>