<svg xmlns="http://www.w3.org/2000/svg" width="787" height="838">
 <!-- Created with Image Occlusion Enhanced -->
 <g>
  <title>Labels</title>
 </g>
 <g>
  <title>Masks</title>
  <rect id="d416f14cb89849bfa093d31d9146cdb1-ao-1" height="15.06696" width="77.14286" y="5.26788" x="414.37947" stroke="#2D2D2D" fill="#FFEBA2"/>
  <rect id="d416f14cb89849bfa093d31d9146cdb1-ao-2" height="18.68304" width="108.48215" y="2.25448" x="270.94196" stroke="#2D2D2D" fill="#FFEBA2"/>
  <rect id="d416f14cb89849bfa093d31d9146cdb1-ao-3" height="13.25893" width="68.70536" y="39.01788" x="284.80357" stroke="#2D2D2D" fill="#FFEBA2"/>
  <rect id="d416f14cb89849bfa093d31d9146cdb1-ao-4" height="16.27232" width="68.70536" y="64.93306" x="252.8616" stroke="#2D2D2D" fill="#FFEBA2"/>
  <rect id="d416f14cb89849bfa093d31d9146cdb1-ao-5" height="19.28571" width="95.82589" y="94.46431" x="154.625" stroke="#2D2D2D" fill="#FFEBA2"/>
  <rect id="d416f14cb89849bfa093d31d9146cdb1-ao-6" height="15.06696" width="91.00447" y="126.40627" x="134.7366" stroke="#2D2D2D" fill="#FFEBA2"/>
  <rect id="d416f14cb89849bfa093d31d9146cdb1-ao-7" height="13.86161" width="95.82589" y="160.15627" x="102.79464" stroke="#2D2D2D" fill="#FFEBA2"/>
  <rect id="d416f14cb89849bfa093d31d9146cdb1-ao-8" height="16.27232" width="103.66072" y="189.08484" x="76.87946" stroke="#2D2D2D" fill="#FFEBA2"/>
  <rect id="d416f14cb89849bfa093d31d9146cdb1-ao-9" height="15.06696" width="129.5759" y="218.01342" x="37.10267" stroke="#2D2D2D" fill="#FFEBA2"/>
  <rect id="d416f14cb89849bfa093d31d9146cdb1-ao-10" height="16.27232" width="122.34375" y="248.75002" x="34.08928" stroke="#2D2D2D" fill="#FFEBA2"/>
  <rect id="d416f14cb89849bfa093d31d9146cdb1-ao-11" height="27.72321" width="86.78572" y="568.77235" x="60.00446" stroke="#2D2D2D" fill="#FFEBA2"/>
  <rect id="d416f14cb89849bfa093d31d9146cdb1-ao-12" height="18.08036" width="137.41072" y="610.95985" x="23.84374" stroke="#2D2D2D" fill="#FFEBA2"/>
  <rect id="d416f14cb89849bfa093d31d9146cdb1-ao-13" height="17.47768" width="159.10715" y="643.5045" x="15.40624" stroke="#2D2D2D" fill="#FFEBA2"/>
  <rect id="d416f14cb89849bfa093d31d9146cdb1-ao-14" height="14.46429" width="88.59375" y="670.62503" x="115.45089" stroke="#2D2D2D" fill="#FFEBA2"/>
  <rect id="d416f14cb89849bfa093d31d9146cdb1-ao-15" height="15.66964" width="101.25" y="694.1295" x="143.1741" stroke="#2D2D2D" fill="#FFEBA2"/>
  <rect id="d416f14cb89849bfa093d31d9146cdb1-ao-16" height="16.875" width="51.83036" y="715.82593" x="244.4241" stroke="#2D2D2D" fill="#FFEBA2"/>
  <rect id="d416f14cb89849bfa093d31d9146cdb1-ao-17" height="14.46429" width="58.45982" y="738.72771" x="284.20089" stroke="#2D2D2D" fill="#FFEBA2"/>
  <rect id="d416f14cb89849bfa093d31d9146cdb1-ao-18" height="16.875" width="79.55357" y="820.08932" x="399.3125" stroke="#2D2D2D" fill="#FFEBA2"/>
  <rect id="d416f14cb89849bfa093d31d9146cdb1-ao-19" height="17.47768" width="116.91965" y="790.55807" x="434.26786" stroke="#2D2D2D" fill="#FFEBA2"/>
  <rect id="d416f14cb89849bfa093d31d9146cdb1-ao-20" height="19.88839" width="70.51339" y="729.08486" x="502.97322" stroke="#2D2D2D" fill="#FFEBA2"/>
  <rect id="d416f14cb89849bfa093d31d9146cdb1-ao-21" height="14.46429" width="59.66518" y="703.16968" x="540.33929" stroke="#2D2D2D" fill="#FFEBA2"/>
  <rect id="d416f14cb89849bfa093d31d9146cdb1-ao-22" height="27.12054" width="106.07143" y="659.17414" x="590.36161" stroke="#2D2D2D" fill="#FFEBA2"/>
  <rect id="d416f14cb89849bfa093d31d9146cdb1-ao-23" height="16.875" width="129.5759" y="629.64289" x="622.30358" stroke="#2D2D2D" fill="#FFEBA2"/>
  <rect id="d416f14cb89849bfa093d31d9146cdb1-ao-24" height="16.875" width="80.75893" y="483.79467" x="658.46429" stroke="#2D2D2D" fill="#FFEBA2"/>
  <rect id="d416f14cb89849bfa093d31d9146cdb1-ao-25" height="18.08036" width="80.15625" y="554.91075" x="651.83483" stroke="#2D2D2D" fill="#FFEBA2"/>
  <rect id="d416f14cb89849bfa093d31d9146cdb1-ao-26" height="16.875" width="88.59375" y="454.26342" x="653.64286" stroke="#2D2D2D" fill="#FFEBA2"/>
  <rect id="d416f14cb89849bfa093d31d9146cdb1-ao-27" height="45.80357" width="89.79911" y="386.16074" x="655.4509" stroke="#2D2D2D" fill="#FFEBA2"/>
  <rect id="d416f14cb89849bfa093d31d9146cdb1-ao-28" height="15.06696" width="42.1875" y="354.82145" x="651.83483" stroke="#2D2D2D" fill="#FFEBA2"/>
  <rect id="d416f14cb89849bfa093d31d9146cdb1-ao-29" height="18.08036" width="72.92411" y="283.70538" x="640.38393" stroke="#2D2D2D" fill="#FFEBA2"/>
  <rect id="d416f14cb89849bfa093d31d9146cdb1-ao-30" height="17.47768" width="100.04465" y="249.3527" x="632.54911" stroke="#2D2D2D" fill="#FFEBA2"/>
  <rect id="d416f14cb89849bfa093d31d9146cdb1-ao-31" height="15.66964" width="59.66518" y="213.79467" x="624.71429" stroke="#2D2D2D" fill="#FFEBA2"/>
  <rect id="d416f14cb89849bfa093d31d9146cdb1-ao-32" height="19.88839" width="157.90179" y="178.23663" x="606.63393" stroke="#2D2D2D" fill="#FFEBA2"/>
  <rect id="d416f14cb89849bfa093d31d9146cdb1-ao-33" height="17.47768" width="108.48215" y="147.50002" x="586.14286" stroke="#2D2D2D" fill="#FFEBA2"/>
  <rect id="d416f14cb89849bfa093d31d9146cdb1-ao-34" height="15.66964" width="54.84375" y="120.98216" x="556.00893" stroke="#2D2D2D" fill="#FFEBA2"/>
  
  <rect id="d416f14cb89849bfa093d31d9146cdb1-ao-36" height="16.875" width="77.14286" y="32.38841" x="440.89732" stroke="#2D2D2D" fill="#FFEBA2"/>
 </g>
</svg>