<svg xmlns="http://www.w3.org/2000/svg" width="653" height="502.00000000000006">
 <!-- Created with Image Occlusion Enhanced -->
 <g>
  <title>Labels</title>
 </g>
 <g>
  <title>Masks</title>
  <rect id="d5b0a10335cd4dc198f9a87efb87655e-ao-1" height="13.55932" width="115.25424" y="264.77968" x="515.6441" stroke="#2D2D2D" fill="#FFEBA2"/>
  <rect id="d5b0a10335cd4dc198f9a87efb87655e-ao-2" height="15.25424" width="64.40678" y="286.81358" x="513.10173" stroke="#2D2D2D" fill="#FFEBA2"/>
  <rect id="d5b0a10335cd4dc198f9a87efb87655e-ao-3" height="26.27119" width="127.96611" y="308.00002" x="513.10173" stroke="#2D2D2D" fill="#FFEBA2"/>
  <rect id="d5b0a10335cd4dc198f9a87efb87655e-ao-4" height="11.01695" width="116.1017" y="340.20341" x="514.79664" stroke="#2D2D2D" fill="#FFEBA2"/>
  <rect id="d5b0a10335cd4dc198f9a87efb87655e-ao-5" height="15.25424" width="72.0339" y="380.03392" x="515.6441" stroke="#2D2D2D" fill="#FFEBA2"/>
  <rect id="d5b0a10335cd4dc198f9a87efb87655e-ao-6" height="20.33898" width="81.35593" y="402.06782" x="515.6441" stroke="#2D2D2D" fill="#FFEBA2"/>
  <rect id="d5b0a10335cd4dc198f9a87efb87655e-ao-7" height="38.13559" width="119.49153" y="213.08476" x="514.79664" stroke="#2D2D2D" fill="#FFEBA2"/>
  <rect id="d5b0a10335cd4dc198f9a87efb87655e-ao-8" height="14.40678" width="45.76271" y="191.89832" x="511.40681" stroke="#2D2D2D" fill="#FFEBA2"/>
  <rect id="d5b0a10335cd4dc198f9a87efb87655e-ao-9" height="16.1017" width="42.37288" y="170.71188" x="512.25427" stroke="#2D2D2D" fill="#FFEBA2"/>
  <rect id="d5b0a10335cd4dc198f9a87efb87655e-ao-10" height="14.40678" width="67.79661" y="151.22035" x="512.25427" stroke="#2D2D2D" fill="#FFEBA2"/>
  <rect id="d5b0a10335cd4dc198f9a87efb87655e-ao-11" height="11.86441" width="67.79661" y="135.96612" x="513.10173" stroke="#2D2D2D" fill="#FFEBA2"/>
  <rect id="d5b0a10335cd4dc198f9a87efb87655e-ao-12" height="14.40678" width="81.35593" y="112.2373" x="515.6441" stroke="#2D2D2D" fill="#FFEBA2"/>
  <rect id="d5b0a10335cd4dc198f9a87efb87655e-ao-13" height="10.16949" width="55.08475" y="53.76272" x="515.6441" stroke="#2D2D2D" fill="#FFEBA2"/>
  <rect id="d5b0a10335cd4dc198f9a87efb87655e-ao-14" height="12.71186" width="77.11865" y="30.88137" x="513.10173" stroke="#2D2D2D" fill="#FF7E7E" class="qshape"/>
  <rect id="d5b0a10335cd4dc198f9a87efb87655e-ao-15" height="10.16949" width="44.91526" y="10.54238" x="513.10173" stroke="#2D2D2D" fill="#FFEBA2"/>
 </g>
</svg>