<svg xmlns="http://www.w3.org/2000/svg" width="908" height="572">
 <!-- Created with Image Occlusion Enhanced -->
 <g>
  <title>Labels</title>
 </g>
 <g>
  <title>Masks</title>
  <rect id="d65164d9c668478aa569876070bf9fd7-ao-1" height="22.3301" width="134.95146" y="54.99032" x="671.02915" stroke="#2D2D2D" fill="#FFEBA2"/>
  <rect id="d65164d9c668478aa569876070bf9fd7-ao-2" height="23.30097" width="117.47573" y="90.91265" x="675.88352" stroke="#2D2D2D" fill="#FFEBA2"/>
  <rect id="d65164d9c668478aa569876070bf9fd7-ao-3" height="23.30097" width="100" y="124.89324" x="676.85439" stroke="#2D2D2D" fill="#FFEBA2"/>
  <rect id="d65164d9c668478aa569876070bf9fd7-ao-4" height="21.35922" width="112.62136" y="157.90295" x="667.14566" stroke="#2D2D2D" fill="#FFEBA2"/>
  <rect id="d65164d9c668478aa569876070bf9fd7-ao-5" height="21.35922" width="239.80584" y="186.05829" x="651.61167" stroke="#2D2D2D" fill="#FFEBA2"/>
  <rect id="d65164d9c668478aa569876070bf9fd7-ao-6" height="18.4466" width="127.18447" y="222.95149" x="645.78643" stroke="#2D2D2D" fill="#FFEBA2"/>
  <rect id="d65164d9c668478aa569876070bf9fd7-ao-7" height="16.50486" width="69.90292" y="254.99033" x="639.96119" stroke="#2D2D2D" fill="#FFEBA2"/>
  <rect id="d65164d9c668478aa569876070bf9fd7-ao-8" height="22.3301" width="182.52428" y="89.94178" x="103.06796" stroke="#2D2D2D" fill="#FFEBA2"/>
  <rect id="d65164d9c668478aa569876070bf9fd7-ao-9" height="21.35922" width="80.58253" y="121.98061" x="200.15534" stroke="#2D2D2D" fill="#FFEBA2"/>
  <rect id="d65164d9c668478aa569876070bf9fd7-ao-10" height="20.38835" width="106.79612" y="151.10683" x="173.94175" stroke="#2D2D2D" fill="#FF7E7E" class="qshape"/>
  <rect id="d65164d9c668478aa569876070bf9fd7-ao-11" height="19.41748" width="106.79612" y="182.17479" x="172.97088" stroke="#2D2D2D" fill="#FFEBA2"/>
  <rect id="d65164d9c668478aa569876070bf9fd7-ao-12" height="18.4466" width="168.93205" y="210.33013" x="107.92233" stroke="#2D2D2D" fill="#FFEBA2"/>
  <rect id="d65164d9c668478aa569876070bf9fd7-ao-13" height="16.50486" width="106.79612" y="243.33984" x="169.08738" stroke="#2D2D2D" fill="#FFEBA2"/>
  <rect id="d65164d9c668478aa569876070bf9fd7-ao-14" height="22.3301" width="156.31069" y="271.49518" x="121.51456" stroke="#2D2D2D" fill="#FFEBA2"/>
  <rect id="d65164d9c668478aa569876070bf9fd7-ao-15" height="41.74757" width="226.2136" y="337.5146" x="58.40776" stroke="#2D2D2D" fill="#FFEBA2"/>
  <rect id="d65164d9c668478aa569876070bf9fd7-ao-16" height="24.27185" width="82.52428" y="388.00004" x="200.15534" stroke="#2D2D2D" fill="#FFEBA2"/>
  <rect id="d65164d9c668478aa569876070bf9fd7-ao-17" height="22.3301" width="69.90292" y="417.12626" x="205.98059" stroke="#2D2D2D" fill="#FFEBA2"/>
  <rect id="d65164d9c668478aa569876070bf9fd7-ao-18" height="20.38835" width="83.49515" y="501.59228" x="197.24272" stroke="#2D2D2D" fill="#FFEBA2"/>
  <rect id="d65164d9c668478aa569876070bf9fd7-ao-19" height="21.35922" width="68.93204" y="530.7185" x="207.92233" stroke="#2D2D2D" fill="#FFEBA2"/>
  <rect id="d65164d9c668478aa569876070bf9fd7-ao-20" height="23.30097" width="146.60195" y="478.29131" x="562.29128" stroke="#2D2D2D" fill="#FFEBA2"/>
  <rect id="d65164d9c668478aa569876070bf9fd7-ao-21" height="22.3301" width="167.96117" y="284.11654" x="630.25245" stroke="#2D2D2D" fill="#FFEBA2"/>
  <rect id="d65164d9c668478aa569876070bf9fd7-ao-22" height="20.38835" width="157.28156" y="318.09713" x="618.60196" stroke="#2D2D2D" fill="#FFEBA2"/>
  <rect id="d65164d9c668478aa569876070bf9fd7-ao-23" height="18.4466" width="241.74758" y="351.10684" x="607.92235" stroke="#2D2D2D" fill="#FFEBA2"/>
  <rect id="d65164d9c668478aa569876070bf9fd7-ao-24" height="22.3301" width="152.42719" y="382.1748" x="601.12623" stroke="#2D2D2D" fill="#FFEBA2"/>
  <rect id="d65164d9c668478aa569876070bf9fd7-ao-25" height="22.3301" width="161.16506" y="411.30102" x="587.534" stroke="#2D2D2D" fill="#FFEBA2"/>
  <rect id="d65164d9c668478aa569876070bf9fd7-ao-26" height="23.30097" width="181.55341" y="446.25247" x="576.85439" stroke="#2D2D2D" fill="#FFEBA2"/>
 </g>
</svg>