<svg xmlns="http://www.w3.org/2000/svg" width="723" height="830.9999999999999">
 <!-- Created with Image Occlusion Enhanced -->
 <g>
  <title>Labels</title>
 </g>
 <g>
  <title>Masks</title>
  <rect id="e4f177eec6974f06b7c0c438a165965a-ao-1" height="15.05282" width="107.74648" y="84.21131" x="569.7993" stroke="#2D2D2D" fill="#FFEBA2"/>
  <rect id="e4f177eec6974f06b7c0c438a165965a-ao-2" height="43.57395" width="98.23944" y="113.52469" x="604.65846" stroke="#2D2D2D" fill="#FFEBA2"/>
  <rect id="e4f177eec6974f06b7c0c438a165965a-ao-3" height="13.46831" width="51.49648" y="173.73596" x="629.21832" stroke="#2D2D2D" fill="#FFEBA2"/>
  <rect id="e4f177eec6974f06b7c0c438a165965a-ao-4" height="17.42958" width="91.90141" y="43.01413" x="457.2993" stroke="#2D2D2D" fill="#FF7E7E" class="qshape"/>
  <rect id="e4f177eec6974f06b7c0c438a165965a-ao-5" height="29.31338" width="68.13381" y="211.76413" x="633.97184" stroke="#2D2D2D" fill="#FFEBA2"/>
  <rect id="e4f177eec6974f06b7c0c438a165965a-ao-6" height="16.63732" width="76.05634" y="273.55991" x="597.52818" stroke="#2D2D2D" fill="#FFEBA2"/>
  <rect id="e4f177eec6974f06b7c0c438a165965a-ao-7" height="57.04226" width="87.14789" y="317.92611" x="602.2817" stroke="#2D2D2D" fill="#FFEBA2"/>
  <rect id="e4f177eec6974f06b7c0c438a165965a-ao-8" height="27.72887" width="100.6162" y="34.29934" x="234.67605" stroke="#2D2D2D" fill="#FFEBA2"/>
  <rect id="e4f177eec6974f06b7c0c438a165965a-ao-9" height="29.31338" width="80.01761" y="92.9261" x="246.55985" stroke="#2D2D2D" fill="#FFEBA2"/>
  <rect id="e4f177eec6974f06b7c0c438a165965a-ao-10" height="12.67606" width="118.04578" y="1.97539" x="35.02815" stroke="#2D2D2D" fill="#FFEBA2"/>
  <rect id="e4f177eec6974f06b7c0c438a165965a-ao-11" height="15.84507" width="87.94015" y="39.21131" x="75.43308" stroke="#2D2D2D" fill="#FFEBA2"/>
  <rect id="e4f177eec6974f06b7c0c438a165965a-ao-12" height="14.26056" width="111.70775" y="62.18666" x="94.44717" stroke="#2D2D2D" fill="#FFEBA2"/>
  <rect id="e4f177eec6974f06b7c0c438a165965a-ao-13" height="25.35211" width="97.44719" y="83.57751" x="116.63027" stroke="#2D2D2D" fill="#FFEBA2"/>
  <rect id="e4f177eec6974f06b7c0c438a165965a-ao-14" height="26.93662" width="88.7324" y="118.43667" x="149.90492" stroke="#2D2D2D" fill="#FFEBA2"/>
  <rect id="e4f177eec6974f06b7c0c438a165965a-ao-15" height="34.0669" width="118.83803" y="157.25709" x="187.93309" stroke="#2D2D2D" fill="#FFEBA2"/>
  <rect id="e4f177eec6974f06b7c0c438a165965a-ao-16" height="46.74296" width="39.61268" y="204.00005" x="279.04225" stroke="#2D2D2D" fill="#FFEBA2"/>
  <rect id="e4f177eec6974f06b7c0c438a165965a-ao-17" height="29.31338" width="53.87324" y="269.7571" x="268.74295" stroke="#2D2D2D" fill="#FFEBA2"/>
  <rect id="e4f177eec6974f06b7c0c438a165965a-ao-18" height="27.72887" width="43.57395" y="317.45076" x="275.08098" stroke="#2D2D2D" fill="#FFEBA2"/>
  <rect id="e4f177eec6974f06b7c0c438a165965a-ao-19" height="23.76761" width="44.3662" y="369.73949" x="275.08098" stroke="#2D2D2D" fill="#FFEBA2"/>
  <rect id="e4f177eec6974f06b7c0c438a165965a-ao-20" height="26.14437" width="58.62676" y="395.09161" x="241.80633" stroke="#2D2D2D" fill="#FFEBA2"/>
  <rect id="e4f177eec6974f06b7c0c438a165965a-ao-21" height="24.55986" width="119.63029" y="433.11978" x="243.39084" stroke="#2D2D2D" fill="#FFEBA2"/>
  <rect id="e4f177eec6974f06b7c0c438a165965a-ao-22" height="13.46831" width="38.82042" y="469.56344" x="245.7676" stroke="#2D2D2D" fill="#FFEBA2"/>
  <rect id="e4f177eec6974f06b7c0c438a165965a-ao-23" height="15.84507" width="108.53874" y="498.87682" x="244.18309" stroke="#2D2D2D" fill="#FFEBA2"/>
  <rect id="e4f177eec6974f06b7c0c438a165965a-ao-24" height="13.46831" width="45.95071" y="545.61978" x="241.80633" stroke="#2D2D2D" fill="#FFEBA2"/>
  <rect id="e4f177eec6974f06b7c0c438a165965a-ao-25" height="27.72887" width="49.11972" y="589.19373" x="243.39084" stroke="#2D2D2D" fill="#FFEBA2"/>
  <rect id="e4f177eec6974f06b7c0c438a165965a-ao-26" height="19.01409" width="70.51057" y="493.33105" x="601.48944" stroke="#2D2D2D" fill="#FFEBA2"/>
  <rect id="e4f177eec6974f06b7c0c438a165965a-ao-27" height="19.01409" width="96.65493" y="657.32754" x="595.15142" stroke="#2D2D2D" fill="#FFEBA2"/>
  <rect id="e4f177eec6974f06b7c0c438a165965a-ao-28" height="66.5493" width="90.31691" y="576.51767" x="298.84858" stroke="#2D2D2D" fill="#FFEBA2"/>
  <rect id="e4f177eec6974f06b7c0c438a165965a-ao-29" height="43.57395" width="91.10916" y="702.16909" x="601.48944" stroke="#2D2D2D" fill="#FFEBA2"/>
  <rect id="e4f177eec6974f06b7c0c438a165965a-ao-30" height="41.98944" width="96.65493" y="771.09515" x="599.90494" stroke="#2D2D2D" fill="#FFEBA2"/>
  <rect id="e4f177eec6974f06b7c0c438a165965a-ao-31" height="16.63732" width="76.05634" y="756.83458" x="87.31688" stroke="#2D2D2D" fill="#FFEBA2"/>
  <rect id="e4f177eec6974f06b7c0c438a165965a-ao-32" height="16.63732" width="88.7324" y="781.39444" x="50.08097" stroke="#2D2D2D" fill="#FFEBA2"/>
  <rect id="e4f177eec6974f06b7c0c438a165965a-ao-33" height="19.01409" width="99.82395" y="806.74656" x="12.84505" stroke="#2D2D2D" fill="#FFEBA2"/>
 </g>
</svg>