<svg xmlns="http://www.w3.org/2000/svg" width="911.9999999999999" height="689">
 <!-- Created with Image Occlusion Enhanced -->
 <g>
  <title>Labels</title>
 </g>
 <g>
  <title>Masks</title>
  <rect id="eb797a652fb7433fb2a390c44d74bff6-ao-1" height="17.44186" width="58.43023" y="43.55813" x="289.39534" stroke="#2D2D2D" fill="#FFEBA2"/>
  <rect id="eb797a652fb7433fb2a390c44d74bff6-ao-2" height="16.56977" width="143.89535" y="44.43022" x="384.45348" stroke="#2D2D2D" fill="#FFEBA2"/>
  <rect id="eb797a652fb7433fb2a390c44d74bff6-ao-3" height="17.44186" width="170.93023" y="66.23255" x="496.08138" stroke="#2D2D2D" fill="#FFEBA2"/>
  <rect id="eb797a652fb7433fb2a390c44d74bff6-ao-4" height="18.31395" width="178.77907" y="90.65115" x="598.11626" stroke="#2D2D2D" fill="#FFEBA2"/>
  <rect id="eb797a652fb7433fb2a390c44d74bff6-ao-5" height="15.69767" width="61.9186" y="134.2558" x="687.06975" stroke="#2D2D2D" fill="#FFEBA2"/>
  <rect id="eb797a652fb7433fb2a390c44d74bff6-ao-6" height="17.44186" width="116.86046" y="156.05813" x="721.95347" stroke="#2D2D2D" fill="#FFEBA2"/>
  <rect id="eb797a652fb7433fb2a390c44d74bff6-ao-7" height="19.18605" width="108.13953" y="180.47673" x="748.11626" stroke="#2D2D2D" fill="#FFEBA2"/>
  
  <rect id="eb797a652fb7433fb2a390c44d74bff6-ao-9" height="17.44186" width="100.2907" y="92.39534" x="170.79069" stroke="#2D2D2D" fill="#FFEBA2"/>
  <rect id="eb797a652fb7433fb2a390c44d74bff6-ao-10" height="14.82558" width="96.80232" y="116.81394" x="133.29069" stroke="#2D2D2D" fill="#FFEBA2"/>
  <rect id="eb797a652fb7433fb2a390c44d74bff6-ao-11" height="14.82558" width="62.7907" y="141.23255" x="131.5465" stroke="#2D2D2D" fill="#FFEBA2"/>
  <rect id="eb797a652fb7433fb2a390c44d74bff6-ao-12" height="17.44186" width="111.62791" y="162.16278" x="61.77906" stroke="#2D2D2D" fill="#FFEBA2"/>
  <rect id="eb797a652fb7433fb2a390c44d74bff6-ao-13" height="17.44186" width="113.37209" y="189.19766" x="37.36046" stroke="#2D2D2D" fill="#FFEBA2"/>
  <rect id="eb797a652fb7433fb2a390c44d74bff6-ao-14" height="31.39535" width="84.59302" y="229.31394" x="58.29069" stroke="#2D2D2D" fill="#FFEBA2"/>
  <rect id="eb797a652fb7433fb2a390c44d74bff6-ao-15" height="28.77907" width="106.39535" y="275.53487" x="21.66278" stroke="#2D2D2D" fill="#FFEBA2"/>
  <rect id="eb797a652fb7433fb2a390c44d74bff6-ao-16" height="15.69767" width="75.87209" y="364.48836" x="45.20929" stroke="#2D2D2D" fill="#FFEBA2"/>
  <rect id="eb797a652fb7433fb2a390c44d74bff6-ao-17" height="32.26744" width="64.53488" y="391.52324" x="49.56976" stroke="#2D2D2D" fill="#FFEBA2"/>
  <rect id="eb797a652fb7433fb2a390c44d74bff6-ao-18" height="16.56977" width="81.10465" y="434.2558" x="15.55813" stroke="#2D2D2D" fill="#FFEBA2"/>
  <rect id="eb797a652fb7433fb2a390c44d74bff6-ao-19" height="20.05814" width="117.73256" y="555.47673" x="67.01162" stroke="#2D2D2D" fill="#FFEBA2"/>
  <rect id="eb797a652fb7433fb2a390c44d74bff6-ao-20" height="17.44186" width="75" y="598.20929" x="221.37208" stroke="#2D2D2D" fill="#FFEBA2"/>
  <rect id="eb797a652fb7433fb2a390c44d74bff6-ao-21" height="14.82558" width="51.45349" y="621.7558" x="275.44185" stroke="#2D2D2D" fill="#FFEBA2"/>
  <rect id="eb797a652fb7433fb2a390c44d74bff6-ao-22" height="15.69767" width="99.4186" y="641.81394" x="250.15115" stroke="#2D2D2D" fill="#FFEBA2"/>
  <rect id="eb797a652fb7433fb2a390c44d74bff6-ao-23" height="14.82558" width="64.53488" y="664.48835" x="311.19766" stroke="#2D2D2D" fill="#FFEBA2"/>
  <rect id="eb797a652fb7433fb2a390c44d74bff6-ao-24" height="17.44186" width="125.58139" y="663.61626" x="402.76743" stroke="#2D2D2D" fill="#FFEBA2"/>
  <rect id="eb797a652fb7433fb2a390c44d74bff6-ao-25" height="14.82558" width="66.27907" y="670.59301" x="578.05813" stroke="#2D2D2D" fill="#FFEBA2"/>
  <rect id="eb797a652fb7433fb2a390c44d74bff6-ao-26" height="18.31395" width="102.03488" y="671.4651" x="674.86045" stroke="#2D2D2D" fill="#FFEBA2"/>
  <rect id="eb797a652fb7433fb2a390c44d74bff6-ao-27" height="31.39535" width="129.94186" y="629.60463" x="683.58138" stroke="#2D2D2D" fill="#FFEBA2"/>
  <rect id="eb797a652fb7433fb2a390c44d74bff6-ao-28" height="20.05814" width="101.16279" y="604.31394" x="686.19766" stroke="#2D2D2D" fill="#FFEBA2"/>
  <rect id="eb797a652fb7433fb2a390c44d74bff6-ao-29" height="20.05814" width="70.63953" y="581.63952" x="693.1744" stroke="#2D2D2D" fill="#FFEBA2"/>
  <rect id="eb797a652fb7433fb2a390c44d74bff6-ao-30" height="17.44186" width="125.58139" y="563.32556" x="717.59301" stroke="#2D2D2D" fill="#FFEBA2"/>
  <rect id="eb797a652fb7433fb2a390c44d74bff6-ao-31" height="18.31395" width="86.33721" y="543.26743" x="743.7558" stroke="#2D2D2D" fill="#FFEBA2"/>
  <rect id="eb797a652fb7433fb2a390c44d74bff6-ao-32" height="17.44186" width="86.33721" y="517.10463" x="754.22091" stroke="#2D2D2D" fill="#FFEBA2"/>
  <rect id="eb797a652fb7433fb2a390c44d74bff6-ao-33" height="18.31395" width="68.02326" y="426.40696" x="787.36045" stroke="#2D2D2D" fill="#FFEBA2"/>
  <rect id="eb797a652fb7433fb2a390c44d74bff6-ao-34" height="14.82558" width="58.43023" y="398.49998" x="792.59301" stroke="#2D2D2D" fill="#FFEBA2"/>
  <rect id="eb797a652fb7433fb2a390c44d74bff6-ao-35" height="18.31395" width="60.17442" y="367.97673" x="792.59301" stroke="#2D2D2D" fill="#FFEBA2"/>
  <rect id="eb797a652fb7433fb2a390c44d74bff6-ao-36" height="13.95349" width="108.13953" y="343.55812" x="794.33719" stroke="#2D2D2D" fill="#FFEBA2"/>
  <rect id="eb797a652fb7433fb2a390c44d74bff6-ao-37" height="15.69767" width="72.38372" y="310.41859" x="790.84882" stroke="#2D2D2D" fill="#FFEBA2"/>
  <rect id="eb797a652fb7433fb2a390c44d74bff6-ao-38" height="17.44186" width="117.73256" y="278.15115" x="784.74417" stroke="#2D2D2D" fill="#FFEBA2"/>
  <rect id="eb797a652fb7433fb2a390c44d74bff6-ao-39" height="27.90698" width="132.55814" y="210.99999" x="762.94184" stroke="#2D2D2D" fill="#FFEBA2"/>
 </g>
</svg>