<svg xmlns="http://www.w3.org/2000/svg" width="895" height="395">
 <!-- Created with Image Occlusion Enhanced -->
 <g>
  <title>Labels</title>
 </g>
 <g>
  <title>Masks</title>
  <rect id="eefdfc60a28f40b88f158689097715e3-ao-1" height="20" width="60" y="37.53333" x="763" stroke="#2D2D2D" fill="#FFEBA2"/>
  <rect id="eefdfc60a28f40b88f158689097715e3-ao-2" height="20" width="118.66667" y="125.53333" x="720.33333" stroke="#2D2D2D" fill="#FFEBA2"/>
  <rect id="eefdfc60a28f40b88f158689097715e3-ao-3" height="18" width="74" y="156.86667" x="735" stroke="#2D2D2D" fill="#FF7E7E" class="qshape"/>
  <rect id="eefdfc60a28f40b88f158689097715e3-ao-4" height="19.33333" width="72" y="186.2" x="742.33333" stroke="#2D2D2D" fill="#FFEBA2"/>
  <rect id="eefdfc60a28f40b88f158689097715e3-ao-5" height="19.33333" width="62" y="216.2" x="749.66667" stroke="#2D2D2D" fill="#FFEBA2"/>
  <rect id="eefdfc60a28f40b88f158689097715e3-ao-6" height="17.33333" width="118.66667" y="372.2" x="615.66667" stroke="#2D2D2D" fill="#FFEBA2"/>
  <rect id="eefdfc60a28f40b88f158689097715e3-ao-7" height="18" width="61.33333" y="269.53333" x="829.66667" stroke="#2D2D2D" fill="#FFEBA2"/>
  <rect id="eefdfc60a28f40b88f158689097715e3-ao-8" height="18.66667" width="168" y="333.53333" x="120.33333" stroke="#2D2D2D" fill="#FFEBA2"/>
  <rect id="eefdfc60a28f40b88f158689097715e3-ao-9" height="20" width="196" y="361.53333" x="127" stroke="#2D2D2D" fill="#FFEBA2"/>
  <rect id="eefdfc60a28f40b88f158689097715e3-ao-10" height="20" width="198" y="304.86667" x="43.66667" stroke="#2D2D2D" fill="#FFEBA2"/>
  <rect id="eefdfc60a28f40b88f158689097715e3-ao-11" height="16.66667" width="94.66667" y="250.86667" x="88.33333" stroke="#2D2D2D" fill="#FFEBA2"/>
  <rect id="eefdfc60a28f40b88f158689097715e3-ao-12" height="14.66667" width="64.66667" y="222.86667" x="106.33333" stroke="#2D2D2D" fill="#FFEBA2"/>
  <rect id="eefdfc60a28f40b88f158689097715e3-ao-13" height="19.33333" width="148" y="192.2" x="17.66667" stroke="#2D2D2D" fill="#FFEBA2"/>
  <rect id="eefdfc60a28f40b88f158689097715e3-ao-14" height="17.33333" width="49.33333" y="136.2" x="116.33333" stroke="#2D2D2D" fill="#FFEBA2"/>
  <rect id="eefdfc60a28f40b88f158689097715e3-ao-15" height="18.66667" width="54.66667" y="80.2" x="143" stroke="#2D2D2D" fill="#FFEBA2"/>
 </g>
</svg>