<svg xmlns="http://www.w3.org/2000/svg" width="898" height="697">
 <!-- Created with Image Occlusion Enhanced -->
 <g>
  <title>Labels</title>
 </g>
 <g>
  <title>Masks</title>
  <rect id="f5386f44f04b4f7c91f8e1bd748ccaa2-ao-1" height="19.41176" width="138.52941" y="65.35292" x="85.82353" stroke="#2D2D2D" fill="#FFEBA2"/>
  <rect id="f5386f44f04b4f7c91f8e1bd748ccaa2-ao-2" height="16.76471" width="124.41176" y="97.99998" x="77.88235" stroke="#2D2D2D" fill="#FFEBA2"/>
  <rect id="f5386f44f04b4f7c91f8e1bd748ccaa2-ao-3" height="18.52941" width="136.76471" y="125.35292" x="45.23529" stroke="#2D2D2D" fill="#FFEBA2"/>
  <rect id="f5386f44f04b4f7c91f8e1bd748ccaa2-ao-4" height="17.64706" width="164.11765" y="157.99998" x="6.41176" stroke="#2D2D2D" fill="#FFEBA2"/>
  <rect id="f5386f44f04b4f7c91f8e1bd748ccaa2-ao-5" height="21.17647" width="85.58823" y="227.70586" x="60.23529" stroke="#2D2D2D" fill="#FFEBA2"/>
  <rect id="f5386f44f04b4f7c91f8e1bd748ccaa2-ao-6" height="35.29412" width="105.88235" y="259.47057" x="32.88235" stroke="#2D2D2D" fill="#FFEBA2"/>
  <rect id="f5386f44f04b4f7c91f8e1bd748ccaa2-ao-7" height="18.52941" width="98.82353" y="301.82351" x="32.88235" stroke="#2D2D2D" fill="#FFEBA2"/>
  <rect id="f5386f44f04b4f7c91f8e1bd748ccaa2-ao-8" height="15" width="109.41176" y="334.47057" x="22.29411" stroke="#2D2D2D" fill="#FFEBA2"/>
  <rect id="f5386f44f04b4f7c91f8e1bd748ccaa2-ao-9" height="21.17647" width="87.35294" y="389.17645" x="32.88235" stroke="#2D2D2D" fill="#FFEBA2"/>
  <rect id="f5386f44f04b4f7c91f8e1bd748ccaa2-ao-10" height="19.41176" width="90" y="468.58821" x="28.47058" stroke="#2D2D2D" fill="#FFEBA2"/>
  <rect id="f5386f44f04b4f7c91f8e1bd748ccaa2-ao-11" height="29.11765" width="78.52941" y="502.11762" x="49.64706" stroke="#2D2D2D" fill="#FFEBA2"/>
  <rect id="f5386f44f04b4f7c91f8e1bd748ccaa2-ao-12" height="17.64706" width="90.88235" y="541.82351" x="54.05882" stroke="#2D2D2D" fill="#FFEBA2"/>
  <rect id="f5386f44f04b4f7c91f8e1bd748ccaa2-ao-13" height="21.17647" width="137.64706" y="570.0588" x="21.41176" stroke="#2D2D2D" fill="#FFEBA2"/>
  <rect id="f5386f44f04b4f7c91f8e1bd748ccaa2-ao-14" height="21.17647" width="122.64706" y="601.82351" x="48.7647" stroke="#2D2D2D" fill="#FFEBA2"/>
  <rect id="f5386f44f04b4f7c91f8e1bd748ccaa2-ao-15" height="16.76471" width="137.64706" y="635.35292" x="50.52941" stroke="#2D2D2D" fill="#FFEBA2"/>
  <rect id="f5386f44f04b4f7c91f8e1bd748ccaa2-ao-16" height="20.29412" width="182.64706" y="654.76468" x="594.05882" stroke="#2D2D2D" fill="#FFEBA2"/>
  <rect id="f5386f44f04b4f7c91f8e1bd748ccaa2-ao-17" height="21.17647" width="158.82353" y="626.52939" x="609.94117" stroke="#2D2D2D" fill="#FFEBA2"/>
  <rect id="f5386f44f04b4f7c91f8e1bd748ccaa2-ao-18" height="22.05882" width="121.76471" y="595.64704" x="631.99999" stroke="#2D2D2D" fill="#FFEBA2"/>
  <rect id="f5386f44f04b4f7c91f8e1bd748ccaa2-ao-19" height="20.29412" width="86.47059" y="572.70586" x="653.17646" stroke="#2D2D2D" fill="#FF7E7E" class="qshape"/>
  <rect id="f5386f44f04b4f7c91f8e1bd748ccaa2-ao-20" height="39.70588" width="182.64706" y="527.70586" x="669.94117" stroke="#2D2D2D" fill="#FFEBA2"/>
  <rect id="f5386f44f04b4f7c91f8e1bd748ccaa2-ao-21" height="17.64706" width="119.11765" y="502.99998" x="688.47058" stroke="#2D2D2D" fill="#FFEBA2"/>
  <rect id="f5386f44f04b4f7c91f8e1bd748ccaa2-ao-22" height="32.64706" width="182.64706" y="459.76468" x="687.58823" stroke="#2D2D2D" fill="#FFEBA2"/>
  <rect id="f5386f44f04b4f7c91f8e1bd748ccaa2-ao-23" height="54.70588" width="213.52941" y="397.99998" x="681.41176" stroke="#2D2D2D" fill="#FFEBA2"/>
  <rect id="f5386f44f04b4f7c91f8e1bd748ccaa2-ao-24" height="22.05882" width="204.70588" y="344.17645" x="688.47058" stroke="#2D2D2D" fill="#FFEBA2"/>
  <rect id="f5386f44f04b4f7c91f8e1bd748ccaa2-ao-25" height="19.41176" width="181.76471" y="317.70586" x="684.05882" stroke="#2D2D2D" fill="#FFEBA2"/>
  <rect id="f5386f44f04b4f7c91f8e1bd748ccaa2-ao-26" height="19.41176" width="170.29412" y="288.58821" x="680.52941" stroke="#2D2D2D" fill="#FFEBA2"/>
  <rect id="f5386f44f04b4f7c91f8e1bd748ccaa2-ao-27" height="15.88235" width="97.05882" y="264.76468" x="676.99999" stroke="#2D2D2D" fill="#FFEBA2"/>
  <rect id="f5386f44f04b4f7c91f8e1bd748ccaa2-ao-28" height="18.52941" width="172.94118" y="233.88233" x="661.11764" stroke="#2D2D2D" fill="#FFEBA2"/>
  <rect id="f5386f44f04b4f7c91f8e1bd748ccaa2-ao-29" height="21.17647" width="129.70588" y="205.64704" x="654.05882" stroke="#2D2D2D" fill="#FFEBA2"/>
  <rect id="f5386f44f04b4f7c91f8e1bd748ccaa2-ao-30" height="22.05882" width="159.70588" y="180.94116" x="642.58823" stroke="#2D2D2D" fill="#FFEBA2"/>
  <rect id="f5386f44f04b4f7c91f8e1bd748ccaa2-ao-31" height="21.17647" width="124.41176" y="153.58821" x="618.7647" stroke="#2D2D2D" fill="#FFEBA2"/>
  <rect id="f5386f44f04b4f7c91f8e1bd748ccaa2-ao-32" height="22.05882" width="169.41176" y="125.35292" x="609.94117" stroke="#2D2D2D" fill="#FFEBA2"/>
  <rect id="f5386f44f04b4f7c91f8e1bd748ccaa2-ao-33" height="18.52941" width="157.05882" y="99.76469" x="592.29411" stroke="#2D2D2D" fill="#FFEBA2"/>
  <rect id="f5386f44f04b4f7c91f8e1bd748ccaa2-ao-34" height="23.82353" width="155.29412" y="68.88233" x="571.11764" stroke="#2D2D2D" fill="#FFEBA2"/>
  <rect id="f5386f44f04b4f7c91f8e1bd748ccaa2-ao-35" height="17.64706" width="80.29412" y="44.17645" x="537.58823" stroke="#2D2D2D" fill="#FFEBA2"/>
 </g>
</svg>