<svg xmlns="http://www.w3.org/2000/svg" width="680" height="816">
 <!-- Created with Image Occlusion Enhanced -->
 <g>
  <title>Labels</title>
 </g>
 <g>
  <title>Masks</title>
  <rect id="f871da46e8354549affa81e23899a951-ao-1" height="16.40625" width="124.21875" y="45.87502" x="40.46872" stroke="#2D2D2D" fill="#FFEBA2"/>
  <rect id="f871da46e8354549affa81e23899a951-ao-2" height="19.53125" width="193.75" y="67.75002" x="487.34372" stroke="#2D2D2D" fill="#FFEBA2"/>
  <rect id="f871da46e8354549affa81e23899a951-ao-3" height="21.875" width="81.25" y="96.65627" x="488.12497" stroke="#2D2D2D" fill="#FFEBA2"/>
  <rect id="f871da46e8354549affa81e23899a951-ao-4" height="25.78125" width="139.0625" y="29.46877" x="471.71872" stroke="#2D2D2D" fill="#FFEBA2"/>
  <rect id="f871da46e8354549affa81e23899a951-ao-5" height="14.0625" width="99.21875" y="124.00002" x="490.46872" stroke="#2D2D2D" fill="#FFEBA2"/>
  <rect id="f871da46e8354549affa81e23899a951-ao-6" height="10.9375" width="62.5" y="149.78127" x="505.31247" stroke="#2D2D2D" fill="#FFEBA2"/>
  <rect id="f871da46e8354549affa81e23899a951-ao-7" height="17.96875" width="135.9375" y="174.78127" x="504.53122" stroke="#2D2D2D" fill="#FFEBA2"/>
  <rect id="f871da46e8354549affa81e23899a951-ao-8" height="14.0625" width="88.28125" y="202.12502" x="505.31247" stroke="#2D2D2D" fill="#FFEBA2"/>
  <rect id="f871da46e8354549affa81e23899a951-ao-9" height="14.84375" width="146.09375" y="230.25002" x="506.87497" stroke="#2D2D2D" fill="#FFEBA2"/>
  <rect id="f871da46e8354549affa81e23899a951-ao-10" height="13.28125" width="70.3125" y="257.59377" x="503.74997" stroke="#2D2D2D" fill="#FFEBA2"/>
  
  <rect id="f871da46e8354549affa81e23899a951-ao-12" height="21.875" width="120.3125" y="108.37502" x="46.71872" stroke="#2D2D2D" fill="#FFEBA2"/>
  <rect id="f871da46e8354549affa81e23899a951-ao-13" height="16.40625" width="140.625" y="242.12502" x="27.96872" stroke="#2D2D2D" fill="#FFEBA2"/>
  <rect id="f871da46e8354549affa81e23899a951-ao-14" height="15.625" width="49.21875" y="273.37502" x="119.37497" stroke="#2D2D2D" fill="#FFEBA2"/>
  <rect id="f871da46e8354549affa81e23899a951-ao-15" height="19.53125" width="74.21875" y="337.28127" x="93.59372" stroke="#2D2D2D" fill="#FFEBA2"/>
  <rect id="f871da46e8354549affa81e23899a951-ao-16" height="14.84375" width="45.3125" y="370.87502" x="120.15622" stroke="#2D2D2D" fill="#FFEBA2"/>
  <rect id="f871da46e8354549affa81e23899a951-ao-17" height="15.625" width="88.28125" y="399.00002" x="81.09372" stroke="#2D2D2D" fill="#FFEBA2"/>
  <rect id="f871da46e8354549affa81e23899a951-ao-18" height="17.96875" width="71.09375" y="337.28127" x="509.21872" stroke="#2D2D2D" fill="#FFEBA2"/>
  <rect id="f871da46e8354549affa81e23899a951-ao-19" height="18.75" width="121.875" y="309.93752" x="506.09372" stroke="#2D2D2D" fill="#FFEBA2"/>
  <rect id="f871da46e8354549affa81e23899a951-ao-20" height="20.3125" width="136.71875" y="363.06252" x="507.65622" stroke="#2D2D2D" fill="#FFEBA2"/>
  <rect id="f871da46e8354549affa81e23899a951-ao-21" height="25.78125" width="102.34375" y="405.25002" x="494.37497" stroke="#2D2D2D" fill="#FFEBA2"/>
  <rect id="f871da46e8354549affa81e23899a951-ao-22" height="17.1875" width="72.65625" y="521.34378" x="495.93747" stroke="#2D2D2D" fill="#FFEBA2"/>
  <rect id="f871da46e8354549affa81e23899a951-ao-23" height="35.9375" width="144.53125" y="626.81253" x="467.81247" stroke="#2D2D2D" fill="#FFEBA2"/>
  <rect id="f871da46e8354549affa81e23899a951-ao-24" height="21.09375" width="143.75" y="667.90628" x="443.59372" stroke="#2D2D2D" fill="#FFEBA2"/>
  <rect id="f871da46e8354549affa81e23899a951-ao-25" height="16.40625" width="119.53125" y="700.71878" x="445.93747" stroke="#2D2D2D" fill="#FFEBA2"/>
  <rect id="f871da46e8354549affa81e23899a951-ao-26" height="16.40625" width="89.84375" y="694.46878" x="145.93747" stroke="#2D2D2D" fill="#FFEBA2"/>
  <rect id="f871da46e8354549affa81e23899a951-ao-27" height="18.75" width="140.625" y="724.15628" x="90.46872" stroke="#2D2D2D" fill="#FFEBA2"/>
  <rect id="f871da46e8354549affa81e23899a951-ao-28" height="16.40625" width="143.75" y="750.71878" x="445.15622" stroke="#2D2D2D" fill="#FFEBA2"/>
  <rect id="f871da46e8354549affa81e23899a951-ao-29" height="15.625" width="102.34375" y="782.75003" x="127.96872" stroke="#2D2D2D" fill="#FFEBA2"/>
  <rect id="f871da46e8354549affa81e23899a951-ao-30" height="19.53125" width="144.53125" y="621.81253" x="67.03122" stroke="#2D2D2D" fill="#FFEBA2"/>
  <rect id="f871da46e8354549affa81e23899a951-ao-31" height="15.625" width="103.125" y="567.12503" x="106.09372" stroke="#2D2D2D" fill="#FFEBA2"/>
  <rect id="f871da46e8354549affa81e23899a951-ao-32" height="16.40625" width="89.84375" y="510.87502" x="122.49997" stroke="#2D2D2D" fill="#FFEBA2"/>
  <rect id="f871da46e8354549affa81e23899a951-ao-33" height="17.96875" width="81.25" y="480.40627" x="127.96872" stroke="#2D2D2D" fill="#FFEBA2"/>
  <rect id="f871da46e8354549affa81e23899a951-ao-34" height="17.1875" width="152.34375" y="454.62502" x="55.31247" stroke="#2D2D2D" fill="#FFEBA2"/>
 </g>
</svg>