<svg xmlns="http://www.w3.org/2000/svg" width="750" height="759">
 <!-- Created with Image Occlusion Enhanced -->
 <g>
  <title>Labels</title>
 </g>
 <g>
  <title>Masks</title>
  <rect id="f9b42269a926473e9329e93f983df55b-ao-1" height="29.80769" width="117.30769" y="1.96155" x="459.23077" stroke="#2D2D2D" fill="#FFEBA2"/>
  <rect id="f9b42269a926473e9329e93f983df55b-ao-2" height="19.23077" width="100" y="49.07694" x="490" stroke="#2D2D2D" fill="#FFEBA2"/>
  <rect id="f9b42269a926473e9329e93f983df55b-ao-3" height="19.23077" width="96.15385" y="88.50002" x="500.57693" stroke="#2D2D2D" fill="#FFEBA2"/>
  <rect id="f9b42269a926473e9329e93f983df55b-ao-4" height="17.30769" width="139.42308" y="127.92309" x="519.80769" stroke="#2D2D2D" fill="#FFEBA2"/>
  <rect id="f9b42269a926473e9329e93f983df55b-ao-5" height="18.26923" width="140.38462" y="82.73078" x="46.73076" stroke="#2D2D2D" fill="#FFEBA2"/>
  <rect id="f9b42269a926473e9329e93f983df55b-ao-6" height="34.61539" width="115.38462" y="125.03848" x="69.80769" stroke="#2D2D2D" fill="#FFEBA2"/>
  <rect id="f9b42269a926473e9329e93f983df55b-ao-7" height="48.07692" width="87.5" y="177.92309" x="21.73076" stroke="#2D2D2D" fill="#FFEBA2"/>
  <rect id="f9b42269a926473e9329e93f983df55b-ao-8" height="33.65385" width="161.53846" y="248.1154" x="27.49999" stroke="#2D2D2D" fill="#FFEBA2"/>
  <rect id="f9b42269a926473e9329e93f983df55b-ao-9" height="32.69231" width="122.11539" y="314.46156" x="65.96153" stroke="#2D2D2D" fill="#FFEBA2"/>
  <rect id="f9b42269a926473e9329e93f983df55b-ao-10" height="15.38462" width="112.5" y="370.23079" x="72.6923" stroke="#2D2D2D" fill="#FFEBA2"/>
  <rect id="f9b42269a926473e9329e93f983df55b-ao-11" height="19.23077" width="182.69231" y="408.69233" x="4.42307" stroke="#2D2D2D" fill="#FFEBA2"/>
  <rect id="f9b42269a926473e9329e93f983df55b-ao-12" height="19.23077" width="171.15385" y="446.19233" x="15.96153" stroke="#2D2D2D" fill="#FFEBA2"/>
  <rect id="f9b42269a926473e9329e93f983df55b-ao-13" height="20.19231" width="139.42308" y="485.61541" x="49.61538" stroke="#2D2D2D" fill="#FFEBA2"/>
  <rect id="f9b42269a926473e9329e93f983df55b-ao-14" height="18.26923" width="139.42308" y="529.84618" x="50.57692" stroke="#2D2D2D" fill="#FFEBA2"/>
  <rect id="f9b42269a926473e9329e93f983df55b-ao-15" height="20.19231" width="144.23077" y="570.23079" x="81.34615" stroke="#2D2D2D" fill="#FFEBA2"/>
  <rect id="f9b42269a926473e9329e93f983df55b-ao-16" height="22.11539" width="122.11539" y="606.76926" x="140" stroke="#2D2D2D" fill="#FFEBA2"/>
  
  <rect id="f9b42269a926473e9329e93f983df55b-ao-18" height="18.26923" width="73.07692" y="541.38464" x="523.65385" stroke="#2D2D2D" fill="#FFEBA2"/>
  <rect id="f9b42269a926473e9329e93f983df55b-ao-19" height="32.69231" width="157.69231" y="490.4231" x="575.57693" stroke="#2D2D2D" fill="#FFEBA2"/>
  <rect id="f9b42269a926473e9329e93f983df55b-ao-20" height="21.15385" width="100" y="440.4231" x="592.88462" stroke="#2D2D2D" fill="#FFEBA2"/>
  <rect id="f9b42269a926473e9329e93f983df55b-ao-21" height="28.84615" width="117.30769" y="387.53848" x="590" stroke="#2D2D2D" fill="#FFEBA2"/>
  <rect id="f9b42269a926473e9329e93f983df55b-ao-22" height="28.84615" width="107.69231" y="335.6154" x="589.03847" stroke="#2D2D2D" fill="#FFEBA2"/>
  <rect id="f9b42269a926473e9329e93f983df55b-ao-23" height="15.38462" width="74.03846" y="251.00002" x="593.84616" stroke="#2D2D2D" fill="#FFEBA2"/>
  <rect id="f9b42269a926473e9329e93f983df55b-ao-24" height="18.26923" width="91.34616" y="294.26925" x="595.76923" stroke="#2D2D2D" fill="#FFEBA2"/>
  <rect id="f9b42269a926473e9329e93f983df55b-ao-25" height="21.15385" width="110.57693" y="206.76925" x="590.96154" stroke="#2D2D2D" fill="#FFEBA2"/>
  <rect id="f9b42269a926473e9329e93f983df55b-ao-26" height="23.07692" width="133.65385" y="164.46156" x="586.15385" stroke="#2D2D2D" fill="#FFEBA2"/>
 </g>
</svg>